<?xml version="1.0" standalone="no"?>
<!DOCTYPE svg PUBLIC "-//W3C//DTD SVG 1.1//EN" "http://www.w3.org/Graphics/SVG/1.1/DTD/svg11.dtd" >
<svg xmlns="http://www.w3.org/2000/svg" xmlns:xlink="http://www.w3.org/1999/xlink" version="1.1">
<metadata>
Created by FontForge 20170731 at Sun Aug 26 22:06:05 2001
 By Aleksey,,,
(c) Copyright 2001 by Tom Truong. All Rights Reserved
</metadata>
<defs>
<font id="UVNThangVu" horiz-adv-x="807" >
  <font-face 
    font-family="UVN Thang Vu"
    font-weight="400"
    font-style="italic"
    font-stretch="normal"
    units-per-em="2048"
    panose-1="3 9 7 2 3 4 7 2 4 4"
    ascent="1638"
    descent="-410"
    x-height="805"
    cap-height="1329"
    bbox="-342 -483 2036 2210"
    underline-thickness="160"
    underline-position="-467"
    slope="-9"
    unicode-range="U+0020-F002"
  />
<missing-glyph horiz-adv-x="1024" 
d="M128 0v2210h768v-2210h-768zM256 128h512v1954h-512v-1954z" />
    <glyph glyph-name=".notdef" horiz-adv-x="1024" 
d="M128 0v2210h768v-2210h-768zM256 128h512v1954h-512v-1954z" />
    <glyph glyph-name=".null" horiz-adv-x="0" 
 />
    <glyph glyph-name="nonmarkingreturn" horiz-adv-x="516" 
 />
    <glyph glyph-name="space" unicode=" " horiz-adv-x="516" 
 />
    <glyph glyph-name="exclam" unicode="!" horiz-adv-x="508" 
d="M154 41q-24 -30 -66 -66l-8 4q-10 7 -31 40.5t-22 46.5q6 28 75 161q70 33 205 76l13 -9q4 -15 4 -26q0 -47 -21 -133q-25 -102 -53 -102q-13 0 -40.5 4t-41.5 4h-14zM121 314q-2 48 -2 130q0 549 63 754l-18 74l137 78q97 -23 211 -144q-77 -269 -101 -361
q-53 -206 -79 -366l-78 -37l-21 -92z" />
    <glyph glyph-name="quotedbl" unicode="&#x22;" horiz-adv-x="678" 
d="M406 1438h192v-559h-192v559zM80 1438h192v-559h-192v559z" />
    <glyph glyph-name="numbersign" unicode="#" horiz-adv-x="1575" 
d="M709 848l-88 -244h251l86 244h-249zM709 1464h221l-146 -415h242l148 415h221l-148 -415h283l-74 -201h-280l-84 -242h290l-71 -200h-291l-148 -416h-221l148 416h-244l-149 -416h-220l146 416h-287l76 200h282l86 242h-299l74 201h297z" />
    <glyph glyph-name="dollar" unicode="$" horiz-adv-x="1034" 
d="M532 479l19 334q-63 -33 -118 -85q-68 -66 -68 -120q0 -50 61 -86q25 -14 106 -43zM127 119l14 24q40 -10 62 -10q131 0 327 137l2 41q-212 44 -300 93q-150 85 -150 251q0 313 504 557l6 98q8 80 22 87l11 -4l12 -13l17 24l12 5q41 0 41 -64q0 -17 -3 -47t-3 -39v-16
q34 10 59 10q20 0 51 -82t117 -118l-47 -295l-37 -8l-31 153q-45 -8 -129 -39l-24 -420q80 -12 132 -70t52 -138q0 -48 -75 -98q-24 -15 -118 -62l2 -187q0 -14 -8 -29q-15 -7 -33 -9l-30 16l-7 -27l-40 -28h-3l-7 4q-3 5 -5 217q-118 -37 -155 -37q-113 0 -238 123z" />
    <glyph glyph-name="percent" unicode="%" horiz-adv-x="1407" 
d="M1100 600q-131 -203 -207 -444q113 42 191 114q96 89 96 191q0 78 -80 139zM1085 666l29 28q203 -96 203 -258q0 -172 -42 -249q-46 -84 -194 -162q-94 -50 -143 -50q-73 0 -134 93q-56 85 -56 163q0 144 59 284q66 155 174 228q57 -22 104 -77zM395 1221l27 28
q205 -98 205 -256q0 -173 -41 -250q-47 -86 -196 -162q-95 -49 -144 -49q-72 0 -133 93q-56 85 -56 163q0 144 59 283q64 153 173 227q62 -25 106 -77zM408 1157q-130 -199 -207 -446q113 42 190 114q96 88 96 191q0 79 -79 141zM1024 1278h76l20 20h111l-862 -1248
q-16 -8 -50 -5l-71 -70h-60z" />
    <glyph glyph-name="ampersand" unicode="&#x26;" horiz-adv-x="1118" 
d="M661 197q-115 85 -215 256l-210 -203q106 -68 292 -68q80 0 133 15zM565 881q144 168 144 260q0 61 -62 61q-42 0 -86 -32q-47 -34 -47 -74q0 -35 20 -107q16 -54 31 -108zM321 673q-45 91 -89 182q-58 126 -58 189q0 131 191 217q157 70 309 70q72 0 144 -134
q65 -120 65 -202q0 -106 -213 -323q74 -217 219 -404q77 22 164 80l61 -92q-79 -53 -160 -90q72 -95 215 -191l-24 -47l-66 33l-22 -37q-116 57 -258 170q-307 -123 -463 -123q-149 0 -249 68q-114 78 -114 221q0 68 144 217z" />
    <glyph glyph-name="quotesingle" unicode="'" horiz-adv-x="352" 
d="M80 1438h192v-559h-192v559z" />
    <glyph glyph-name="parenleft" unicode="(" horiz-adv-x="797" 
d="M559 1323l162 -10q2 -18 10 -51l-94 -148q-29 -57 -29 -168q0 -14 -8 -37q-63 -175 -127 -351q-74 -229 -74 -372q0 -82 30 -145q38 -79 40 -88.5t6 -138.5l-2 -20l-4 -7q-14 1 -56 48q-231 261 -231 595q0 258 93 488q99 248 284 405z" />
    <glyph glyph-name="parenright" unicode=")" horiz-adv-x="797" 
d="M227 1323h56q101 -122 189 -269q116 -194 116 -294q0 -388 -150 -750l-35 -2l-118 -201l-109 15l-31 -35l-94 27q158 332 199 497q30 124 56 341t26 345q0 71 -105 326z" />
    <glyph glyph-name="asterisk" unicode="*" horiz-adv-x="1024" 
d="M381 600l-55 123l77 149q-62 -3 -190 -14l-15 6q-3 14 -3 31q0 81 64 108q35 15 136 21q-114 157 -114 197q0 27 36 54.5t64 27.5q7 0 66 -100q68 -117 73 -124l88 168q18 44 56 107h10q41 0 51 -49q4 -16 4 -82q0 -48 -67 -174q66 14 198 38l18 -10q5 -20 5 -37
q0 -84 -84 -109l-154 -24q53 -62 148 -194q0 -45 -58 -45q-57 0 -114 53q-22 22 -84 100q-85 -142 -156 -221z" />
    <glyph glyph-name="plus" unicode="+" horiz-adv-x="1706" 
d="M752 1221h202v-510h498v-199h-498v-512h-202v512h-498v199h498v510z" />
    <glyph glyph-name="comma" unicode="," horiz-adv-x="516" 
d="M62 199q32 43 83 77q197 -18 197 -53q0 -70 -117 -252q-82 -127 -172 -239l-57 57q58 210 66 410z" />
    <glyph glyph-name="hyphen" unicode="-" horiz-adv-x="702" 
d="M39 487l47 35q48 -16 107 -16q28 0 83 5t82 5q83 0 199 -18l-8 -140l29 -65l-34 -28q-53 32 -112 32q-34 0 -101.5 -10.5t-101.5 -10.5q-82 0 -136 48t-54 129v34z" />
    <glyph glyph-name="hyphen" unicode="&#x2010;" horiz-adv-x="702" 
d="M39 487l47 35q48 -16 107 -16q28 0 83 5t82 5q83 0 199 -18l-8 -140l29 -65l-34 -28q-53 32 -112 32q-34 0 -101.5 -10.5t-101.5 -10.5q-82 0 -136 48t-54 129v34z" />
    <glyph glyph-name="period" unicode="." horiz-adv-x="516" 
d="M55 160l17 8l100 8l47 60l41 6q72 0 91 -16q11 -9 22 -33q-14 -107 -35 -135q-11 -14 -121 -93q-58 2 -99 -3q-28 27 -74 83l-3 10q0 70 14 105z" />
    <glyph glyph-name="slash" unicode="/" horiz-adv-x="569" 
d="M55 -190l-63 26q-43 93 -43 113q51 122 185 435q118 303 366 904q29 67 67 88l6 -3q7 -6 26 -63.5t19 -74.5q0 -86 -100 -324z" />
    <glyph glyph-name="zero" unicode="0" horiz-adv-x="1034" 
d="M604 1053q-211 -355 -323 -770q186 77 305 201q143 150 143 327q0 129 -125 242zM586 1165l43 49q154 -80 227 -173q86 -111 86 -269q0 -289 -49 -405q-64 -152 -289 -287q-175 -105 -256 -105q-112 0 -208 168q-85 150 -85 273q0 252 89 481q96 249 272 401
q103 -44 170 -133z" />
    <glyph glyph-name="one" unicode="1" horiz-adv-x="1034" 
d="M291 -90q40 232 106 962q-70 -70 -116 -124l-41 34q82 237 206 486l78 20l258 -100q19 -57 19 -174q0 -94 -27 -191l-184 -661q-149 -113 -252 -283z" />
    <glyph glyph-name="two" unicode="2" horiz-adv-x="1034" 
d="M63 889l119 380q56 15 142 15q233 0 386 -69q208 -92 208 -293q0 -117 -25 -211q-138 -150 -350.5 -304t-212.5 -188q0 -58 157 -97q120 -30 207 -30q72 0 108 8q31 -9 66 -61q-125 -68 -348 -68q-157 0 -271 45q-159 62 -159 195q0 176 485 643q-176 90 -301 90
q-112 0 -170 -70z" />
    <glyph glyph-name="three" unicode="3" horiz-adv-x="1034" 
d="M109 1286q350 -12 597.5 -118.5t247.5 -215.5q0 -74 -471 -397q387 -213 387 -303q0 -48 -96 -133q-102 -90 -261.5 -150.5t-296.5 -62.5q-123 54 -167 192q366 50 467 135q-136 140 -307 179q-38 37 -70 98q-35 66 -35 113q0 63 204 204t204 191q0 56 -153 103
q-100 31 -203 44z" />
    <glyph glyph-name="four" unicode="4" horiz-adv-x="1034" 
d="M778 291q116 -31 198 -37l-28 -68q-99 -30 -192 -39q-26 -137 -66 -296l-14 -5q-60 42 -139 187l14 114q-95 28 -136 41q-100 32 -126 50q-81 58 -142 129q-79 94 -79 168q0 146 303 792q78 -42 155 -84q92 -63 92 -139q0 -61 -110 -341q-131 -331 -146 -382
q127 -42 220 -57l80 434q19 150 75 442q57 -1 102 -113q38 -94 38 -163q0 -173 -99 -633z" />
    <glyph glyph-name="five" unicode="5" horiz-adv-x="1034" 
d="M307 1315q83 -24 215 -45l17 -41q224 -10 356 -37q13 -57 27 -113q16 -71 16 -114q0 -34 -147 -39l-299 -11q-31 -112 -31 -184q0 -81 86 -175q79 -78 158 -155q86 -88 86 -155q0 -70 -134 -189q-122 -108 -195 -130q-82 44 -194 44q-73 0 -133 -16l-26 43
q342 236 342 332q0 32 -86 121q-117 122 -158 181q-86 122 -86 234q0 156 186 449z" />
    <glyph glyph-name="six" unicode="6" horiz-adv-x="1034" 
d="M313 387q-14 -64 -14 -98q0 -152 61 -152q44 0 157.5 117.5t113.5 161.5q0 20 -47 20q-105 0 -271 -49zM741 1280q49 -12 131 -47q-123 -125 -246 -249q-143 -150 -202 -284q228 -32 322 -59q227 -67 227 -182q0 -171 -239 -333q-221 -151 -402 -151q-162 0 -246 112
q-76 100 -76 267q0 66 14 124l-24 85l3 8q4 4 54 41q217 415 684 668z" />
    <glyph glyph-name="seven" unicode="7" horiz-adv-x="1034" 
d="M128 572l47 35q48 -16 107 -16q26 0 133 4l126 318l-228 11l39 -111l-37 -57q-125 196 -231 334q10 94 33 198q179 -18 358 -37q278 -30 318 -51q32 -16 68 -115q32 -90 32 -137q0 -67 -177 -352q44 -4 98 -13l-8 -140l29 -65l-34 -28q-54 32 -112 32q-29 0 -114 -5
q-105 -158 -192 -281q-81 -24 -150 -166q-69 -16 -75 -16q-10 0 -8 8q4 15 16 45l156 395l-4 -1q-82 0 -136 48t-54 129v34z" />
    <glyph glyph-name="eight" unicode="8" horiz-adv-x="1034" 
d="M494 434q-103 -103 -103 -182q0 -50 45.5 -110t93.5 -60q62 0 62 90q0 101 -98 262zM94 1114l88 98q194 66 393 66q140 0 247 -45q145 -60 145 -180q0 -93 -332 -451q119 -170 119 -280q0 -129 -82 -242q-89 -123 -213 -123q-139 0 -244.5 110t-105.5 250q0 151 215 414
q-38 53 -109 162q1 9 34 85l3 3q65 -30 174 -139q126 134 211 217q-162 43 -543 55z" />
    <glyph glyph-name="nine" unicode="9" horiz-adv-x="1034" 
d="M813 1087l-25 -26q-16 2 -36 2q-124 0 -278 -229q-116 -173 -177 -345q183 88 368 380q25 40 54 40q61 0 130 -16q99 -23 99 -64q0 -302 -254 -827q-152 -67 -264 -262l-65 8q121 314 241 885q-58 -80 -130 -153q-102 -105 -154 -105t-142 80q-75 65 -116 126
q-7 40 -7 64q0 108 70 236q51 94 173 231q144 162 212 162q105 0 301 -187z" />
    <glyph glyph-name="colon" unicode=":" horiz-adv-x="516" 
d="M74 645q5 49 39 71q17 11 78 30q57 61 77 61q137 0 133 -37q-5 -47 -4 -72l-25 -62q-12 -30 -85 -79t-105 -49q-29 0 -67 20zM35 55q0 76 9 94q7 13 39 14q47 2 87 18q12 13 23 42l57 19q41 -8 82 -15q39 -10 39 -61q0 -67 -70 -152q-34 -4 -82 -32q-16 0 -45 -10.5
t-45 -10.5q-15 0 -25 6q-69 66 -69 88z" />
    <glyph glyph-name="semicolon" unicode=";" horiz-adv-x="516" 
d="M92 223q66 49 86 49q11 0 129 -28q33 -8 33 -62q0 -11 -238 -409q-47 -26 -84 -31q-5 1 -6 6q31 157 80 475zM207 508q-41 20 -94 31q-35 46 -39 57q-8 18 -8 66q0 41 74 65q82 27 95 65q32 15 54 15q24 0 73 -14l37 -35q-1 -60 -12 -88q-7 -20 -45 -82q-35 -8 -135 -80z
" />
    <glyph glyph-name="less" unicode="&#x3c;" horiz-adv-x="1706" 
d="M1442 1194v-219l-893 -365l893 -364v-219l-1178 485v199z" />
    <glyph glyph-name="equal" unicode="=" horiz-adv-x="1706" 
d="M254 496h1198v-199h-1198v199zM254 926h1198v-199h-1198v199z" />
    <glyph glyph-name="greater" unicode="&#x3e;" horiz-adv-x="1706" 
d="M264 1194l1178 -483v-199l-1178 -485v219l895 364l-895 365v219z" />
    <glyph glyph-name="question" unicode="?" horiz-adv-x="938" 
d="M221 121q0 39 72 45q-20 -2 98 -2q20 0 33 29q15 34 32.5 40.5t73.5 6.5q16 0 32 -8q7 -16 7 -31q0 -20 -17 -85q-58 -42 -117 -84q-82 -55 -124 -55q-61 26 -83 75q-7 20 -7 69zM422 311q-105 125 -105 221q0 63 66 253q69 199 76 292h-47l-29 -39q-168 37 -305 160
q235 150 444 150l9 -1q6 -4 26 -20q20 2 51 2q103 0 166.5 -65t63.5 -168q0 -139 -136 -410l-40 -4q-127 -256 -240 -371z" />
    <glyph glyph-name="at" unicode="@" horiz-adv-x="2048" 
d="M1167 272q-107 -163 -297 -163q-323 0 -323 340q0 225 127 387q137 176 356 176q160 0 236 -131l53 98h178q-44 -165 -87 -329q-67 -258 -67 -310q0 -70 95 -70q146 0 248 183q88 157 88 315q0 261 -208 413q-186 136 -456 136q-353 0 -591 -219q-245 -226 -245 -576
q0 -323 223 -505q207 -169 537 -169q331 0 604 191l82 -117q-307 -231 -682 -231q-400 0 -663 210q-285 228 -285 619q0 425 304 698q292 263 722 263q349 0 585 -180q259 -199 259 -537q0 -256 -158 -451q-169 -207 -420 -207q-211 0 -215 166zM1217 700q-27 166 -175 166
q-134 0 -215 -151q-67 -125 -67 -271q0 -188 158 -188q146 0 220 162q20 45 79 282z" />
    <glyph glyph-name="A" unicode="A" horiz-adv-x="1090" 
d="M305 567l283 49q0 236 -43 484q-52 -101 -123 -265q-95 -219 -117 -268zM506 1223l-14 90q85 49 260 49l19 -5l15 -23l64 3l17 -2q59 -28 59 -405q0 -49 -6 -137q-6 -96 -7 -136q78 8 84 7l13 -5q2 -10 2 -20q0 -215 -76 -215q-35 -51 -78 -82q-18 -124 -35 -199
l-174 -106l-14 -82q-69 -31 -74 -31q-6 0 -6 2q25 201 25 273q0 82 -3 108q-122 -5 -366 -12q-36 -100 -73 -200q-57 -156 -72 -156l-21 -56l-43 -2q-11 0 -30 4l-11 11q0 52 100 401q-96 115 -96 211l8 15q14 4 150 18q25 101 91 286q69 192 93 285q66 40 199 111z" />
    <glyph glyph-name="B" unicode="B" horiz-adv-x="1214" 
d="M272 627l521 340q-133 123 -410 123zM217 1087q-73 1 -91 103q-3 19 -7 159q97 19 205 19q517 0 821 -391l-31 -225q-119 -104 -389 -213q117 -9 185 -18q137 -18 165 -44q35 -32 65.5 -90t30.5 -78q0 -29 -72 -85q-114 -89 -355 -156q-223 -62 -386 -62q-70 0 -84 25
q-1 46 80.5 118t130.5 72q19 -7 19 -43q275 42 383 135q-124 45 -350 45q-133 0 -295 -20q-11 -77 -39 -229l-86 -43q-29 102 -29 272q-18 15 -32 30l-7 17q0 122 43 127q52 305 125 575z" />
    <glyph glyph-name="C" unicode="C" horiz-adv-x="1241" 
d="M248 1032q616 342 891 342q37 0 37 -133q0 -56 -66 -231q-263 -56 -496 -167q-325 -154 -370 -333q105 -43 352 -43t521 51q43 8 48 8q11 0 9 -12l-17 -113q-57 -71 -192 -118l-4 -148q-206 -98 -545 -98q-192 0 -232 26q-67 44 -111 239q-36 157 -36 278q0 104 24 139
q123 180 407 307z" />
    <glyph glyph-name="D" unicode="D" horiz-adv-x="1118" 
d="M57 186q69 582 138 889q-72 73 -89 91q-59 64 -75 98q1 75 49 112q46 -2 194 -51l13 21q334 -118 500 -232q274 -188 274 -442q0 -38 -6 -112q-257 -496 -852 -611q-75 60 -215 190q5 6 69 47zM494 1069q-32 -253 -242 -780q524 278 524 583q0 57 -26 95
q-114 54 -256 102z" />
    <glyph glyph-name="E" unicode="E" horiz-adv-x="1063" 
d="M858 268q-88 -84 -129 -196q-259 -105 -369 -105q-147 0 -206 135l-29 -34h-35q-27 0 -27 206q0 501 205 957q200 98 484 98q257 0 276 -31q12 -20 12 -81q0 -17 -69 -175q-243 -25 -398 -67q-101 -146 -153 -240q81 4 162 4q79 0 201 -20q163 -27 163 -66q0 -9 -35 -129
q-366 -72 -602 -231q22 -111 178 -111q160 0 355 107z" />
    <glyph glyph-name="F" unicode="F" horiz-adv-x="1063" 
d="M172 -168l-35 10l10 178h-18l-27 -38q-22 1 -51 7l-4 7q42 327 105 985l-56 82l17 96l190 64q14 37 70.5 86t91.5 49q38 0 50 -14q7 -9 17 -50q118 29 230 29q289 0 289 -170q0 -171 -142 -362l-28 10q8 66 8 98q0 56 -8 94q-28 2 -70 2q-129 0 -270 -55
q-29 -110 -92 -329q119 14 215 14q297 0 297 -76q0 -23 -11 -59q-15 -48 -17 -58q-283 -30 -581 -162q-22 -62 -93 -219q-63 -138 -87 -219z" />
    <glyph glyph-name="G" unicode="G" horiz-adv-x="1309" 
d="M850 272q-97 -75 -216 -135q-147 -74 -237 -74q-94 0 -244 164q-147 161 -147 256q0 221 304 510q280 266 517 334q16 -5 41 -28q8 0 29 3q18 3 29 3l11 -2q6 -3 149 -165t152 -177l3 -13q-5 -23 -14 -44q-88 44 -119 44q-36 0 -182 -61q-226 -95 -389 -233
q-208 -176 -240 -369q269 6 647 274q130 -38 148 -46q96 -42 96 -103q0 -97 -31 -307q-36 -253 -76 -253q-39 0 -130 77q-88 74 -105 115q-17 37 -17 85q0 55 21 145z" />
    <glyph glyph-name="H" unicode="H" horiz-adv-x="1214" 
d="M111 699q27 219 122 475q63 34 193 96q33 -11 43 -45q-30 -176 -76 -533l258 2q58 108 297 617q167 63 240 63q26 0 26 -157q0 -15 -71 -299l-84 -338q-73 -305 -131 -564l-107 -41q-40 -90 -49 -90q-42 0 -50 44q-50 264 -50 452q-167 0 -307 65q-11 -75 -11 -178l4 -13
l11 -5q33 10 63 57q80 12 66 12l8 -1l2 -5q-11 -35 -80 -152q-72 -122 -88 -122q-27 0 -81 23t-66 44q-76 126 -87 429q-31 13 -57 55.5t-26 75.5q8 28 34 36q48 -3 54 -3z" />
    <glyph glyph-name="I" unicode="I" horiz-adv-x="616" 
d="M88 885q77 216 194 395q24 37 54 45q14 4 70 4q27 0 39 -5q32 -13 90 -136q55 -118 55 -158q0 -13 -106 -368q-107 -358 -185 -713h-14q-88 0 -144 94q-47 80 -47 174q0 124 78 461z" />
    <glyph glyph-name="J" unicode="J" horiz-adv-x="854" 
d="M35 141q-13 61 -25 122q-16 77 -16 122l1 8l5 2l7 -1q48 -25 120 -77q59 -42 117 -84l100 -16q48 306 72 711q-99 70 -213 112q-55 19 -117 54q-27 60 -27 65q1 5 4 6q235 54 703 168l8 -2l52 -66q3 -8 3 -87q0 -160 -10 -264l-45 -17q-117 -698 -420 -1044
q-187 134 -319 288z" />
    <glyph glyph-name="K" unicode="K" horiz-adv-x="1090" 
d="M315 197q-37 -96 -125 -279q-17 5 -66 82q-45 69 -56 96q17 125 46 376q-23 19 -44 63.5t-21 74.5q0 70 109 201q36 247 115 478q4 11 10 32l-5 14l-13 12l11 31l35 2q66 4 158 -92.5t92 -163.5q0 -154 -112 -526l49 -41q99 117 204 260q154 211 154 264q0 23 -38 32
q118 192 192 192q18 0 53 -25t44 -40l5 -17q0 -93 -208 -399q-156 -230 -283 -380q91 -84 229 -189q118 -88 237 -177l-1 -6q-2 -3 -103 -111l-55 21q-50 -54 -133 -91q-296 110 -480 306z" />
    <glyph glyph-name="L" unicode="L" horiz-adv-x="891" 
d="M72 383q-26 17 -56 47q60 161 161 400q85 198 169 397q7 17 96 39l15 39q98 20 182 20q48 0 54 -37q-1 7 -1 -80l-28 -12q-234 -536 -234 -840q0 -68 12 -118q43 -17 119 -17q84 0 156 25q137 48 139 49l4 -6q-10 -47 -29 -142q-308 -204 -534 -204q-236 0 -236 329
q0 52 11 111z" />
    <glyph glyph-name="M" unicode="M" horiz-adv-x="1432" 
d="M172 1192l162 70l22 63q8 0 181 25l5 -7q10 -184 21 -368q31 -303 113 -303q64 0 213 251q160 271 170 277q55 0 162 -24q125 -28 139 -58q6 -15 6 -53q0 -174 -28 -387q-31 -237 -80 -378q-50 -57 -122 -151q-13 -23 -44 -59q-189 -140 -301 -248l-37 19
q108 326 243 1022q-309 -611 -501 -611q-119 0 -176 212q-24 92 -46 309q-46 -311 -60 -430q-29 -244 -32 -433q-31 -11 -92 -36q-18 24 -18 208q0 232 34 546z" />
    <glyph glyph-name="N" unicode="N" horiz-adv-x="1280" 
d="M43 125q30 587 190 1149l99 51q282 -48 282 -82q0 -7 -24 -110l108 -91q55 -451 156 -714q187 313 258 868q55 76 113 139l24 -8q-50 -415 -119 -748q-128 -622 -264 -622q-12 0 -24 6l-92 47q-94 48 -194 346q-69 205 -110 412q-26 -188 -197 -764q-15 -50 -46 -49
q-56 31 -160 170z" />
    <glyph glyph-name="O" unicode="O" horiz-adv-x="1147" 
d="M512 918q-137 -419 -137 -605q0 -16 2 -49.5t2 -50.5q136 34 313 191q189 167 189 286q0 91 -145 159q-96 45 -224 69zM217 1219q35 4 106 10l48 94q349 -8 483 -60q238 -91 238 -370q0 -148 -76 -362q-84 -233 -205 -385q-144 -179 -297 -179q-146 0 -300 149
q-157 153 -157 308q0 172 172 547q-41 6 -122 16z" />
    <glyph glyph-name="P" unicode="P" horiz-adv-x="1194" 
d="M416 627q312 71 420 157q-142 118 -353 201zM465 991q-75 27 -330 78q-32 15 -66 115q-29 89 -30 135q7 10 63 10q179 0 373 -33q232 -40 354 -110t229 -271q91 -172 91 -311q0 -167 -299 -265q-193 -64 -434 -83l-45 53l-54 -246l54 -55l-21 -59q-64 -26 -194 -72l-8 8
q-3 15 -3 29q0 273 21 469q-43 21 -96 152l7 9q9 4 126 34q28 176 59 276q128 115 203 137z" />
    <glyph glyph-name="Q" unicode="Q" horiz-adv-x="1241" 
d="M404 569l135 -32l69 -211q254 304 254 489q0 81 -42 132q-45 54 -124 54q-53 0 -262 -28q-12 -198 -30 -404zM460 26q-51 -30 -106 -30q-147 0 -232 155q-71 128 -71 287q0 317 295 901l131 -51l47 -67q268 88 404 88t212 -90q70 -83 70 -222q0 -202 -170 -451
q-129 -189 -329 -370q244 -276 475 -373l-64 -59l-143 39l-76 -39q-236 81 -443 282z" />
    <glyph glyph-name="R" unicode="R" horiz-adv-x="1270" 
d="M426 713q378 29 573 131q-133 110 -510 160zM100 1141l25 127q215 21 313 61q500 -65 707 -215q61 -234 61 -336q0 -46 -12 -68q-39 -73 -522 -73q-140 0 -234 8q296 -328 748 -498l-8 -49q-170 -39 -256 -145q-313 86 -592 317q-11 -96 -21 -150q-19 -104 -41 -140
q-29 0 -94 39t-74 63q-6 16 -6 55q0 521 133 965q-54 22 -127 39z" />
    <glyph glyph-name="S" unicode="S" horiz-adv-x="1063" 
d="M98 45l15 29q39 -13 69 -13q148 0 430 189q-268 53 -371 106q-194 100 -194 299q0 234 270 458q259 214 498 214q26 0 42 -44q25 -71 39 -92q38 -58 114 -83l-56 -336l-41 -8l-36 172q-144 -33 -298 -115q-202 -109 -202 -213q0 -63 197 -135q126 -45 253 -90
q34 -20 65.5 -87.5t31.5 -111.5q0 -81 -239 -183q-217 -93 -318 -93q-124 0 -269 137z" />
    <glyph glyph-name="T" unicode="T" horiz-adv-x="1024" 
d="M266 -102q72 510 119 970q-75 -14 -106 -14q-232 0 -232 373q0 16 4 53q105 35 232 35q101 0 338 -46q275 -52 286 -101l35 -158l33 -15l-2 -89q-125 5 -189 5q-34 0 -100 -4q55 -168 55 -225q0 -133 -237 -651l-101 -35l-63 -127z" />
    <glyph glyph-name="U" unicode="U" horiz-adv-x="1204" 
d="M344 1239l26 61q51 9 154 25l7 -2l4 -6q20 -213 20 -217q0 -11 -21 -78q-114 -361 -114 -698q0 -59 8 -111q158 112 319 349q135 199 230 417q11 31 43 86q100 41 158 57l6 -5l2 -19q0 -221 -139 -591q-144 -381 -293 -531q-51 -7 -99 -7q-113 0 -199 19
q-103 23 -215 128.5t-134 206.5q-9 41 -9 119q0 175 19 381q24 258 64 369q12 8 163 47z" />
    <glyph glyph-name="V" unicode="V" horiz-adv-x="1110" 
d="M274 240q-129 306 -155 755l-43 -2l-6 2l-2 11q0 32 16 109t29 100q52 41 108 42q42 -124 108 -384t109 -388q219 403 487 864l9 5q29 -25 68 -78q49 -68 63 -84q-35 -87 -35 -197q0 -99 31 -178q-213 -502 -627 -878q-157 114 -211 200q1 5 51 101z" />
    <glyph glyph-name="W" unicode="W" horiz-adv-x="1470" 
d="M125 1001q-25 15 -36 34q-6 19 -5 28l16 137l88 82q74 -30 74 -70q0 -156 176 -761q220 374 246 540q69 15 70 15q21 -60 45 -230q27 -185 45 -254q251 353 418 776q8 20 26 58l5 -2q31 -31 62 -61q39 -38 52 -68q-47 -147 -47 -207q0 -107 43 -205q-297 -642 -520 -856
l-78 25q-73 23 -107 430q-155 -308 -295 -308q-256 0 -278 897z" />
    <glyph glyph-name="X" unicode="X" horiz-adv-x="1100" 
d="M331 521q-214 373 -214 788q0 12 2 24l8 6q159 0 207 -108q5 -12 55 -208q49 -191 115 -345q249 267 421 577q8 15 27 43q50 -18 82 -53q13 -51 13 -241q0 -186 -119 -391q-115 -197 -275 -304q121 -190 224 -190q48 0 100 33q44 29 88 59l7 -6l3 -19q0 -78 -106 -159
q-101 -78 -183 -78q-168 0 -301 280q-47 -69 -249 -121q-191 -49 -228 -133h-26q-5 129 -5 131q0 63 164 224q184 180 190 191z" />
    <glyph glyph-name="Y" unicode="Y" horiz-adv-x="1053" 
d="M526 446q-159 -174 -213 -174q-40 0 -184 146q-20 108 -20 381q0 431 36 542q8 -1 213 -190q0 -236 8 -329q16 -189 72 -318q153 150 383 614q24 62 80 178q6 0 94 -82l-2 -127l70 -77q-52 -360 -266 -700q-173 -276 -482 -580q-72 37 -165 63q193 278 376 653z" />
    <glyph glyph-name="Z" unicode="Z" horiz-adv-x="1233" 
d="M1059 887q-363 -254 -668 -565q210 -148 324 -148q80 0 176 28l170 56q15 -5 70.5 -42t64.5 -46q-29 -50 -331 -123q-278 -67 -376 -67q-76 0 -140 24q-99 35 -201 145q-111 118 -111 213q0 126 258 360q253 231 389 243v12q-1 0 -273 29q-223 24 -231 36
q-44 53 -113 159l-1 7q0 21 135 43q223 36 514 15q11 48 31 56q7 3 69 3q22 0 113 -61q295 -44 295 -105q0 -236 -164 -272z" />
    <glyph glyph-name="bracketleft" unicode="[" horiz-adv-x="797" 
d="M236 551h-7l-9 4l-3 14q0 98 69 394q74 317 117 317q-2 16 -2 6q0 18 80 28q72 9 226 9h67q4 -24 4 -31q0 -30 -75 -50q-54 -13 -107 -25q-85 -247 -143 -663q-22 -155 -76 -677q67 0 161 -9q7 -9 7 -18q0 -49 -29 -61l-45 2q-24 1 -65 -3q-46 -5 -66 -5q-110 0 -160 12
q-12 22 -12 127q0 204 68 629z" />
    <glyph glyph-name="backslash" unicode="\" horiz-adv-x="569" 
d="M408 -190l-271 1099q-51 207 -51 320q0 23 26 77q24 50 39 66l5 2q36 -20 55 -96q30 -145 93 -433q98 -429 213 -823q20 -69 20 -71q0 -30 -64 -125z" />
    <glyph glyph-name="bracketright" unicode="]" horiz-adv-x="797" 
d="M440 1331q73 8 92 8q43 0 49 -38q-1 8 -1 -76q0 -133 -19 -331q-17 -166 -33 -331l-16 -6q-88 -729 -168 -729q0 -1 1 -2.5t1 -3.5q0 -18 -79 -28q-73 -9 -253 -9h-41l-4 29l5 22l11 14q56 12 167 41q79 249 124 582q-8 -4 -14 12v11q0 51 14 131q12 65 24 131
q38 244 52 473q-48 -2 -142 7q-9 9 -9 19q0 69 132 69q19 0 89 -5z" />
    <glyph glyph-name="asciicircum" unicode="^" horiz-adv-x="2048" 
d="M897 1460h252l481 -561h-235l-371 371l-373 -371h-235z" />
    <glyph glyph-name="underscore" unicode="_" horiz-adv-x="1024" 
d="M0 -279h1024v-204h-1024v204z" />
    <glyph glyph-name="grave" unicode="`" horiz-adv-x="1024" 
d="M670 907q-123 67 -247 134q-192 111 -192 151q0 15 50 52q42 32 67 44q87 -59 232 -181q160 -133 231 -185q-20 2 -41 2q-56 0 -100 -17z" />
    <glyph glyph-name="a" unicode="a" 
d="M293 645q-124 -132 -176 -330l215 187zM397 279q-325 -236 -354 -236q-55 0 -55 127q0 250 274 586q-4 11 -4 18q1 20 47 57q61 50 66 56q10 -3 57 -39q68 29 66 29q34 0 108 -95q54 -71 88 -131q-51 -120 -51 -332q0 -101 35 -327l-3 -6l-9 -2q-139 32 -172 80
q-47 107 -93 215z" />
    <glyph glyph-name="b" unicode="b" horiz-adv-x="711" 
d="M336 1237l151 43l11 16l12 4l57 -6q-23 -131 -169 -546q-124 -355 -124 -521q0 -30 7 -77q86 98 137 231l-47 47l16 55q57 42 174 123q26 -10 60 -41q-1 -82 -124 -355q-130 -286 -190 -286q-18 0 -62 28q-105 66 -166 178t-61 237q0 266 318 870z" />
    <glyph glyph-name="c" unicode="c" horiz-adv-x="664" 
d="M187 158q137 4 362 86l4 -3l2 -10l-12 -63q-177 -197 -307 -197q-90 0 -195 164q-39 61 -39 156q0 246 248 457q59 51 76 51q66 0 147 -53q90 -59 90 -125q0 -72 -39 -220l-55 -20q4 55 4 63q0 11 -5 26l-13 9q-62 0 -157 -130q-77 -106 -111 -191z" />
    <glyph glyph-name="d" unicode="d" horiz-adv-x="930" 
d="M449 711q-291 -260 -291 -355q0 -33 24 -59q163 119 267 414zM397 209q-199 -207 -327 -207q-82 0 -82 133q0 307 540 735q70 175 166 387q16 21 69 38q49 16 81 16l13 -5l3 -16q0 -47 -46 -265q-99 -468 -99 -671q0 -246 73 -334l74 46l15 -29q-118 -160 -203 -172
q-200 99 -277 344z" />
    <glyph glyph-name="e" unicode="e" horiz-adv-x="702" 
d="M274 354q118 153 168 244q-130 -10 -168 -244zM-20 180v25q0 308 194 516q45 47 62 47q43 0 170.5 -36.5t160.5 -59.5q14 -31 45 -90q-144 -185 -329 -400l39 -110q61 19 270 96l10 -8q2 -14 2 -29q0 -40 -8 -78q-132 -116 -197 -116q-107 0 -234 77q-119 72 -185 166z
" />
    <glyph glyph-name="f" unicode="f" horiz-adv-x="627" 
d="M322 238q-15 -75 -15 -162q0 -169 31 -252q29 101 29 291q0 83 -7 157zM465 1327q48 4 55 4q11 0 21 -4q4 -10 4 -184q0 -55 -78 -265q-52 -138 -105 -276l25 -88q59 8 70 8l8 -2l2 -8l-4 -78l-55 -123q47 -243 47 -553v-51q-28 -34 -80 -70q-59 -42 -92 -43
q-108 59 -189 276q-71 191 -71 337q0 393 442 1120z" />
    <glyph glyph-name="g" unicode="g" horiz-adv-x="768" 
d="M479 -25q-43 0 -91 -108q-44 -98 -44 -152l2 -15l4 -5q27 1 76 124q37 94 53 156zM22 175q-10 66 -10 104q0 156 117 309q109 140 260 213q36 -4 71 -28l3 -13l-2 -15q141 -159 141 -213q0 -18 -45 -69q-40 -45 -63 -62q-10 24 -32 67q-70 -64 -114 -136q132 -23 224 -76
q126 -73 126 -182q0 -101 -166 -324q-161 -217 -219 -217q-38 0 -89 32q-54 34 -54 70q0 77 54 185q49 99 110 162q44 45 157 33q-82 76 -202 102q-81 18 -228 18z" />
    <glyph glyph-name="h" unicode="h" horiz-adv-x="891" 
d="M72 -152q-70 187 -70 388q0 130 193 501q148 283 273 470q24 36 112 36q92 0 92 -26q0 -121 -91.5 -324.5t-183.5 -282.5l-170 -426l21 -12l140 228q83 131 153 218h49l18 29l86 -2q34 -163 68 -465l-53 -69l16 -31l-123 -121q-26 106 -174 266q-150 -128 -276 -354z" />
    <glyph glyph-name="i" unicode="i" horiz-adv-x="569" 
d="M311 -23q-136 60 -159.5 87t-63.5 169l-96 5l-2 118q-1 77 163.5 223.5t252.5 147.5q53 -42 53 -82q0 -5 -11 -60q-57 -286 -81 -569zM448 1126l52 -112q-161 -149 -250 -221l-148 94q140 160 154 170q40 31 192 69z" />
    <glyph glyph-name="j" unicode="j" horiz-adv-x="537" 
d="M104 428h-65l-7 3l-3 9q0 58 25 188q28 141 52 177q6 5 156 76q4 60 131 77q10 -8 10 -102q0 -306 -63 -635l35 -37l28 17l48 -56l-177 -168q-47 -125 -95 -250q-80 -184 -142 -184q-40 0 -41 41q-8 244 -8 248q0 66 88 184q26 224 28 412z" />
    <glyph glyph-name="k" unicode="k" horiz-adv-x="872" 
d="M47 494l82 49q53 298 195 676l92 14q11 28 38 75q8 3 119 7l13 -2l4 -4q-1 -95 -234 -729l41 -58q369 514 410 518q16 -16 16 -67q0 -12 -69 -113l20 -41q-169 -217 -274 -401q109 -168 305 -293l-88 -92l-23 10l-43 -49h-51l-22 -17q-155 47 -342 183l-76 -207
q-107 -37 -111 -37l-6 6q-2 14 -2 31q0 132 29 287l-27 20z" />
    <glyph glyph-name="l" unicode="l" horiz-adv-x="578" 
d="M313 1223l66 -31l24 20l138 -73l6 -205q-244 -581 -244 -774q0 -103 47 -199q40 -18 84 -18q47 0 123 43v-35q-30 -22 -43 -86q-52 -25 -123 -35q-177 72 -255 193q-77 118 -77 311q0 305 254 889z" />
    <glyph glyph-name="m" unicode="m" horiz-adv-x="1233" 
d="M111 680q66 42 202 119q38 1 77 -23l3 -6q-18 -77 -37 -153q-19 -85 -20 -158q63 106 178 221q105 -6 258 -62q91 78 152 78q70 0 180 -55q20 -62 20 -111q0 -73 -18 -188q-22 -147 -54 -160l-83 -35q-6 -29 -27 -69l-129 -37q12 72 12 143q0 130 -32 226
q-50 -90 -131 -178q-104 -115 -173 -115q-71 0 -71 127q0 49 18 153q-119 -138 -268 -438l-111 -20q-12 88 -12 211q0 262 66 530z" />
    <glyph glyph-name="n" unicode="n" horiz-adv-x="948" 
d="M440 358l-231 -274q-83 1 -180 10l-4 10q24 122 49 244q37 185 37 260q0 22 -15.5 37.5t-15.5 26.5q0 24 41 112q67 31 137 31q114 0 114 -158q0 -37 -9 -118q169 59 284 59q80 0 111 -19q43 -26 43 -104q0 -66 -10.5 -196.5t-10.5 -196.5q0 -14 6 -28l19 -13l-4 -29
q-139 -73 -207 -73q-80 0 -121 179q-6 30 -33 240z" />
    <glyph glyph-name="o" unicode="o" horiz-adv-x="739" 
d="M211 506q-16 -70 -16 -125q0 -98 59 -98q90 0 160 104q-76 70 -203 119zM96 543q-33 31 -33 53q0 44 105 127.5t154 83.5q91 0 212 -71q132 -79 132 -161q0 -84 -118 -281q-103 -172 -183 -257q-31 -34 -98 -56q-61 -20 -113 -20q-109 0 -109 207q0 194 51 375z" />
    <glyph glyph-name="p" unicode="p" horiz-adv-x="786" 
d="M264 61l130 162q102 131 102 158q0 47 -117 41l-37 -2q-40 -169 -78 -359zM33 -451q22 204 69 842q-82 -4 -86 -4l-11 6q-3 11 -3 23q0 51 20 145q23 110 27 147l92 25l15 74l149 113l6 22l102 39q-10 -111 -9 -179v-28q81 8 102 8q213 0 213 -114q0 -71 -18 -171
q-20 -113 -48 -161q-49 -85 -401 -344l-62 -316l-118 -131z" />
    <glyph glyph-name="q" unicode="q" horiz-adv-x="891" 
d="M141 449l111 8l8 -3l2 -8q-2 -20 -17 -85q-12 -51 -12 -87q180 142 279 365q-266 -81 -371 -190zM575 827l95 146l102 -90q4 -10 4 -29q0 -54 -109.5 -400t-156.5 -636q133 197 280 478q5 -89 5 -134q-143 -384 -293 -594q-34 -11 -62 -27q-31 7 -92 21q-46 159 -58 595
q-148 -132 -210 -132q-80 0 -80 239q0 89 2 101q9 70 51 69q221 356 522 393z" />
    <glyph glyph-name="r" unicode="r" horiz-adv-x="635" 
d="M385 74q-130 -109 -231 -109q-109 0 -109 70q0 108 219 381q-82 47 -163 93q-97 64 -97 144q0 121 35 158q76 0 247 -59q185 -64 217 -117q19 -33 19 -135q0 -67 -8 -191q-94 -90 -229 -164z" />
    <glyph glyph-name="s" unicode="s" horiz-adv-x="653" 
d="M124 -76v96q39 36 78 73q41 43 59 87q-64 18 -129 36q-49 16 -71 48.5t-37 120.5q-14 80 -16 179q173 193 464 276q47 -23 107 -90q-192 -109 -279 -228q242 -108 242 -198q0 -104 -162 -236q-118 -97 -256 -164z" />
    <glyph glyph-name="t" unicode="t" horiz-adv-x="692" 
d="M-27 858l238 49q60 127 133 219q105 56 152 95q65 9 71 8l12 -4l3 -15q0 -28 -30 -133q-35 -122 -40 -147l61 2q17 -32 43 -45l2 -197q-42 -27 -51 -80q-78 -20 -138 -22q-89 -201 -89 -438q0 -25 3 -45q116 57 183 163l27 -10q-37 -93 -23 -187q-64 -106 -122 -106
q-27 0 -106 51q-144 93 -181 182q-29 68 -29 259q0 57 10 165q-43 -15 -77 -42l-45 20q-7 190 -7 258z" />
    <glyph glyph-name="u" unicode="u" horiz-adv-x="920" 
d="M336 793q6 28 98 28q7 0 8 -8q-4 -17 -16 -47q-103 -272 -152 -553q145 147 285 352q35 52 44 58q18 13 83 25q57 11 90 11l5 -1l1 -11q0 -62 -10 -187t-10 -188q0 -187 18 -321l-78 -19l-53 68q-63 -4 -65 -4q-46 0 -125 201q-140 -119 -248 -119q-86 0 -148 24
q-24 72 -24 170q0 92 24 240q27 172 62 226q9 5 211 55z" />
    <glyph glyph-name="v" unicode="v" horiz-adv-x="797" 
d="M211 70q-16 0 -46 -6.5t-44 -6.5q-21 0 -58.5 156.5t-37.5 329.5q0 200 38 200q44 0 152 -27q119 -30 119 -52q0 -40 -6 -120t-6 -120q0 -58 14 -152l156 318q103 204 176 303l11 -7q10 -20 35 -109.5t25 -110.5q0 -71 -231 -531q-131 -117 -309 -231l-70 26
q54 75 82 140z" />
    <glyph glyph-name="w" unicode="w" horiz-adv-x="1034" 
d="M467 655h35l8 23q5 8 16 6l43 -16q-28 -114 -28 -224q0 -147 34 -147q54 26 168 244q146 279 152 288q53 -96 53 -237q0 -90 -132 -322t-212 -289q-49 -34 -104 -34q-86 0 -109 131q-6 40 -8 198q-37 -67 -50 -90q-35 -55 -64 -79q-25 -5 -64 -5q-67 0 -121 23
q-59 166 -59 385q0 103 20 219q167 78 279 78l14 -4q4 -12 4 -21q0 -47 -18.5 -178t-18.5 -201q0 -41 2 -71q96 126 160 323z" />
    <glyph glyph-name="x" unicode="x" horiz-adv-x="778" 
d="M35 66l-2 131l125 147q-82 142 -101 252q24 46 86 120q73 86 103 87l18 -7q27 -28 71 -109l62 -120q102 125 256 293q45 0 45 -42q0 -129 -67 -216l-160 -166q117 -250 250 -375l-19 -36q-17 7 -30 8l-13 -4l-6 -11q0 -28 88 -59l7 -39h-43q-253 0 -474 303
q-65 -61 -196 -157z" />
    <glyph glyph-name="y" unicode="y" horiz-adv-x="758" 
d="M205 78l-68 31l2 28q-85 72 -99 109q-11 28 -11 145q0 250 44 264l117 37l7 19q64 12 143 12q-41 -230 -41 -358q0 -52 4 -121q119 196 217 404q64 139 105 204q68 0 68 -105q0 -15 -1.5 -41t-1.5 -36q0 -92 -91 -348q-85 -239 -144 -340q-41 -71 -187 -203
q-176 -160 -225 -160q-35 0 -50 8l-3 6q0 43 91 220q68 131 124 225z" />
    <glyph glyph-name="z" unicode="z" horiz-adv-x="786" 
d="M705 35l-15 -41h-61l-37 -39q-179 30 -348 108q-234 108 -234 238q0 71 187 197q37 25 249 149q-44 2 -100 2q-53 0 -159 -12t-158 -12l-9 1l-2 7q28 99 76 145q28 27 312 27q138 0 153 -17q18 -20 75.5 -156.5t57.5 -160.5q0 -54 -175 -145q-117 -61 -230 -101
q186 -166 418 -190z" />
    <glyph glyph-name="braceleft" unicode="{" horiz-adv-x="1024" 
d="M883 1477v-209l-47 2q-104 4 -145 -52q-33 -45 -33 -143q0 -35 5.5 -115.5t5.5 -122.5q0 -258 -212 -307q213 -49 213 -304q0 -43 -6 -125.5t-6 -118.5q0 -107 41 -151q36 -39 184 -36v-209l-76 -2q-221 -6 -298 56q-87 70 -87 284q0 42 3 119t3 110q0 140 -47 200
q-60 77 -223 73v209l41 -2q136 -7 189 82q41 67 41 207q0 37 -3.5 110t-3.5 105q0 215 86 285q77 63 299 57z" />
    <glyph glyph-name="bar" unicode="|" horiz-adv-x="1024" 
d="M410 1565h206v-2048h-206v2048z" />
    <glyph glyph-name="braceright" unicode="}" horiz-adv-x="1024" 
d="M143 1477h79q220 0 296 -60q86 -69 86 -280q0 -42 -3 -119t-3 -110q0 -140 47 -200q60 -77 223 -73v-209q-163 0 -224 -74q-47 -58 -47 -194q0 -33 3.5 -111.5t3.5 -122.5q0 -214 -86 -284q-78 -62 -299 -56l-76 2v209l47 -2q104 -4 145 52q33 46 33 145q0 35 -5.5 114
t-5.5 120q0 259 212 306q-213 49 -213 307q0 42 6 124t6 118q0 108 -41 153q-37 39 -184 36v209z" />
    <glyph glyph-name="asciitilde" unicode="~" horiz-adv-x="1706" 
d="M1530 803v-221q-202 -138 -379 -138q-101 0 -293 65.5t-295 65.5q-165 0 -385 -157v221q212 143 387 143q103 0 298.5 -66.5t291.5 -66.5q163 0 375 154z" />
    <glyph glyph-name="euro" horiz-adv-x="1034" 
d="M-14 479l-2 39q22 32 163 57q4 40 16 62q17 27 35 53q-53 4 -85 4q-14 0 -41 -6t-39 -6q4 0 -18 5l-5 9q4 24 23 71q22 51 36 62h9q35 0 100 -14q71 -16 101 -18q76 87 189 153q-55 2 -166 7q465 341 671 341q28 0 28 -133q0 -58 -51 -231q-215 -64 -397 -176
q155 0 276 -43l-32 -55q-89 12 -254 12q-20 0 -53 -2q-40 -4 -52 -4q-26 -24 -71 -84q152 4 215 4q165 0 184 -23v-6q0 -27 -33 -45q-10 -27 -22 -49l-13 -6l-14 -2q-10 0 -71 14q-79 18 -255 18q-23 0 -43 -2q-10 -29 -18 -65q79 -43 262 -43q96 0 434 59q4 1 8 -12
l-14 -113q-42 -71 -145 -118l-4 -119q-158 -99 -410 -99q-146 0 -176 27q-51 45 -83 227q-24 136 -26 250l-137 -2q-11 0 -20 2z" />
    <glyph glyph-name="nonbreakingspace" unicode="&#xa0;" horiz-adv-x="1034" 
 />
    <glyph glyph-name="exclamdown" unicode="&#xa1;" horiz-adv-x="508" 
d="M385 1010l2 -129q8 -518 -63 -754l18 -76l-137 -76q-105 25 -211 144q100 350 102 360q56 209 78 365l78 39l20 92zM474 1154l-17 -13l-105 -21q-33 -47 -44 -52t-70 -5q-84 0 -84 47q0 95 72.5 166.5t168.5 71.5l17 -3q18 -7 45 -49t26 -67q1 -26 -9 -75z" />
    <glyph glyph-name="cent" unicode="&#xa2;" horiz-adv-x="1034" 
d="M750 279l-11 -76q-50 -61 -180 -150q-2 -61 -5 -122q-9 -89 -46 -91l-21 -33l-55 -9q7 51 10 208q-16 -10 -32 -10q-36 0 -104 69q-53 54 -85 103q-39 60 -39 160q0 297 320 520q2 34 2 94q0 66 76 66q11 0 23 -9q8 -17 5 -102l-2 -57q90 -46 113 -65q57 -45 57 -109
q0 -80 -45 -238l-73 -28q10 54 10 71q0 35 -23 43q-61 0 -159 -132q-78 -105 -115 -191q199 2 379 88z" />
    <glyph glyph-name="sterling" unicode="&#xa3;" horiz-adv-x="1034" 
d="M-25 201l37 67q9 -4 21 -4l10 3l4 5l-5 16l-15 13q29 56 71 107l160 -89q64 52 64 134q0 35 -23 114q-186 0 -260 17v20l-4 4l16 94h205q-27 141 -27 218q0 133 38 226q53 130 167 130q57 0 115 -33l18 8q227 -82 348 -254q-67 -51 -202 -51q-68 0 -73 1q-39 7 -46 44
l-35 17q-13 -56 -12 -138l2 -168q294 0 302 -3l5 -11v-6l-8 -61l-23 -7q-2 -29 -18 -57l-268 6q-28 -208 -187 -293q136 -75 256 -75q103 0 158 47q2 14 2 30q0 26 -16 80l36 23q120 -135 148 -295q-105 -135 -262 -135q-96 0 -253 87t-165 87l-7 -3l-3 -10l4 -11l14 -15
l-53 -62q-127 80 -236 183z" />
    <glyph glyph-name="currency" unicode="&#xa4;" horiz-adv-x="1034" 
d="M-14 479l-2 39q22 32 163 57q4 40 16 62q17 27 35 53q-53 4 -85 4q-14 0 -41 -6t-39 -6q4 0 -18 5l-5 9q4 24 23 71q22 51 36 62h9q35 0 100 -14q71 -16 101 -18q76 87 189 153q-55 2 -166 7q465 341 671 341q28 0 28 -133q0 -58 -51 -231q-215 -64 -397 -176
q155 0 276 -43l-32 -55q-89 12 -254 12q-20 0 -53 -2q-40 -4 -52 -4q-26 -24 -71 -84q152 4 215 4q165 0 184 -23v-6q0 -27 -33 -45q-10 -27 -22 -49l-13 -6l-14 -2q-10 0 -71 14q-79 18 -255 18q-23 0 -43 -2q-10 -29 -18 -65q79 -43 262 -43q96 0 434 59q4 1 8 -12
l-14 -113q-42 -71 -145 -118l-4 -119q-158 -99 -410 -99q-146 0 -176 27q-51 45 -83 227q-24 136 -26 250l-137 -2q-11 0 -20 2z" />
    <glyph glyph-name="yen" unicode="&#xa5;" horiz-adv-x="1034" 
d="M514 2q-114 -45 -147 -45q-34 0 -33 57l6 492h-152q-16 0 -45.5 -5t-44.5 -5l-9 8q-3 12 -3 22q0 94 84 94h24q16 -1 25 -1q29 0 51 4q-194 331 -194 651l2 15l8 3q142 0 194 -82q14 -22 73 -208q56 -180 126 -324q222 264 363 553q17 34 28 49q42 -17 76 -47
q25 -50 25 -174q0 -127 -244 -428q31 -1 84 2q59 2 84 2l14 -3l4 -11q-10 -31 -28 -94q-110 -25 -275 -21l-20 -327q-1 -12 12 -66q-31 -37 -88 -111z" />
    <glyph glyph-name="brokenbar" unicode="&#xa6;" horiz-adv-x="1024" 
d="M410 408h206v-758h-206v758zM410 1432h206v-758h-206v758z" />
    <glyph glyph-name="section" unicode="&#xa7;" horiz-adv-x="1024" 
d="M326 737q-82 -72 -82 -135q0 -41 170 -110q111 -41 223 -82q71 56 113 153q-75 38 -211 89q-155 59 -213 85zM129 -209l-49 145q-48 9 -88 27l6 51q70 -6 113 -6q248 0 493 142q-112 52 -250 103q-170 62 -201 83q-94 62 -94 184q0 167 195 264q-55 33 -70 50
q-26 29 -26 79q0 234 242 356q140 70 450 124l20 -39q44 3 57 -3l7 -12l29 -137q-154 -19 -320 -65q-252 -68 -252 -142q0 -33 140 -79q200 -65 261 -96q140 -72 140 -167q0 -157 -197 -288q99 -42 99 -142q0 -56 -40.5 -143t-84.5 -117q-195 -132 -580 -172z" />
    <glyph glyph-name="dieresis" unicode="&#xa8;" horiz-adv-x="1024" 
d="M770 962l-14 -6q-21 0 -34 77q-9 56 -9 97q0 12 14 37q24 4 43 4q53 0 119 -27q10 -48 10 -120q0 -83 -86 -104q-27 11 -43 42zM264 1090l19 40l14 3q11 40 45 88q46 18 76 16l24 -2q56 -47 102 -124q-2 -36 -4 -73q-5 -52 -17 -64l5 -14q-18 -40 -49 -40q-14 0 -71 41
q-16 -10 -37 -15q-31 17 -107 144z" />
    <glyph glyph-name="copyright" unicode="&#xa9;" horiz-adv-x="1706" 
d="M1212 897h-188q-17 147 -172 147q-107 0 -157 -108q-38 -80 -38 -201q0 -301 203 -301q151 0 170 161l193 1q-8 -147 -117 -230q-101 -77 -252 -77q-193 0 -300 125q-101 118 -101 315t101 319q109 132 302 132q142 0 240 -69q109 -78 116 -214zM854 1356
q-259 0 -440 -181t-181 -440q0 -256 182.5 -438t438.5 -182q258 0 439.5 181t181.5 439q0 259 -181 440t-440 181zM852 1479q312 0 528.5 -217t216.5 -529q0 -306 -219 -524.5t-526 -218.5q-303 0 -522 220t-219 523q0 308 216.5 527t524.5 219z" />
    <glyph glyph-name="ordfeminine" unicode="&#xaa;" horiz-adv-x="606" 
d="M219 1227q-92 -96 -131 -232l162 131zM299 969l-130 -88q-77 -50 -136 -76q-43 0 -43 88q0 174 206 409l-1 15l2 8q1 4 82 70q12 -5 43 -27q50 21 49 21q25 0 80 -66q42 -50 67 -92q-39 -84 -39 -234q0 -43 27 -229l-3 -4l-7 -2q-101 23 -126 56q-35 75 -71 151z" />
    <glyph glyph-name="guillemotleft" unicode="&#xab;" horiz-adv-x="995" 
d="M879 696v-41q-85 -96 -123 -147q-73 -95 -97 -162l35 -84l211 -186l-2 -53q-192 31 -311 35l-6 46q-146 236 -146 306q0 57 93 213q96 163 145 163q17 0 95 -39q94 -47 106 -51zM461 770l-21 -59l21 -52l-74 -124l-72 -25q-77 -178 -77 -272q0 -72 49 -124.5t120 -54.5
l-22 -39l-33 -2q-138 -8 -222.5 78t-84.5 228q0 123 104 288q29 48 57 96q49 76 66 76q127 0 189 -14z" />
    <glyph glyph-name="logicalnot" unicode="&#xac;" horiz-adv-x="1706" 
d="M254 864h1198v-502h-199v306h-999v196z" />
    <glyph glyph-name="sfthyphen" unicode="&#xad;" horiz-adv-x="702" 
d="M39 487l47 35q48 -16 107 -16q28 0 83 5t82 5q83 0 199 -18l-8 -140l29 -65l-34 -28q-53 32 -112 32q-34 0 -101.5 -10.5t-101.5 -10.5q-82 0 -136 48t-54 129v34z" />
    <glyph glyph-name="registered" unicode="&#xae;" horiz-adv-x="1706" 
d="M745 1034v-239h99q170 0 170 116q0 123 -180 123h-89zM545 1161h323q353 0 353 -237q0 -174 -181 -219l185 -369h-224l-157 338h-99v-338h-200v825zM854 1356q-256 0 -438.5 -182t-182.5 -439q0 -254 182.5 -438t436.5 -184q252 0 437.5 179.5t185.5 430.5
q0 265 -177 448q-180 185 -444 185zM852 1479q311 0 528 -217.5t217 -528.5q0 -309 -218 -526t-527 -217q-305 0 -523 219t-218 524q0 310 216 528t525 218z" />
    <glyph glyph-name="macron" unicode="&#xaf;" horiz-adv-x="1024" 
d="M315 1159h31l23 -14q62 -10 110 -10q41 0 123 11t123 11q43 0 141 -6l-8 -31l-16 -8l-21 -108q-68 0 -202.5 -3.5t-202.5 -3.5q-119 0 -119 72q0 34 18 90z" />
    <glyph glyph-name="macron" unicode="&#x2c9;" horiz-adv-x="1024" 
d="M315 1159h31l23 -14q62 -10 110 -10q41 0 123 11t123 11q43 0 141 -6l-8 -31l-16 -8l-21 -108q-68 0 -202.5 -3.5t-202.5 -3.5q-119 0 -119 72q0 34 18 90z" />
    <glyph glyph-name="degree" unicode="&#xb0;" horiz-adv-x="674" 
d="M338 1335q-73 0 -124.5 -50.5t-51.5 -123.5q0 -74 51 -125t125 -51q72 0 123 52t51 124t-51 123t-123 51zM338 1464q127 0 215 -89t88 -216t-89 -215t-216 -88t-214 88t-87 215t88 216t215 89z" />
    <glyph glyph-name="plusminus" unicode="&#xb1;" horiz-adv-x="1706" 
d="M254 197h1198v-199h-1198v199zM752 1223h202v-326h498v-199h-498v-325h-202v325h-498v199h498v326z" />
    <glyph glyph-name="twosuperior" unicode="&#xb2;" horiz-adv-x="682" 
d="M41 1042l80 230q36 8 92 8q150 0 250 -39q143 -55 143 -178q0 -63 -16 -127q-22 -22 -206 -160q-167 -126 -167 -135q0 -38 101 -59q77 -15 169 -15q30 0 44 2q25 -12 42 -37q-83 -38 -229 -38q-104 0 -178 26q-107 36 -107 117q0 105 320 385q-116 55 -199 55
q-70 0 -110 -42z" />
    <glyph glyph-name="threesuperior" unicode="&#xb3;" horiz-adv-x="682" 
d="M72 1282q146 -5 317 -48q242 -61 242 -153q0 -47 -312 -237q256 -131 256 -182q0 -76 -183 -147q-155 -60 -251 -62q-82 35 -108 116q240 29 307 80q-91 85 -203 109q-67 60 -67 125q0 40 134 125t134 112q0 61 -236 88z" />
    <glyph glyph-name="acute" unicode="&#xb4;" horiz-adv-x="1024" 
d="M287 922l20 41l51 20l7 35q78 21 286 146q180 108 277 108l17 -8q5 -13 5 -25q0 -33 -38 -65q6 -28 6 -29q0 -76 -281 -152q-176 -47 -350 -71z" />
    <glyph glyph-name="mu" unicode="&#xb5;" horiz-adv-x="1249" 
d="M205 1092h289q-34 -173 -68 -347q-39 -215 -39 -356q0 -184 170 -184q121 0 184 134q35 73 64 239l90 514h289l-193 -1092h-268l18 117q-81 -150 -215 -150q-131 0 -213 121l-90 -526h-286z" />
    <glyph glyph-name="mu" unicode="&#x3bc;" horiz-adv-x="1249" 
d="M205 1092h289q-34 -173 -68 -347q-39 -215 -39 -356q0 -184 170 -184q121 0 184 134q35 73 64 239l90 514h289l-193 -1092h-268l18 117q-81 -150 -215 -150q-131 0 -213 121l-90 -526h-286z" />
    <glyph glyph-name="paragraph" unicode="&#xb6;" horiz-adv-x="1024" 
d="M983 1479v-111h-113v-1368h-151v1368h-158v-1368h-153v784q-160 6 -260 95q-107 94 -107 251q0 166 115 261q107 88 276 88h551z" />
    <glyph glyph-name="ch270" unicode="&#xb7;" horiz-adv-x="516" 
d="M94 637q0 60 44 103.5t104 43.5q61 0 103 -42.5t42 -104.5q0 -61 -42 -103t-103 -42q-60 0 -104 42.5t-44 102.5z" />
    <glyph glyph-name="ch270" unicode="&#x2219;" horiz-adv-x="516" 
d="M94 637q0 60 44 103.5t104 43.5q61 0 103 -42.5t42 -104.5q0 -61 -42 -103t-103 -42q-60 0 -104 42.5t-44 102.5z" />
    <glyph glyph-name="cedilla" unicode="&#xb8;" horiz-adv-x="1024" 
d="M534 88q3 -6 3 -20q0 -64 -185 -351q-32 -18 -61 -45q-20 -5 -60 -12l-5 4l-3 10q55 137 156 414h155z" />
    <glyph glyph-name="onesuperior" unicode="&#xb9;" horiz-adv-x="682" 
d="M193 457q30 195 69 577q-47 -42 -78 -76l-26 21q59 154 137 291l51 12l170 -59q12 -29 12 -105q0 -84 -56 -263q-42 -125 -83 -249q-101 -69 -166 -168z" />
    <glyph glyph-name="ordmasculine" unicode="&#xba;" horiz-adv-x="555" 
d="M158 1128q-13 -65 -13 -88q0 -67 45 -67q65 0 121 71q-55 49 -153 84zM71 1156q-17 15 -24 36q21 43 84 93q68 54 111 54q65 0 157 -49q101 -55 101 -112q0 -58 -89 -198q-79 -123 -135.5 -177.5t-160.5 -54.5q-80 0 -80 143q0 132 36 265z" />
    <glyph glyph-name="guillemotright" unicode="&#xbb;" horiz-adv-x="995" 
d="M504 647l78 60l-4 36l69 60q53 -93 120 -256q83 -199 112 -260q-6 -105 -126 -182q-189 -122 -251 -123l-17 6l-6 18q0 16 82 152.5t82 177.5t-57 153zM53 627l109 53v35q35 34 90 110q89 -115 152 -244q77 -159 77 -272q0 -132 -95 -220.5t-228 -88.5q-59 0 -107 20
l-12 48q237 124 237 243q0 51 -56 122q-49 64 -101 95q-26 15 -66 99z" />
    <glyph glyph-name="onequarter" unicode="&#xbc;" horiz-adv-x="1645" 
d="M1483 164q61 -15 127 -23l-19 -37q-55 -15 -122 -22q-16 -77 -40 -165l-10 -3q-39 25 -88 104l8 64q-69 18 -163 51q-140 87 -140 166q0 81 191 444q48 -23 95 -45q60 -37 60 -80q0 -34 -69 -190q-80 -183 -90 -215q65 -21 137 -32q31 193 98 491q35 0 64 -61
q24 -52 24 -93q0 -89 -63 -354zM1126 1278h76l23 20h108l-794 -1228q-5 -8 -16 -19q-18 -10 -50 -6l-72 -70h-92zM182 510q26 126 68 541q-25 -23 -74 -72l-24 20q48 131 129 273l49 10l162 -55q12 -34 12 -99q0 -80 -53 -244q-40 -116 -80 -233q-94 -64 -158 -157z" />
    <glyph glyph-name="onehalf" unicode="&#xbd;" horiz-adv-x="1645" 
d="M1034 498l74 213q36 8 90 8q142 0 237 -36q136 -51 136 -167q0 -63 -15 -119q-87 -83 -221.5 -168.5t-134.5 -105.5q0 -36 96 -55q73 -15 161 -15q30 0 43 2q21 -10 40 -32q-72 -39 -219 -39q-98 0 -168 24q-102 35 -102 111q0 100 305 360q-114 49 -191 49
q-71 0 -106 -39zM1126 1278h76l23 20h108l-794 -1228q-5 -8 -16 -19q-18 -10 -50 -6l-72 -70h-92zM182 510q26 126 68 541q-25 -23 -74 -72l-24 20q48 131 129 273l49 10l162 -55q12 -34 12 -99q0 -80 -53 -244q-40 -116 -80 -233q-94 -64 -158 -157z" />
    <glyph glyph-name="threequarters" unicode="&#xbe;" horiz-adv-x="1645" 
d="M1483 164q61 -15 127 -23l-19 -37q-55 -15 -122 -22q-16 -77 -40 -165l-10 -3q-39 25 -88 104l8 64q-69 18 -163 51q-140 87 -140 166q0 81 191 444q48 -23 95 -45q60 -37 60 -80q0 -34 -69 -190q-80 -183 -90 -215q65 -21 137 -32q31 193 98 491q35 0 64 -61
q24 -52 24 -93q0 -89 -63 -354zM1126 1278h76l23 20h108l-794 -1228q-5 -8 -16 -19q-18 -10 -50 -6l-72 -70h-92zM68 1282q137 -4 302 -45q232 -57 232 -143q0 -42 -297 -222q244 -121 244 -170q0 -72 -175 -136q-144 -54 -239 -58q-75 30 -104 108q98 12 153 24
q101 21 142 52q-86 78 -195 101q-65 53 -65 116q0 37 119 110q127 77 139 111q0 57 -226 84z" />
    <glyph glyph-name="questiondown" unicode="&#xbf;" horiz-adv-x="938" 
d="M707 1178q0 -41 -62 -58l-41 8q-22 -5 -72 -40q-46 -31 -67 -31q-94 0 -94 51q0 33 21 90q21 54 42 84q17 5 90 37q65 29 78 29q22 0 57 -27.5t41.5 -46t6.5 -96.5zM506 1014q98 -110 98 -226q0 -82 -64 -261q-67 -188 -73 -279h49l29 37q165 -36 303 -158
q-242 -152 -445 -152l-6 1q-5 7 -29 22q-26 -4 -49 -4q-101 0 -165 66.5t-64 168.5q0 114 135 410l41 4q125 256 240 371z" />
    <glyph glyph-name="Agrave" unicode="&#xc0;" horiz-adv-x="1090" 
d="M305 567l283 49q0 236 -43 484q-52 -101 -123 -265q-95 -219 -117 -268zM506 1223l-14 90q85 49 260 49l19 -5l15 -23l64 3l17 -2q59 -28 59 -405q0 -49 -6 -137q-6 -96 -7 -136q78 8 84 7l13 -5q2 -10 2 -20q0 -215 -76 -215q-35 -51 -78 -82q-18 -124 -35 -199
l-174 -106l-14 -82q-69 -31 -74 -31q-6 0 -6 2q25 201 25 273q0 82 -3 108q-122 -5 -366 -12q-36 -100 -73 -200q-57 -156 -72 -156l-21 -56l-43 -2q-11 0 -30 4l-11 11q0 52 100 401q-96 115 -96 211l8 15q14 4 150 18q25 101 91 286q69 192 93 285q66 40 199 111z
M805 1444q-123 67 -247 134q-192 111 -192 151q0 15 50 52q42 32 67 44q87 -59 232 -181q160 -133 231 -185q-20 2 -41 2q-56 0 -100 -17z" />
    <glyph glyph-name="Aacute" unicode="&#xc1;" horiz-adv-x="1090" 
d="M305 567l283 49q0 236 -43 484q-52 -101 -123 -265q-95 -219 -117 -268zM506 1223l-14 90q85 49 260 49l19 -5l15 -23l64 3l17 -2q59 -28 59 -405q0 -49 -6 -137q-6 -96 -7 -136q78 8 84 7l13 -5q2 -10 2 -20q0 -215 -76 -215q-35 -51 -78 -82q-18 -124 -35 -199
l-174 -106l-14 -82q-69 -31 -74 -31q-6 0 -6 2q25 201 25 273q0 82 -3 108q-122 -5 -366 -12q-36 -100 -73 -200q-57 -156 -72 -156l-21 -56l-43 -2q-11 0 -30 4l-11 11q0 52 100 401q-96 115 -96 211l8 15q14 4 150 18q25 101 91 286q69 192 93 285q66 40 199 111z
M422 1459l20 41l51 20l7 35q78 21 286 146q180 108 277 108l17 -8q5 -13 5 -25q0 -33 -38 -65q6 -28 6 -29q0 -76 -281 -152q-176 -47 -350 -71z" />
    <glyph glyph-name="Acircumflex" unicode="&#xc2;" horiz-adv-x="1090" 
d="M305 567l283 49q0 236 -43 484q-52 -101 -123 -265q-95 -219 -117 -268zM506 1223l-14 90q85 49 260 49l19 -5l15 -23l64 3l17 -2q59 -28 59 -405q0 -49 -6 -137q-6 -96 -7 -136q78 8 84 7l13 -5q2 -10 2 -20q0 -215 -76 -215q-35 -51 -78 -82q-18 -124 -35 -199
l-174 -106l-14 -82q-69 -31 -74 -31q-6 0 -6 2q25 201 25 273q0 82 -3 108q-122 -5 -366 -12q-36 -100 -73 -200q-57 -156 -72 -156l-21 -56l-43 -2q-11 0 -30 4l-11 11q0 52 100 401q-96 115 -96 211l8 15q14 4 150 18q25 101 91 286q69 192 93 285q66 40 199 111z
M405 1390q-6 16 -6 29q0 15 2 26l24 15l11 43q10 39 161 153.5t193 114.5q25 0 92 -87l84 -118l-14 -73q30 -43 30 -60q0 -40 -34 -49l-197 162q-223 -94 -346 -156z" />
    <glyph glyph-name="Atilde" unicode="&#xc3;" horiz-adv-x="1090" 
d="M305 567l283 49q0 236 -43 484q-52 -101 -123 -265q-95 -219 -117 -268zM506 1223l-14 90q85 49 260 49l19 -5l15 -23l64 3l17 -2q59 -28 59 -405q0 -49 -6 -137q-6 -96 -7 -136q78 8 84 7l13 -5q2 -10 2 -20q0 -215 -76 -215q-35 -51 -78 -82q-18 -124 -35 -199
l-174 -106l-14 -82q-69 -31 -74 -31q-6 0 -6 2q25 201 25 273q0 82 -3 108q-122 -5 -366 -12q-36 -100 -73 -200q-57 -156 -72 -156l-21 -56l-43 -2q-11 0 -30 4l-11 11q0 52 100 401q-96 115 -96 211l8 15q14 4 150 18q25 101 91 286q69 192 93 285q66 40 199 111z
M1059 1758q-56 -283 -209 -283q-25 0 -128 64q-69 42 -138 85q-69 -61 -127 -147l-54 18l8 19l-38 14q17 36 72 101q52 63 65 94q68 35 129 35q39 0 138 -57q135 -77 144 -81q21 34 42 67q30 47 50 50q20 20 46 21z" />
    <glyph glyph-name="Adieresis" unicode="&#xc4;" horiz-adv-x="1090" 
d="M305 567l283 49q0 236 -43 484q-52 -101 -123 -265q-95 -219 -117 -268zM506 1223l-14 90q85 49 260 49l19 -5l15 -23l64 3l17 -2q59 -28 59 -405q0 -49 -6 -137q-6 -96 -7 -136q78 8 84 7l13 -5q2 -10 2 -20q0 -215 -76 -215q-35 -51 -78 -82q-18 -124 -35 -199
l-174 -106l-14 -82q-69 -31 -74 -31q-6 0 -6 2q25 201 25 273q0 82 -3 108q-122 -5 -366 -12q-36 -100 -73 -200q-57 -156 -72 -156l-21 -56l-43 -2q-11 0 -30 4l-11 11q0 52 100 401q-96 115 -96 211l8 15q14 4 150 18q25 101 91 286q69 192 93 285q66 40 199 111z
M905 1499l-14 -6q-21 0 -34 77q-9 56 -9 97q0 12 14 37q24 4 43 4q53 0 119 -27q10 -48 10 -120q0 -83 -86 -104q-27 11 -43 42zM399 1627l19 40l14 3q11 40 45 88q46 18 76 16l24 -2q56 -47 102 -124q-2 -36 -4 -73q-5 -52 -17 -64l5 -14q-18 -40 -49 -40q-14 0 -71 41
q-16 -10 -37 -15q-31 17 -107 144z" />
    <glyph glyph-name="Aring" unicode="&#xc5;" horiz-adv-x="1090" 
d="M821 1657q0 71 -47 110q-43 37 -115 37q-55 0 -106 -30q34 -220 166 -220q45 0 73.5 29t28.5 74zM446 1639q-10 40 -10 55q0 87 84 163t172 76q102 0 173 -67.5t71 -169.5q0 -104 -73 -184q-76 -82 -179 -82q-88 0 -155 52.5t-89 137.5zM506 1223l-14 90q85 49 260 49
l19 -5l15 -23l64 3l17 -2q59 -28 59 -405q0 -49 -6 -137q-6 -96 -7 -136q78 8 84 7l13 -5q2 -10 2 -20q0 -215 -76 -215q-35 -51 -78 -82q-18 -124 -35 -199l-174 -106l-14 -82q-69 -31 -74 -31q-6 0 -6 2q25 201 25 273q0 82 -3 108q-122 -5 -366 -12q-36 -100 -73 -200
q-57 -156 -72 -156l-21 -56l-43 -2q-11 0 -30 4l-11 11q0 52 100 401q-96 115 -96 211l8 15q14 4 150 18q25 101 91 286q69 192 93 285q66 40 199 111zM305 567l283 49q0 236 -43 484q-52 -101 -123 -265q-95 -219 -117 -268z" />
    <glyph glyph-name="AE" unicode="&#xc6;" horiz-adv-x="1546" 
d="M616 1020l-129 -12q-58 -139 -182 -414l311 55v371zM924 977q4 -52 4 -105q0 -47 -10 -135q91 4 169 4q76 0 187 -20q149 -27 149 -68q0 1 -34 -127q-132 -27 -414 -137q-36 -85 -88 -85q-16 0 -39 5q-10 -36 -10 -80q0 -23 8 -43q17 -10 35 -10q202 0 417 117l17 -19
q-81 -75 -121 -182q-244 -100 -381 -100q-81 0 -166 49l-12 -59q-69 -31 -74 -31q-6 0 -6 2q0 35 12.5 129t12.5 143q0 83 -3 109q-161 -8 -366 -13q-36 -100 -73 -200q-57 -156 -72 -156l-21 -55h-43q-13 0 -30 3l-11 9q0 51 100 402q-96 115 -96 211l8 15q14 4 150 17
q40 166 139 447q-18 22 -18 39q0 95 147 149q25 9 221 55q-2 26 -12 76q47 43 166 43q18 0 35 -6q8 -14 11 -33l58 -4l11 -28q200 24 321 24q63 0 173 -12q137 -15 153 -35q10 -12 10 -78q0 -40 -29 -94q-26 -43 -51 -86q-140 -3 -534 -47z" />
    <glyph glyph-name="Ccedilla" unicode="&#xc7;" horiz-adv-x="1241" 
d="M248 1032q616 342 891 342q37 0 37 -133q0 -56 -66 -231q-263 -56 -496 -167q-325 -154 -370 -333q105 -43 352 -43t521 51q43 8 48 8q11 0 9 -12l-17 -113q-57 -71 -192 -118l-4 -148q-206 -98 -545 -98q-192 0 -232 26q-67 44 -111 239q-36 157 -36 278q0 104 24 139
q123 180 407 307zM643 88q3 -6 3 -20q0 -64 -185 -351q-32 -18 -61 -45q-20 -5 -60 -12l-5 4l-3 10q55 137 156 414h155z" />
    <glyph glyph-name="Egrave" unicode="&#xc8;" horiz-adv-x="1063" 
d="M858 268q-88 -84 -129 -196q-259 -105 -369 -105q-147 0 -206 135l-29 -34h-35q-27 0 -27 206q0 501 205 957q200 98 484 98q257 0 276 -31q12 -20 12 -81q0 -17 -69 -175q-243 -25 -398 -67q-101 -146 -153 -240q81 4 162 4q79 0 201 -20q163 -27 163 -66q0 -9 -35 -129
q-366 -72 -602 -231q22 -111 178 -111q160 0 355 107zM774 1444q-123 67 -247 134q-192 111 -192 151q0 15 50 52q42 32 67 44q87 -59 232 -181q160 -133 231 -185q-20 2 -41 2q-56 0 -100 -17z" />
    <glyph glyph-name="Eacute" unicode="&#xc9;" horiz-adv-x="1063" 
d="M858 268q-88 -84 -129 -196q-259 -105 -369 -105q-147 0 -206 135l-29 -34h-35q-27 0 -27 206q0 501 205 957q200 98 484 98q257 0 276 -31q12 -20 12 -81q0 -17 -69 -175q-243 -25 -398 -67q-101 -146 -153 -240q81 4 162 4q79 0 201 -20q163 -27 163 -66q0 -9 -35 -129
q-366 -72 -602 -231q22 -111 178 -111q160 0 355 107zM391 1459l20 41l51 20l7 35q78 21 286 146q180 108 277 108l17 -8q5 -13 5 -25q0 -33 -38 -65q6 -28 6 -29q0 -76 -281 -152q-176 -47 -350 -71z" />
    <glyph glyph-name="Ecircumflex" unicode="&#xca;" horiz-adv-x="1063" 
d="M858 268q-88 -84 -129 -196q-259 -105 -369 -105q-147 0 -206 135l-29 -34h-35q-27 0 -27 206q0 501 205 957q200 98 484 98q257 0 276 -31q12 -20 12 -81q0 -17 -69 -175q-243 -25 -398 -67q-101 -146 -153 -240q81 4 162 4q79 0 201 -20q163 -27 163 -66q0 -9 -35 -129
q-366 -72 -602 -231q22 -111 178 -111q160 0 355 107zM395 1390q-6 16 -6 29q0 15 2 26l24 15l11 43q10 39 161 153.5t193 114.5q25 0 92 -87l84 -118l-14 -73q30 -43 30 -60q0 -40 -34 -49l-197 162q-223 -94 -346 -156z" />
    <glyph glyph-name="Edieresis" unicode="&#xcb;" horiz-adv-x="1063" 
d="M858 268q-88 -84 -129 -196q-259 -105 -369 -105q-147 0 -206 135l-29 -34h-35q-27 0 -27 206q0 501 205 957q200 98 484 98q257 0 276 -31q12 -20 12 -81q0 -17 -69 -175q-243 -25 -398 -67q-101 -146 -153 -240q81 4 162 4q79 0 201 -20q163 -27 163 -66q0 -9 -35 -129
q-366 -72 -602 -231q22 -111 178 -111q160 0 355 107zM874 1499l-14 -6q-21 0 -34 77q-9 56 -9 97q0 12 14 37q24 4 43 4q53 0 119 -27q10 -48 10 -120q0 -83 -86 -104q-27 11 -43 42zM368 1627l19 40l14 3q11 40 45 88q46 18 76 16l24 -2q56 -47 102 -124q-2 -36 -4 -73
q-5 -52 -17 -64l5 -14q-18 -40 -49 -40q-14 0 -71 41q-16 -10 -37 -15q-31 17 -107 144z" />
    <glyph glyph-name="Igrave" unicode="&#xcc;" horiz-adv-x="616" 
d="M88 885q77 216 194 395q24 37 54 45q14 4 70 4q27 0 39 -5q32 -13 90 -136q55 -118 55 -158q0 -13 -106 -368q-107 -358 -185 -713h-14q-88 0 -144 94q-47 80 -47 174q0 124 78 461zM523 1444q-123 67 -247 134q-192 111 -192 151q0 15 50 52q42 32 67 44
q87 -59 232 -181q160 -133 231 -185q-20 2 -41 2q-56 0 -100 -17z" />
    <glyph glyph-name="Iacute" unicode="&#xcd;" horiz-adv-x="616" 
d="M88 885q77 216 194 395q24 37 54 45q14 4 70 4q27 0 39 -5q32 -13 90 -136q55 -118 55 -158q0 -13 -106 -368q-107 -358 -185 -713h-14q-88 0 -144 94q-47 80 -47 174q0 124 78 461zM140 1459l20 41l51 20l7 35q78 21 286 146q180 108 277 108l17 -8q5 -13 5 -25
q0 -33 -38 -65q6 -28 6 -29q0 -76 -281 -152q-176 -47 -350 -71z" />
    <glyph glyph-name="Icircumflex" unicode="&#xce;" horiz-adv-x="616" 
d="M88 885q77 216 194 395q24 37 54 45q14 4 70 4q27 0 39 -5q32 -13 90 -136q55 -118 55 -158q0 -13 -106 -368q-107 -358 -185 -713h-14q-88 0 -144 94q-47 80 -47 174q0 124 78 461zM103 1440q-6 16 -6 29q0 15 2 26l24 15l11 43q10 39 161 153.5t193 114.5q25 0 92 -87
l84 -118l-14 -73q30 -43 30 -60q0 -40 -34 -49l-197 162q-223 -94 -346 -156z" />
    <glyph glyph-name="Idieresis" unicode="&#xcf;" horiz-adv-x="616" 
d="M88 885q77 216 194 395q24 37 54 45q14 4 70 4q27 0 39 -5q32 -13 90 -136q55 -118 55 -158q0 -13 -106 -368q-107 -358 -185 -713h-14q-88 0 -144 94q-47 80 -47 174q0 124 78 461zM623 1499l-14 -6q-21 0 -34 77q-9 56 -9 97q0 12 14 37q24 4 43 4q53 0 119 -27
q10 -48 10 -120q0 -83 -86 -104q-27 11 -43 42zM117 1627l19 40l14 3q11 40 45 88q46 18 76 16l24 -2q56 -47 102 -124q-2 -36 -4 -73q-5 -52 -17 -64l5 -14q-18 -40 -49 -40q-14 0 -71 41q-16 -10 -37 -15q-31 17 -107 144z" />
    <glyph glyph-name="Eth" unicode="&#xd0;" horiz-adv-x="1190" 
d="M563 1069q-13 -113 -65 -303l100 2q60 1 77 -18.5t17 -71.5q0 -10 -9 -19q-32 -10 -74 -11q-27 -1 -75 1q-54 2 -75 2q-44 -121 -135 -362q522 278 522 583q0 58 -27 95q-112 54 -256 102zM129 187q12 100 61 464q-46 -3 -128 6l-13 11q-29 9 -55 10q-8 13 -8 45
q0 51 112 51q25 0 65 -3t47 -3q16 103 56 307q-77 79 -89 91q-59 65 -75 98q1 73 50 112q39 -1 192 -51l14 21q334 -118 500 -232q275 -188 275 -442q0 -88 -9 -113q-33 -93 -145 -219q-100 -112 -195 -181q-211 -152 -510 -210q-75 61 -217 190q3 4 72 48z" />
    <glyph glyph-name="Ntilde" unicode="&#xd1;" horiz-adv-x="1280" 
d="M43 125q30 587 190 1149l99 51q282 -48 282 -82q0 -7 -24 -110l108 -91q55 -451 156 -714q187 313 258 868q55 76 113 139l24 -8q-50 -415 -119 -748q-128 -622 -264 -622q-12 0 -24 6l-92 47q-94 48 -194 346q-69 205 -110 412q-26 -188 -197 -764q-15 -50 -46 -49
q-56 31 -160 170zM1162 1758q-56 -283 -209 -283q-25 0 -128 64q-69 42 -138 85q-69 -61 -127 -147l-54 18l8 19l-38 14q17 36 72 101q52 63 65 94q68 35 129 35q39 0 138 -57q135 -77 144 -81q21 34 42 67q30 47 50 50q20 20 46 21z" />
    <glyph glyph-name="Ograve" unicode="&#xd2;" horiz-adv-x="1147" 
d="M512 918q-137 -419 -137 -605q0 -16 2 -49.5t2 -50.5q136 34 313 191q189 167 189 286q0 91 -145 159q-96 45 -224 69zM217 1219q35 4 106 10l48 94q349 -8 483 -60q238 -91 238 -370q0 -148 -76 -362q-84 -233 -205 -385q-144 -179 -297 -179q-146 0 -300 149
q-157 153 -157 308q0 172 172 547q-41 6 -122 16zM789 1444q-123 67 -247 134q-192 111 -192 151q0 15 50 52q42 32 67 44q87 -59 232 -181q160 -133 231 -185q-20 2 -41 2q-56 0 -100 -17z" />
    <glyph glyph-name="Oacute" unicode="&#xd3;" horiz-adv-x="1147" 
d="M512 918q-137 -419 -137 -605q0 -16 2 -49.5t2 -50.5q136 34 313 191q189 167 189 286q0 91 -145 159q-96 45 -224 69zM217 1219q35 4 106 10l48 94q349 -8 483 -60q238 -91 238 -370q0 -148 -76 -362q-84 -233 -205 -385q-144 -179 -297 -179q-146 0 -300 149
q-157 153 -157 308q0 172 172 547q-41 6 -122 16zM406 1459l20 41l51 20l7 35q78 21 286 146q180 108 277 108l17 -8q5 -13 5 -25q0 -33 -38 -65q6 -28 6 -29q0 -76 -281 -152q-176 -47 -350 -71z" />
    <glyph glyph-name="Ocircumflex" unicode="&#xd4;" horiz-adv-x="1147" 
d="M512 918q-137 -419 -137 -605q0 -16 2 -49.5t2 -50.5q136 34 313 191q189 167 189 286q0 91 -145 159q-96 45 -224 69zM217 1219q35 4 106 10l48 94q349 -8 483 -60q238 -91 238 -370q0 -148 -76 -362q-84 -233 -205 -385q-144 -179 -297 -179q-146 0 -300 149
q-157 153 -157 308q0 172 172 547q-41 6 -122 16zM365 1390q-6 16 -6 29q0 15 2 26l24 15l11 43q10 39 161 153.5t193 114.5q25 0 92 -87l84 -118l-14 -73q30 -43 30 -60q0 -40 -34 -49l-197 162q-223 -94 -346 -156z" />
    <glyph glyph-name="Otilde" unicode="&#xd5;" horiz-adv-x="1147" 
d="M512 918q-137 -419 -137 -605q0 -16 2 -49.5t2 -50.5q136 34 313 191q189 167 189 286q0 91 -145 159q-96 45 -224 69zM217 1219q35 4 106 10l48 94q349 -8 483 -60q238 -91 238 -370q0 -148 -76 -362q-84 -233 -205 -385q-144 -179 -297 -179q-146 0 -300 149
q-157 153 -157 308q0 172 172 547q-41 6 -122 16zM1043 1758q-56 -283 -209 -283q-25 0 -128 64q-69 42 -138 85q-69 -61 -127 -147l-54 18l8 19l-38 14q17 36 72 101q52 63 65 94q68 35 129 35q39 0 138 -57q135 -77 144 -81q21 34 42 67q30 47 50 50q20 20 46 21z" />
    <glyph glyph-name="Odieresis" unicode="&#xd6;" horiz-adv-x="1147" 
d="M512 918q-137 -419 -137 -605q0 -16 2 -49.5t2 -50.5q136 34 313 191q189 167 189 286q0 91 -145 159q-96 45 -224 69zM217 1219q35 4 106 10l48 94q349 -8 483 -60q238 -91 238 -370q0 -148 -76 -362q-84 -233 -205 -385q-144 -179 -297 -179q-146 0 -300 149
q-157 153 -157 308q0 172 172 547q-41 6 -122 16zM889 1499l-14 -6q-21 0 -34 77q-9 56 -9 97q0 12 14 37q24 4 43 4q53 0 119 -27q10 -48 10 -120q0 -83 -86 -104q-27 11 -43 42zM383 1627l19 40l14 3q11 40 45 88q46 18 76 16l24 -2q56 -47 102 -124q-2 -36 -4 -73
q-5 -52 -17 -64l5 -14q-18 -40 -49 -40q-14 0 -71 41q-16 -10 -37 -15q-31 17 -107 144z" />
    <glyph glyph-name="multiply" unicode="&#xd7;" horiz-adv-x="1706" 
d="M416 1202l450 -450l451 450l141 -139l-450 -453l450 -450l-141 -140l-451 451l-450 -451l-140 140l451 450l-451 453z" />
    <glyph glyph-name="Oslash" unicode="&#xd8;" horiz-adv-x="1147" 
d="M369 338v-125l2 -12q92 22 176 76q96 61 210 187q134 148 134 232q0 51 -60 105zM217 1219q35 4 106 10l48 94q521 -9 651 -170l86 86l22 -4l54 49q69 -27 69 -41q0 -22 -84 -108q-48 -47 -96 -93q19 -80 19 -153q0 -146 -77 -360q-83 -232 -205 -383
q-144 -179 -296 -179q-118 0 -336 180q-49 -53 -154 -150l-24 -5q-19 0 -39 4l4 12l-37 8q-4 9 -4 19q0 14 187 201q-54 75 -54 188q0 172 172 547q-41 6 -122 16zM504 932q-83 -196 -123 -436l360 360q-86 44 -237 76z" />
    <glyph glyph-name="Ugrave" unicode="&#xd9;" horiz-adv-x="1204" 
d="M344 1239l26 61q51 9 154 25l7 -2l4 -6q20 -213 20 -217q0 -11 -21 -78q-114 -361 -114 -698q0 -59 8 -111q158 112 319 349q135 199 230 417q11 31 43 86q100 41 158 57l6 -5l2 -19q0 -221 -139 -591q-144 -381 -293 -531q-51 -7 -99 -7q-113 0 -199 19
q-103 23 -215 128.5t-134 206.5q-9 41 -9 119q0 175 19 381q24 258 64 369q12 8 163 47zM910 1444q-123 67 -247 134q-192 111 -192 151q0 15 50 52q42 32 67 44q87 -59 232 -181q160 -133 231 -185q-20 2 -41 2q-56 0 -100 -17z" />
    <glyph glyph-name="Uacute" unicode="&#xda;" horiz-adv-x="1204" 
d="M344 1239l26 61q51 9 154 25l7 -2l4 -6q20 -213 20 -217q0 -11 -21 -78q-114 -361 -114 -698q0 -59 8 -111q158 112 319 349q135 199 230 417q11 31 43 86q100 41 158 57l6 -5l2 -19q0 -221 -139 -591q-144 -381 -293 -531q-51 -7 -99 -7q-113 0 -199 19
q-103 23 -215 128.5t-134 206.5q-9 41 -9 119q0 175 19 381q24 258 64 369q12 8 163 47zM527 1459l20 41l51 20l7 35q78 21 286 146q180 108 277 108l17 -8q5 -13 5 -25q0 -33 -38 -65q6 -28 6 -29q0 -76 -281 -152q-176 -47 -350 -71z" />
    <glyph glyph-name="Ucircumflex" unicode="&#xdb;" horiz-adv-x="1204" 
d="M344 1239l26 61q51 9 154 25l7 -2l4 -6q20 -213 20 -217q0 -11 -21 -78q-114 -361 -114 -698q0 -59 8 -111q158 112 319 349q135 199 230 417q11 31 43 86q100 41 158 57l6 -5l2 -19q0 -221 -139 -591q-144 -381 -293 -531q-51 -7 -99 -7q-113 0 -199 19
q-103 23 -215 128.5t-134 206.5q-9 41 -9 119q0 175 19 381q24 258 64 369q12 8 163 47zM490 1440q-6 16 -6 29q0 15 2 26l24 15l11 43q10 39 161 153.5t193 114.5q25 0 92 -87l84 -118l-14 -73q30 -43 30 -60q0 -40 -34 -49l-197 162q-223 -94 -346 -156z" />
    <glyph glyph-name="Udieresis" unicode="&#xdc;" horiz-adv-x="1204" 
d="M344 1239l26 61q51 9 154 25l7 -2l4 -6q20 -213 20 -217q0 -11 -21 -78q-114 -361 -114 -698q0 -59 8 -111q158 112 319 349q135 199 230 417q11 31 43 86q100 41 158 57l6 -5l2 -19q0 -221 -139 -591q-144 -381 -293 -531q-51 -7 -99 -7q-113 0 -199 19
q-103 23 -215 128.5t-134 206.5q-9 41 -9 119q0 175 19 381q24 258 64 369q12 8 163 47zM1010 1499l-14 -6q-21 0 -34 77q-9 56 -9 97q0 12 14 37q24 4 43 4q53 0 119 -27q10 -48 10 -120q0 -83 -86 -104q-27 11 -43 42zM504 1627l19 40l14 3q11 40 45 88q46 18 76 16l24 -2
q56 -47 102 -124q-2 -36 -4 -73q-5 -52 -17 -64l5 -14q-18 -40 -49 -40q-14 0 -71 41q-16 -10 -37 -15q-31 17 -107 144z" />
    <glyph glyph-name="Yacute" unicode="&#xdd;" horiz-adv-x="1053" 
d="M526 446q-159 -174 -213 -174q-40 0 -184 146q-20 108 -20 381q0 431 36 542q8 -1 213 -190q0 -236 8 -329q16 -189 72 -318q153 150 383 614q24 62 80 178q6 0 94 -82l-2 -127l70 -77q-52 -360 -266 -700q-173 -276 -482 -580q-72 37 -165 63q193 278 376 653zM359 1459
l20 41l51 20l7 35q78 21 286 146q180 108 277 108l17 -8q5 -13 5 -25q0 -33 -38 -65q6 -28 6 -29q0 -76 -281 -152q-176 -47 -350 -71z" />
    <glyph glyph-name="Thorn" unicode="&#xde;" horiz-adv-x="1194" 
d="M356 281l-39 -218l54 -55l-21 -59q-64 -26 -194 -72l-8 7q-3 14 -3 28q0 531 74 958l-124 18q-30 13 -63 99q-14 34 -28 100q15 20 250 3q22 129 53 237l219 33q0 -47 -8 -141l-26 -160q123 -24 153 -32q92 -21 148 -48q111 -53 214 -199q107 -151 107 -270
q0 -133 -299 -215q-171 -46 -403 -68zM381 457q307 70 418 157q-149 122 -350 201z" />
    <glyph glyph-name="germandbls" unicode="&#xdf;" horiz-adv-x="883" 
d="M434 1077q-183 -689 -289 -1167l-125 -129l-57 6l20 141q63 442 88 608q81 534 107 574q40 61 117 126q90 75 147 75q153 0 265 -47q67 -28 67 -127q0 -169 -229 -355q272 -209 272 -379q0 -136 -194 -267q-142 -97 -318 -154q3 29 12 85q3 15 104 106q110 100 130 126
q-44 57 -87 114q-63 84 -63 111q0 125 58 297q123 143 123 213q-13 25 -148 43z" />
    <glyph glyph-name="agrave" unicode="&#xe0;" 
d="M293 645q-124 -132 -176 -330l215 187zM397 279q-325 -236 -354 -236q-55 0 -55 127q0 250 274 586q-4 11 -4 18q1 20 47 57q61 50 66 56q10 -3 57 -39q68 29 66 29q34 0 108 -95q54 -71 88 -131q-51 -120 -51 -332q0 -101 35 -327l-3 -6l-9 -2q-139 32 -172 80
q-47 107 -93 215zM561 907q-123 67 -247 134q-192 111 -192 151q0 15 50 52q42 32 67 44q87 -59 232 -181q160 -133 231 -185q-20 2 -41 2q-56 0 -100 -17z" />
    <glyph glyph-name="aacute" unicode="&#xe1;" 
d="M293 645q-124 -132 -176 -330l215 187zM397 279q-325 -236 -354 -236q-55 0 -55 127q0 250 274 586q-4 11 -4 18q1 20 47 57q61 50 66 56q10 -3 57 -39q68 29 66 29q34 0 108 -95q54 -71 88 -131q-51 -120 -51 -332q0 -101 35 -327l-3 -6l-9 -2q-139 32 -172 80
q-47 107 -93 215zM178 922l20 41l51 20l7 35q78 21 286 146q180 108 277 108l17 -8q5 -13 5 -25q0 -33 -38 -65q6 -28 6 -29q0 -76 -281 -152q-176 -47 -350 -71z" />
    <glyph glyph-name="acircumflex" unicode="&#xe2;" 
d="M293 645q-124 -132 -176 -330l215 187zM397 279q-325 -236 -354 -236q-55 0 -55 127q0 250 274 586q-4 11 -4 18q1 20 47 57q61 50 66 56q10 -3 57 -39q68 29 66 29q34 0 108 -95q54 -71 88 -131q-51 -120 -51 -332q0 -101 35 -327l-3 -6l-9 -2q-139 32 -172 80
q-47 107 -93 215zM141 903q-6 16 -6 29q0 15 2 26l24 15l11 43q10 39 161 153.5t193 114.5q25 0 92 -87l84 -118l-14 -73q30 -43 30 -60q0 -40 -34 -49l-197 162q-223 -94 -346 -156z" />
    <glyph glyph-name="atilde" unicode="&#xe3;" 
d="M293 645q-124 -132 -176 -330l215 187zM397 279q-325 -236 -354 -236q-55 0 -55 127q0 250 274 586q-4 11 -4 18q1 20 47 57q61 50 66 56q10 -3 57 -39q68 29 66 29q34 0 108 -95q54 -71 88 -131q-51 -120 -51 -332q0 -101 35 -327l-3 -6l-9 -2q-139 32 -172 80
q-47 107 -93 215zM815 1221q-56 -283 -209 -283q-25 0 -128 64q-69 42 -138 85q-69 -61 -127 -147l-54 18l8 19l-38 14q17 36 72 101q52 63 65 94q68 35 129 35q39 0 138 -57q135 -77 144 -81q21 34 42 67q30 47 50 50q20 20 46 21z" />
    <glyph glyph-name="adieresis" unicode="&#xe4;" 
d="M293 645q-124 -132 -176 -330l215 187zM397 279q-325 -236 -354 -236q-55 0 -55 127q0 250 274 586q-4 11 -4 18q1 20 47 57q61 50 66 56q10 -3 57 -39q68 29 66 29q34 0 108 -95q54 -71 88 -131q-51 -120 -51 -332q0 -101 35 -327l-3 -6l-9 -2q-139 32 -172 80
q-47 107 -93 215zM661 962l-14 -6q-21 0 -34 77q-9 56 -9 97q0 12 14 37q24 4 43 4q53 0 119 -27q10 -48 10 -120q0 -83 -86 -104q-27 11 -43 42zM155 1090l19 40l14 3q11 40 45 88q46 18 76 16l24 -2q56 -47 102 -124q-2 -36 -4 -73q-5 -52 -17 -64l5 -14q-18 -40 -49 -40
q-14 0 -71 41q-16 -10 -37 -15q-31 17 -107 144z" />
    <glyph glyph-name="aring" unicode="&#xe5;" 
d="M295 1161q-12 37 -12 58q0 87 86 163q83 74 172 74q102 0 171.5 -68t69.5 -169q0 -104 -73 -185q-76 -82 -179 -82q-87 0 -154.5 54t-88.5 139zM668 1180q0 71 -47 110q-43 37 -115 37q-53 0 -107 -31q36 -217 166 -217q45 0 74 28t29 73zM397 279q-325 -236 -354 -236
q-55 0 -55 127q0 250 274 586q-4 11 -4 18q1 20 47 57q61 50 66 56q10 -3 57 -39q68 29 66 29q34 0 108 -95q54 -71 88 -131q-51 -120 -51 -332q0 -101 35 -327l-3 -6l-9 -2q-139 32 -172 80q-47 107 -93 215zM293 645q-124 -132 -176 -330l215 187z" />
    <glyph glyph-name="ae" unicode="&#xe6;" horiz-adv-x="1298" 
d="M881 328q147 173 190 272q-72 -9 -121 -21q-73 -116 -73 -202q0 -30 4 -49zM291 401l-43 146q-119 -167 -119 -275l4 -12l12 -4q20 1 76 63zM227 678q-2 9 -2 20q0 21 53.5 75.5t73.5 55.5q5 -1 41 -36q54 26 72 26q34 0 86 -63q43 -53 61 -97q-41 -127 -41 -221
q0 -157 43 -157q61 181 68 198q38 96 99 185q19 28 31 41q21 25 40 32q74 29 159 48q74 16 126 16q46 0 59 -41q6 -20 6 -80q0 -19 -2 -33q-84 -162 -297 -375q30 -79 139 -79q91 0 177 73v-37l-2 -16q-2 -3 -78 -82q-36 -156 -230 -156q-184 0 -256 146q-100 -78 -153 -78
q-96 0 -146 143q-189 -163 -299 -235q-69 0 -69 162q0 238 241 565z" />
    <glyph glyph-name="ccedilla" unicode="&#xe7;" horiz-adv-x="664" 
d="M187 158q137 4 362 86l4 -3l2 -10l-12 -63q-177 -197 -307 -197q-90 0 -195 164q-39 61 -39 156q0 246 248 457q59 51 76 51q66 0 147 -53q90 -59 90 -125q0 -72 -39 -220l-55 -20q4 55 4 63q0 11 -5 26l-13 9q-62 0 -157 -130q-77 -106 -111 -191zM354 88q3 -6 3 -20
q0 -64 -185 -351q-32 -18 -61 -45q-20 -5 -60 -12l-5 4l-3 10q55 137 156 414h155z" />
    <glyph glyph-name="egrave" unicode="&#xe8;" horiz-adv-x="702" 
d="M274 354q118 153 168 244q-130 -10 -168 -244zM-20 180v25q0 308 194 516q45 47 62 47q43 0 170.5 -36.5t160.5 -59.5q14 -31 45 -90q-144 -185 -329 -400l39 -110q61 19 270 96l10 -8q2 -14 2 -29q0 -40 -8 -78q-132 -116 -197 -116q-107 0 -234 77q-119 72 -185 166z
M500 907q-123 67 -247 134q-192 111 -192 151q0 15 50 52q42 32 67 44q87 -59 232 -181q160 -133 231 -185q-20 2 -41 2q-56 0 -100 -17z" />
    <glyph glyph-name="eacute" unicode="&#xe9;" horiz-adv-x="702" 
d="M274 354q118 153 168 244q-130 -10 -168 -244zM-20 180v25q0 308 194 516q45 47 62 47q43 0 170.5 -36.5t160.5 -59.5q14 -31 45 -90q-144 -185 -329 -400l39 -110q61 19 270 96l10 -8q2 -14 2 -29q0 -40 -8 -78q-132 -116 -197 -116q-107 0 -234 77q-119 72 -185 166z
M117 922l20 41l51 20l7 35q78 21 286 146q180 108 277 108l17 -8q5 -13 5 -25q0 -33 -38 -65q6 -28 6 -29q0 -76 -281 -152q-176 -47 -350 -71z" />
    <glyph glyph-name="ecircumflex" unicode="&#xea;" horiz-adv-x="702" 
d="M274 354q118 153 168 244q-130 -10 -168 -244zM-20 180v25q0 308 194 516q45 47 62 47q43 0 170.5 -36.5t160.5 -59.5q14 -31 45 -90q-144 -185 -329 -400l39 -110q61 19 270 96l10 -8q2 -14 2 -29q0 -40 -8 -78q-132 -116 -197 -116q-107 0 -234 77q-119 72 -185 166z
M80 903q-6 16 -6 29q0 15 2 26l24 15l11 43q10 39 161 153.5t193 114.5q25 0 92 -87l84 -118l-14 -73q30 -43 30 -60q0 -40 -34 -49l-197 162q-223 -94 -346 -156z" />
    <glyph glyph-name="edieresis" unicode="&#xeb;" horiz-adv-x="702" 
d="M274 354q118 153 168 244q-130 -10 -168 -244zM-20 180v25q0 308 194 516q45 47 62 47q43 0 170.5 -36.5t160.5 -59.5q14 -31 45 -90q-144 -185 -329 -400l39 -110q61 19 270 96l10 -8q2 -14 2 -29q0 -40 -8 -78q-132 -116 -197 -116q-107 0 -234 77q-119 72 -185 166z
M600 962l-14 -6q-21 0 -34 77q-9 56 -9 97q0 12 14 37q24 4 43 4q53 0 119 -27q10 -48 10 -120q0 -83 -86 -104q-27 11 -43 42zM94 1090l19 40l14 3q11 40 45 88q46 18 76 16l24 -2q56 -47 102 -124q-2 -36 -4 -73q-5 -52 -17 -64l5 -14q-18 -40 -49 -40q-14 0 -71 41
q-16 -10 -37 -15q-31 17 -107 144z" />
    <glyph glyph-name="igrave" unicode="&#xec;" horiz-adv-x="569" 
d="M311 -23q-139 68 -162 100q-14 17 -61 179l-96 6l-2 127q-1 83 163.5 243t252.5 161q53 -49 53 -88q0 -5 -11 -65q-56 -310 -81 -622zM471 907q-123 67 -247 134q-192 111 -192 151q0 15 50 52q42 32 67 44q87 -59 232 -181q160 -133 231 -185q-20 2 -41 2
q-56 0 -100 -17z" />
    <glyph glyph-name="iacute" unicode="&#xed;" horiz-adv-x="569" 
d="M311 -23q-139 68 -162 100q-14 17 -61 179l-96 6l-2 127q-1 83 163.5 243t252.5 161q53 -49 53 -88q0 -5 -11 -65q-56 -310 -81 -622zM88 922l20 41l51 20l7 35q78 21 286 146q180 108 277 108l17 -8q5 -13 5 -25q0 -33 -38 -65q6 -28 6 -29q0 -76 -281 -152
q-176 -47 -350 -71z" />
    <glyph glyph-name="icircumflex" unicode="&#xee;" horiz-adv-x="569" 
d="M311 -23q-139 68 -162 100q-14 17 -61 179l-96 6l-2 127q-1 83 163.5 243t252.5 161q53 -49 53 -88q0 -5 -11 -65q-56 -310 -81 -622zM51 903q-6 16 -6 29q0 15 2 26l24 15l11 43q10 39 161 153.5t193 114.5q25 0 92 -87l84 -118l-14 -73q30 -43 30 -60q0 -40 -34 -49
l-197 162q-223 -94 -346 -156z" />
    <glyph glyph-name="idieresis" unicode="&#xef;" horiz-adv-x="569" 
d="M311 -23q-139 68 -162 100q-14 17 -61 179l-96 6l-2 127q-1 83 163.5 243t252.5 161q53 -49 53 -88q0 -5 -11 -65q-56 -310 -81 -622zM571 962l-14 -6q-21 0 -34 77q-9 56 -9 97q0 12 14 37q24 4 43 4q53 0 119 -27q10 -48 10 -120q0 -83 -86 -104q-27 11 -43 42z
M65 1090l19 40l14 3q11 40 45 88q46 18 76 16l24 -2q56 -47 102 -124q-2 -36 -4 -73q-5 -52 -17 -64l5 -14q-18 -40 -49 -40q-14 0 -71 41q-16 -10 -37 -15q-31 17 -107 144z" />
    <glyph glyph-name="eth" unicode="&#xf0;" horiz-adv-x="696" 
d="M350 629q-94 -34 -125 -94q-24 -47 -24 -152q0 -98 55 -98q36 0 86.5 56t50.5 93q0 33 -43 195zM319 727l-71 156q-130 -68 -150 -68q-55 0 -73 37q11 32 78 68q47 22 94 45q-58 70 -164 215q22 24 205 24q36 0 91 -50q39 -38 77 -77q166 80 163 80q25 0 46 -5
q10 -13 10 -46q0 7 -4 -25l-154 -86q158 -275 158 -397q0 -90 -95 -292q-92 -193 -161 -267q-33 -35 -100 -57q-61 -21 -115 -21q-74 0 -97 99q-12 48 -12 157q0 275 78 404q33 55 196 106z" />
    <glyph glyph-name="ntilde" unicode="&#xf1;" horiz-adv-x="948" 
d="M440 358l-231 -274q-83 1 -180 10l-4 10q24 122 49 244q37 185 37 260q0 22 -15.5 37.5t-15.5 26.5q0 24 41 112q67 31 137 31q114 0 114 -158q0 -37 -9 -118q169 59 284 59q80 0 111 -19q43 -26 43 -104q0 -66 -10.5 -196.5t-10.5 -196.5q0 -14 6 -28l19 -13l-4 -29
q-139 -73 -207 -73q-80 0 -121 179q-6 30 -33 240zM887 1221q-56 -283 -209 -283q-25 0 -128 64q-69 42 -138 85q-69 -61 -127 -147l-54 18l8 19l-38 14q17 36 72 101q52 63 65 94q68 35 129 35q39 0 138 -57q135 -77 144 -81q21 34 42 67q30 47 50 50q20 20 46 21z" />
    <glyph glyph-name="ograve" unicode="&#xf2;" horiz-adv-x="739" 
d="M211 506q-16 -70 -16 -125q0 -98 59 -98q90 0 160 104q-76 70 -203 119zM96 543q-33 31 -33 53q0 44 105 127.5t154 83.5q91 0 212 -71q132 -79 132 -161q0 -84 -118 -281q-103 -172 -183 -257q-31 -34 -98 -56q-61 -20 -113 -20q-109 0 -109 207q0 194 51 375zM529 907
q-123 67 -247 134q-192 111 -192 151q0 15 50 52q42 32 67 44q87 -59 232 -181q160 -133 231 -185q-20 2 -41 2q-56 0 -100 -17z" />
    <glyph glyph-name="oacute" unicode="&#xf3;" horiz-adv-x="739" 
d="M211 506q-16 -70 -16 -125q0 -98 59 -98q90 0 160 104q-76 70 -203 119zM96 543q-33 31 -33 53q0 44 105 127.5t154 83.5q91 0 212 -71q132 -79 132 -161q0 -84 -118 -281q-103 -172 -183 -257q-31 -34 -98 -56q-61 -20 -113 -20q-109 0 -109 207q0 194 51 375zM146 922
l20 41l51 20l7 35q78 21 286 146q180 108 277 108l17 -8q5 -13 5 -25q0 -33 -38 -65q6 -28 6 -29q0 -76 -281 -152q-176 -47 -350 -71z" />
    <glyph glyph-name="ocircumflex" unicode="&#xf4;" horiz-adv-x="739" 
d="M211 506q-16 -70 -16 -125q0 -98 59 -98q90 0 160 104q-76 70 -203 119zM96 543q-33 31 -33 53q0 44 105 127.5t154 83.5q91 0 212 -71q132 -79 132 -161q0 -84 -118 -281q-103 -172 -183 -257q-31 -34 -98 -56q-61 -20 -113 -20q-109 0 -109 207q0 194 51 375zM109 903
q-6 16 -6 29q0 15 2 26l24 15l11 43q10 39 161 153.5t193 114.5q25 0 92 -87l84 -118l-14 -73q30 -43 30 -60q0 -40 -34 -49l-197 162q-223 -94 -346 -156z" />
    <glyph glyph-name="otilde" unicode="&#xf5;" horiz-adv-x="739" 
d="M211 506q-16 -70 -16 -125q0 -98 59 -98q90 0 160 104q-76 70 -203 119zM96 543q-33 31 -33 53q0 44 105 127.5t154 83.5q91 0 212 -71q132 -79 132 -161q0 -84 -118 -281q-103 -172 -183 -257q-31 -34 -98 -56q-61 -20 -113 -20q-109 0 -109 207q0 194 51 375zM783 1221
q-56 -283 -209 -283q-25 0 -128 64q-69 42 -138 85q-69 -61 -127 -147l-54 18l8 19l-38 14q17 36 72 101q52 63 65 94q68 35 129 35q39 0 138 -57q135 -77 144 -81q21 34 42 67q30 47 50 50q20 20 46 21z" />
    <glyph glyph-name="odieresis" unicode="&#xf6;" horiz-adv-x="739" 
d="M211 506q-16 -70 -16 -125q0 -98 59 -98q90 0 160 104q-76 70 -203 119zM96 543q-33 31 -33 53q0 44 105 127.5t154 83.5q91 0 212 -71q132 -79 132 -161q0 -84 -118 -281q-103 -172 -183 -257q-31 -34 -98 -56q-61 -20 -113 -20q-109 0 -109 207q0 194 51 375zM629 962
l-14 -6q-21 0 -34 77q-9 56 -9 97q0 12 14 37q24 4 43 4q53 0 119 -27q10 -48 10 -120q0 -83 -86 -104q-27 11 -43 42zM123 1090l19 40l14 3q11 40 45 88q46 18 76 16l24 -2q56 -47 102 -124q-2 -36 -4 -73q-5 -52 -17 -64l5 -14q-18 -40 -49 -40q-14 0 -71 41
q-16 -10 -37 -15q-31 17 -107 144z" />
    <glyph glyph-name="divide" unicode="&#xf7;" horiz-adv-x="1706" 
d="M854 369q62 0 107 -45t45 -107t-45 -105.5t-107 -43.5q-63 0 -107.5 43t-44.5 106t44.5 107.5t107.5 44.5zM254 711h1198v-199h-1198v199zM854 1155q62 0 107 -44.5t45 -106.5q0 -63 -44.5 -107.5t-107.5 -44.5t-107.5 44.5t-44.5 107.5t44.5 107t107.5 44z" />
    <glyph glyph-name="oslash" unicode="&#xf8;" horiz-adv-x="739" 
d="M96 543q-33 31 -33 53q0 44 105 127.5t154 83.5q88 0 196 -68l96 103l43 20q68 -2 68 -35l-3 -9q-7 -9 -122 -134q66 -60 66 -109q0 -84 -118 -281q-103 -171 -183 -257q-31 -33 -98 -56q-61 -20 -113 -20q-77 0 -93 107q-37 -46 -75 -91q-60 -70 -82 -75l-13 2
q-35 23 -43 63q5 7 199 230q0 170 49 346zM211 506q-16 -70 -16 -125q0 -98 59 -98q90 0 160 104q-76 70 -203 119z" />
    <glyph glyph-name="ugrave" unicode="&#xf9;" horiz-adv-x="920" 
d="M336 793q6 28 98 28q7 0 8 -8q-4 -17 -16 -47q-103 -272 -152 -553q145 147 285 352q35 52 44 58q18 13 83 25q57 11 90 11l5 -1l1 -11q0 -62 -10 -187t-10 -188q0 -187 18 -321l-78 -19l-53 68q-63 -4 -65 -4q-46 0 -125 201q-140 -119 -248 -119q-86 0 -148 24
q-24 72 -24 170q0 92 24 240q27 172 62 226q9 5 211 55zM619 907q-123 67 -247 134q-192 111 -192 151q0 15 50 52q42 32 67 44q87 -59 232 -181q160 -133 231 -185q-20 2 -41 2q-56 0 -100 -17z" />
    <glyph glyph-name="uacute" unicode="&#xfa;" horiz-adv-x="920" 
d="M336 793q6 28 98 28q7 0 8 -8q-4 -17 -16 -47q-103 -272 -152 -553q145 147 285 352q35 52 44 58q18 13 83 25q57 11 90 11l5 -1l1 -11q0 -62 -10 -187t-10 -188q0 -187 18 -321l-78 -19l-53 68q-63 -4 -65 -4q-46 0 -125 201q-140 -119 -248 -119q-86 0 -148 24
q-24 72 -24 170q0 92 24 240q27 172 62 226q9 5 211 55zM236 922l20 41l51 20l7 35q78 21 286 146q180 108 277 108l17 -8q5 -13 5 -25q0 -33 -38 -65q6 -28 6 -29q0 -76 -281 -152q-176 -47 -350 -71z" />
    <glyph glyph-name="ucircumflex" unicode="&#xfb;" horiz-adv-x="920" 
d="M336 793q6 28 98 28q7 0 8 -8q-4 -17 -16 -47q-103 -272 -152 -553q145 147 285 352q35 52 44 58q18 13 83 25q57 11 90 11l5 -1l1 -11q0 -62 -10 -187t-10 -188q0 -187 18 -321l-78 -19l-53 68q-63 -4 -65 -4q-46 0 -125 201q-140 -119 -248 -119q-86 0 -148 24
q-24 72 -24 170q0 92 24 240q27 172 62 226q9 5 211 55zM199 903q-6 16 -6 29q0 15 2 26l24 15l11 43q10 39 161 153.5t193 114.5q25 0 92 -87l84 -118l-14 -73q30 -43 30 -60q0 -40 -34 -49l-197 162q-223 -94 -346 -156z" />
    <glyph glyph-name="udieresis" unicode="&#xfc;" horiz-adv-x="920" 
d="M336 793q6 28 98 28q7 0 8 -8q-4 -17 -16 -47q-103 -272 -152 -553q145 147 285 352q35 52 44 58q18 13 83 25q57 11 90 11l5 -1l1 -11q0 -62 -10 -187t-10 -188q0 -187 18 -321l-78 -19l-53 68q-63 -4 -65 -4q-46 0 -125 201q-140 -119 -248 -119q-86 0 -148 24
q-24 72 -24 170q0 92 24 240q27 172 62 226q9 5 211 55zM719 962l-14 -6q-21 0 -34 77q-9 56 -9 97q0 12 14 37q24 4 43 4q53 0 119 -27q10 -48 10 -120q0 -83 -86 -104q-27 11 -43 42zM213 1090l19 40l14 3q11 40 45 88q46 18 76 16l24 -2q56 -47 102 -124q-2 -36 -4 -73
q-5 -52 -17 -64l5 -14q-18 -40 -49 -40q-14 0 -71 41q-16 -10 -37 -15q-31 17 -107 144z" />
    <glyph glyph-name="yacute" unicode="&#xfd;" horiz-adv-x="758" 
d="M205 78l-68 31l2 28q-85 72 -99 109q-11 28 -11 145q0 250 44 264l117 37l7 19q64 12 143 12q-41 -230 -41 -358q0 -52 4 -121q119 196 217 404q64 139 105 204q68 0 68 -105q0 -15 -1.5 -41t-1.5 -36q0 -92 -91 -348q-85 -239 -144 -340q-41 -71 -187 -203
q-176 -160 -225 -160q-35 0 -50 8l-3 6q0 43 91 220q68 131 124 225zM154 922l20 41l51 20l7 35q78 21 286 146q180 108 277 108l17 -8q5 -13 5 -25q0 -33 -38 -65q6 -28 6 -29q0 -76 -281 -152q-176 -47 -350 -71z" />
    <glyph glyph-name="thorn" unicode="&#xfe;" horiz-adv-x="786" 
d="M264 61l130 162q102 131 102 158q0 47 -117 41l-37 -2q-40 -169 -78 -359zM33 -451q22 204 69 842q-82 -4 -86 -4l-11 6q-3 11 -3 23q0 51 20 145q23 110 27 147l92 25q23 157 88 486l74 14l21 64l9 10q9 4 146 8l11 -2l4 -10q-35 -176 -100 -529q69 8 126 8
q199 0 199 -114q0 -71 -18 -171q-20 -113 -48 -161q-49 -85 -401 -344l-62 -316l-118 -131z" />
    <glyph glyph-name="ydieresis" unicode="&#xff;" horiz-adv-x="758" 
d="M205 78l-68 31l2 28q-85 72 -99 109q-11 28 -11 145q0 250 44 264l117 37l7 19q64 12 143 12q-41 -230 -41 -358q0 -52 4 -121q119 196 217 404q64 139 105 204q68 0 68 -105q0 -15 -1.5 -41t-1.5 -36q0 -92 -91 -348q-85 -239 -144 -340q-41 -71 -187 -203
q-176 -160 -225 -160q-35 0 -50 8l-3 6q0 43 91 220q68 131 124 225zM637 962l-14 -6q-21 0 -34 77q-9 56 -9 97q0 12 14 37q24 4 43 4q53 0 119 -27q10 -48 10 -120q0 -83 -86 -104q-27 11 -43 42zM131 1090l19 40l14 3q11 40 45 88q46 18 76 16l24 -2q56 -47 102 -124
q-2 -36 -4 -73q-5 -52 -17 -64l5 -14q-18 -40 -49 -40q-14 0 -71 41q-16 -10 -37 -15q-31 17 -107 144z" />
    <glyph glyph-name="glyph271" unicode="&#x102;" horiz-adv-x="1090" 
d="M305 567l283 49q0 236 -43 484q-52 -101 -123 -265q-95 -219 -117 -268zM506 1223l-14 90q85 49 260 49l19 -5l15 -23l64 3l17 -2q59 -28 59 -405q0 -49 -6 -137q-6 -96 -7 -136q78 8 84 7l13 -5q2 -10 2 -20q0 -215 -76 -215q-35 -51 -78 -82q-18 -124 -35 -199
l-174 -106l-14 -82q-69 -31 -74 -31q-6 0 -6 2q25 201 25 273q0 82 -3 108q-122 -5 -366 -12q-36 -100 -73 -200q-57 -156 -72 -156l-21 -56l-43 -2q-11 0 -30 4l-11 11q0 52 100 401q-96 115 -96 211l8 15q14 4 150 18q25 101 91 286q69 192 93 285q66 40 199 111z
M444 1670l8 55l66 18q42 -145 209 -145q136 0 225 104l94 6q-49 -122 -139 -196q-99 -82 -223 -82q-105 0 -194 51q-104 60 -105 158z" />
    <glyph glyph-name="glyph272" unicode="&#x103;" 
d="M293 645q-124 -132 -176 -330l215 187zM397 279q-325 -236 -354 -236q-55 0 -55 127q0 250 274 586q-4 11 -4 18q1 20 47 57q61 50 66 56q10 -3 57 -39q68 29 66 29q34 0 108 -95q54 -71 88 -131q-51 -120 -51 -332q0 -101 35 -327l-3 -6l-9 -2q-139 32 -172 80
q-47 107 -93 215zM228 1194l8 55l66 18q42 -145 209 -145q136 0 225 104l94 6q-49 -122 -139 -196q-99 -82 -223 -82q-105 0 -194 51q-104 60 -105 158z" />
    <glyph glyph-name="Cacute" unicode="&#x106;" horiz-adv-x="1241" 
d="M248 1032q616 342 891 342q37 0 37 -133q0 -56 -66 -231q-263 -56 -496 -167q-325 -154 -370 -333q105 -43 352 -43t521 51q43 8 48 8q11 0 9 -12l-17 -113q-57 -71 -192 -118l-4 -148q-206 -98 -545 -98q-192 0 -232 26q-67 44 -111 239q-36 157 -36 278q0 104 24 139
q123 180 407 307zM588 1459l20 41l51 20l7 35q78 21 286 146q180 108 277 108l17 -8q5 -13 5 -25q0 -33 -38 -65q6 -28 6 -29q0 -76 -281 -152q-176 -47 -350 -71z" />
    <glyph glyph-name="cacute" unicode="&#x107;" horiz-adv-x="664" 
d="M187 158q137 4 362 86l4 -3l2 -10l-12 -63q-177 -197 -307 -197q-90 0 -195 164q-39 61 -39 156q0 246 248 457q59 51 76 51q66 0 147 -53q90 -59 90 -125q0 -72 -39 -220l-55 -20q4 55 4 63q0 11 -5 26l-13 9q-62 0 -157 -130q-77 -106 -111 -191zM107 922l20 41l51 20
l7 35q78 21 286 146q180 108 277 108l17 -8q5 -13 5 -25q0 -33 -38 -65q6 -28 6 -29q0 -76 -281 -152q-176 -47 -350 -71z" />
    <glyph glyph-name="Ccaron" unicode="&#x10c;" horiz-adv-x="1241" 
d="M248 1032q616 342 891 342q37 0 37 -133q0 -56 -66 -231q-263 -56 -496 -167q-325 -154 -370 -333q105 -43 352 -43t521 51q43 8 48 8q11 0 9 -12l-17 -113q-57 -71 -192 -118l-4 -148q-206 -98 -545 -98q-192 0 -232 26q-67 44 -111 239q-36 157 -36 278q0 104 24 139
q123 180 407 307zM864 1622l242 181l55 2l29 20l47 -4q-271 -389 -363 -389q-79 0 -104 47q-2 4 -100 148q-70 103 -70 143q0 33 33 33q36 0 117 -75z" />
    <glyph glyph-name="ccaron" unicode="&#x10d;" horiz-adv-x="664" 
d="M187 158q137 4 362 86l4 -3l2 -10l-12 -63q-177 -197 -307 -197q-90 0 -195 164q-39 61 -39 156q0 246 248 457q59 51 76 51q66 0 147 -53q90 -59 90 -125q0 -72 -39 -220l-55 -20q4 55 4 63q0 11 -5 26l-13 9q-62 0 -157 -130q-77 -106 -111 -191zM383 1085l242 181
l55 2l29 20l47 -4q-271 -389 -363 -389q-79 0 -104 47q-2 4 -100 148q-70 103 -70 143q0 33 33 33q36 0 117 -75z" />
    <glyph glyph-name="Dslash" unicode="&#x110;" horiz-adv-x="1190" 
d="M563 1069q-13 -113 -65 -303l100 2q60 1 77 -18.5t17 -71.5q0 -10 -9 -19q-32 -10 -74 -11q-27 -1 -75 1q-54 2 -75 2q-44 -121 -135 -362q522 278 522 583q0 58 -27 95q-112 54 -256 102zM129 187q12 100 61 464q-46 -3 -128 6l-13 11q-29 9 -55 10q-8 13 -8 45
q0 51 112 51q25 0 65 -3t47 -3q16 103 56 307q-77 79 -89 91q-59 65 -75 98q1 73 50 112q39 -1 192 -51l14 21q334 -118 500 -232q275 -188 275 -442q0 -88 -9 -113q-33 -93 -145 -219q-100 -112 -195 -181q-211 -152 -510 -210q-75 61 -217 190q3 4 72 48z" />
    <glyph glyph-name="dcroat" unicode="&#x111;" horiz-adv-x="930" 
d="M449 711q-291 -260 -291 -355q0 -33 24 -59q163 119 267 414zM397 209q-199 -207 -327 -207q-82 0 -82 133q0 307 540 735l62 148l-184 -1l-3 5q0 26 11 54q14 36 35 36l176 -2q58 201 219 201l13 -5l3 -16q0 -48 -26 -178q81 0 110 -2q19 -26 25 -57l-11 -29
q-36 -8 -143 -8q-100 -429 -100 -662q0 -248 73 -334l74 46l15 -29q-118 -160 -203 -172q-200 99 -277 344z" />
    <glyph glyph-name="Gbreve" unicode="&#x11e;" horiz-adv-x="1309" 
d="M850 272q-97 -75 -216 -135q-147 -74 -237 -74q-94 0 -244 164q-147 161 -147 256q0 221 304 510q280 266 517 334q16 -5 41 -28q8 0 29 3q18 3 29 3l11 -2q6 -3 149 -165t152 -177l3 -13q-5 -23 -14 -44q-88 44 -119 44q-36 0 -182 -61q-226 -95 -389 -233
q-208 -176 -240 -369q269 6 647 274q130 -38 148 -46q96 -42 96 -103q0 -97 -31 -307q-36 -253 -76 -253q-39 0 -130 77q-88 74 -105 115q-17 37 -17 85q0 55 21 145zM543 1711l8 55l66 18q42 -145 209 -145q136 0 225 104l94 6q-49 -122 -139 -196q-99 -82 -223 -82
q-105 0 -194 51q-104 60 -105 158z" />
    <glyph glyph-name="gbreve" unicode="&#x11f;" horiz-adv-x="768" 
d="M479 -25q-43 0 -91 -108q-44 -98 -44 -152l2 -15l4 -5q27 1 76 124q37 94 53 156zM22 175q-10 66 -10 104q0 156 117 309q109 140 260 213q36 -4 71 -28l3 -13l-2 -15q141 -159 141 -213q0 -18 -45 -69q-40 -45 -63 -62q-10 24 -32 67q-70 -64 -114 -136q132 -23 224 -76
q126 -73 126 -182q0 -101 -166 -324q-161 -217 -219 -217q-38 0 -89 32q-54 34 -54 70q0 77 54 185q49 99 110 162q44 45 157 33q-82 76 -202 102q-81 18 -228 18zM217 1174l8 55l66 18q42 -145 209 -145q136 0 225 104l94 6q-49 -122 -139 -196q-99 -82 -223 -82
q-105 0 -194 51q-104 60 -105 158z" />
    <glyph glyph-name="glyph273" unicode="&#x128;" horiz-adv-x="616" 
d="M88 885q77 216 194 395q24 37 54 45q14 4 70 4q27 0 39 -5q32 -13 90 -136q55 -118 55 -158q0 -13 -106 -368q-107 -358 -185 -713h-14q-88 0 -144 94q-47 80 -47 174q0 124 78 461zM833 1758q-56 -283 -209 -283q-25 0 -128 64q-69 42 -138 85q-69 -61 -127 -147l-54 18
l8 19l-38 14q17 36 72 101q52 63 65 94q68 35 129 35q39 0 138 -57q135 -77 144 -81q21 34 42 67q30 47 50 50q20 20 46 21z" />
    <glyph glyph-name="glyph274" unicode="&#x129;" horiz-adv-x="569" 
d="M311 -23q-139 68 -162 100q-14 17 -61 179l-96 6l-2 127q-1 83 163.5 243t252.5 161q53 -49 53 -88q0 -5 -11 -65q-56 -310 -81 -622zM733 1221q-56 -283 -209 -283q-25 0 -128 64q-69 42 -138 85q-69 -61 -127 -147l-54 18l8 19l-38 14q17 36 72 101q52 63 65 94
q68 35 129 35q39 0 138 -57q135 -77 144 -81q21 34 42 67q30 47 50 50q20 20 46 21z" />
    <glyph glyph-name="Idotaccent" unicode="&#x130;" horiz-adv-x="616" 
d="M88 885q77 216 194 395q24 37 54 45q14 4 70 4q27 0 39 -5q32 -13 90 -136q55 -118 55 -158q0 -13 -106 -368q-107 -358 -185 -713h-14q-88 0 -144 94q-47 80 -47 174q0 124 78 461zM334 1667q0 31 36 56q32 22 65 22q7 0 41 -18q38 -20 47 -23q39 -32 39 -106
q0 -52 -57 -83q-47 -26 -103 -26q-32 0 -64 47q-30 44 -30 78q0 37 26 53z" />
    <glyph glyph-name="dotlessi" unicode="&#x131;" horiz-adv-x="569" 
d="M311 -23q-139 68 -162 100q-14 17 -61 179l-96 6l-2 127q-1 83 163.5 243t252.5 161q53 -49 53 -88q0 -5 -11 -65q-56 -310 -81 -622z" />
    <glyph glyph-name="Lslash" unicode="&#x141;" horiz-adv-x="963" 
d="M903 147q-310 -204 -534 -204q-246 0 -246 325q0 79 16 139q-31 -19 -95 -50q-54 26 -73 89l78 52l6 -11l92 58l271 682q8 20 40 28q27 6 54 11l16 39q100 20 183 20q48 0 54 -36q-1 6 -1 -81l-29 -12q-69 -147 -172 -451q103 58 311 164q27 -19 52.5 -40t25.5 -52l-24 2
q-57 -40 -400 -219q-26 -158 -26 -246q0 -70 12 -116q42 -17 119 -17q87 0 158 26q119 44 137 48l4 -6q-10 -47 -29 -142z" />
    <glyph glyph-name="lslash" unicode="&#x142;" horiz-adv-x="674" 
d="M360 1223l68 -31l23 20l137 -73l8 -205q-36 -76 -107 -262l138 82q57 0 57 -37q0 -8 -2 -17l8 -20l-248 -143q-92 -256 -92 -377q0 -104 47 -198q38 -19 84 -19q47 0 123 43l2 -35q-33 -25 -45 -86q-52 -25 -122 -35q-199 81 -271 216q-60 114 -60 343l-96 -57l-34 2
q-6 12 -7 24q3 8 6 19l-10 24q18 28 72 59l82 42q90 405 239 721z" />
    <glyph glyph-name="OE" unicode="&#x152;" horiz-adv-x="1602" 
d="M446 989q-55 -180 -55 -575q0 -136 11 -241l1 -11q152 65 266.5 233t114.5 332q0 143 -103 205q-75 45 -235 57zM217 1030q-67 3 -144 12l-5 7q3 7 88 188l90 -2q16 35 42 79l7 3q176 -34 456 -37l363 -1q33 0 63 -1q195 -1 430 -14q5 -9 5 -76q0 -9 -70 -144
q-102 -27 -471 -53q4 -87 4 -94q0 -56 -20 -165l78 1q227 3 323 -16q30 -18 74 -58q-9 -41 -41 -104q-148 -60 -297 -120q-200 -87 -266 -144q47 -115 153 -115q94 0 338 109l12 -7l11 -18q-63 -69 -94 -139q-239 -139 -388 -139q-113 0 -178 88q-74 -103 -235 -103
q-82 0 -182 46q-163 73 -234.5 181.5t-71.5 284.5q0 265 160 551z" />
    <glyph glyph-name="oe" unicode="&#x153;" horiz-adv-x="1186" 
d="M783 557q-15 -37 -15 -85v-43q157 26 231 120q-44 16 -102 16q-70 0 -114 -8zM186 502q-8 -40 -8 -66q0 -172 66 -172q23 0 72 58q37 44 59 81q-81 22 -189 99zM117 563l-33 45l-2 6q17 64 51 123q47 78 94 78q90 0 383 -186q117 153 330 153q83 0 153 -14q23 -23 23 -35
q0 -175 -86 -265q-74 -77 -252 -124q12 -116 83 -185q51 -50 175 -106q0 -4 -20 -41l-31 4l-43 -67q-146 12 -261 86q-122 78 -177 207q-53 -105 -139 -181q-102 -90 -203 -90q-117 0 -117 254q0 161 72 338z" />
    <glyph glyph-name="Scedilla" unicode="&#x15e;" horiz-adv-x="1063" 
d="M98 45l15 29q39 -13 69 -13q148 0 430 189q-268 53 -371 106q-194 100 -194 299q0 234 270 458q259 214 498 214q26 0 42 -44q25 -71 39 -92q38 -58 114 -83l-56 -336l-41 -8l-36 172q-144 -33 -298 -115q-202 -109 -202 -213q0 -63 197 -135q126 -45 253 -90
q34 -20 65.5 -87.5t31.5 -111.5q0 -81 -239 -183q-217 -93 -318 -93q-124 0 -269 137zM554 88q3 -6 3 -20q0 -64 -185 -351q-32 -18 -61 -45q-20 -5 -60 -12l-5 4l-3 10q55 137 156 414h155z" />
    <glyph glyph-name="scedilla" unicode="&#x15f;" horiz-adv-x="653" 
d="M125 -76v96q39 36 78 73q41 43 59 87q-64 18 -129 36q-49 16 -71 48.5t-37 120.5q-14 80 -16 179q173 193 464 276q47 -23 107 -90q-192 -109 -279 -228q242 -108 242 -198q0 -104 -162 -236q-118 -97 -256 -164zM350 88q3 -6 3 -20q0 -64 -185 -351q-32 -18 -61 -45
q-20 -5 -60 -12l-5 4l-3 10q55 137 156 414h155z" />
    <glyph glyph-name="Scaron" unicode="&#x160;" horiz-adv-x="1063" 
d="M98 45l15 29q39 -13 69 -13q148 0 430 189q-268 53 -371 106q-194 100 -194 299q0 234 270 458q259 214 498 214q26 0 42 -44q25 -71 39 -92q38 -58 114 -83l-56 -336l-41 -8l-36 172q-144 -33 -298 -115q-202 -109 -202 -213q0 -63 197 -135q126 -45 253 -90
q34 -20 65.5 -87.5t31.5 -111.5q0 -81 -239 -183q-217 -93 -318 -93q-124 0 -269 137zM639 1622l242 181l55 2l29 20l47 -4q-271 -389 -363 -389q-79 0 -104 47q-2 4 -100 148q-70 103 -70 143q0 33 33 33q36 0 117 -75z" />
    <glyph glyph-name="scaron" unicode="&#x161;" horiz-adv-x="653" 
d="M125 -76v96q39 36 78 73q41 43 59 87q-64 18 -129 36q-49 16 -71 48.5t-37 120.5q-14 80 -16 179q173 193 464 276q47 -23 107 -90q-192 -109 -279 -228q242 -108 242 -198q0 -104 -162 -236q-118 -97 -256 -164zM379 1085l242 181l55 2l29 20l47 -4q-271 -389 -363 -389
q-79 0 -104 47q-2 4 -100 148q-70 103 -70 143q0 33 33 33q36 0 117 -75z" />
    <glyph glyph-name="glyph275" unicode="&#x168;" horiz-adv-x="1204" 
d="M344 1239l26 61q51 9 154 25l7 -2l4 -6q20 -213 20 -217q0 -11 -21 -78q-114 -361 -114 -698q0 -59 8 -111q158 112 319 349q135 199 230 417q11 31 43 86q100 41 158 57l6 -5l2 -19q0 -221 -139 -591q-144 -381 -293 -531q-51 -7 -99 -7q-113 0 -199 19
q-103 23 -215 128.5t-134 206.5q-9 41 -9 119q0 175 19 381q24 258 64 369q12 8 163 47zM1163 1758q-56 -283 -209 -283q-25 0 -128 64q-69 42 -138 85q-69 -61 -127 -147l-54 18l8 19l-38 14q17 36 72 101q52 63 65 94q68 35 129 35q39 0 138 -57q135 -77 144 -81
q21 34 42 67q30 47 50 50q20 20 46 21z" />
    <glyph glyph-name="glyph276" unicode="&#x169;" horiz-adv-x="920" 
d="M336 793q6 28 98 28q7 0 8 -8q-4 -17 -16 -47q-103 -272 -152 -553q145 147 285 352q35 52 44 58q18 13 83 25q57 11 90 11l5 -1l1 -11q0 -62 -10 -187t-10 -188q0 -187 18 -321l-78 -19l-53 68q-63 -4 -65 -4q-46 0 -125 201q-140 -119 -248 -119q-86 0 -148 24
q-24 72 -24 170q0 92 24 240q27 172 62 226q9 5 211 55zM853 1221q-56 -283 -209 -283q-25 0 -128 64q-69 42 -138 85q-69 -61 -127 -147l-54 18l8 19l-38 14q17 36 72 101q52 63 65 94q68 35 129 35q39 0 138 -57q135 -77 144 -81q21 34 42 67q30 47 50 50q20 20 46 21z
" />
    <glyph glyph-name="Ydieresis" unicode="&#x178;" horiz-adv-x="1053" 
d="M526 446q-159 -174 -213 -174q-40 0 -184 146q-20 108 -20 381q0 431 36 542q8 -1 213 -190q0 -236 8 -329q16 -189 72 -318q153 150 383 614q24 62 80 178q6 0 94 -82l-2 -127l70 -77q-52 -360 -266 -700q-173 -276 -482 -580q-72 37 -165 63q193 278 376 653zM842 1499
l-14 -6q-21 0 -34 77q-9 56 -9 97q0 12 14 37q24 4 43 4q53 0 119 -27q10 -48 10 -120q0 -83 -86 -104q-27 11 -43 42zM336 1627l19 40l14 3q11 40 45 88q46 18 76 16l24 -2q56 -47 102 -124q-2 -36 -4 -73q-5 -52 -17 -64l5 -14q-18 -40 -49 -40q-14 0 -71 41
q-16 -10 -37 -15q-31 17 -107 144z" />
    <glyph glyph-name="Zcaron" unicode="&#x17d;" horiz-adv-x="1233" 
d="M1059 887q-363 -254 -668 -565q210 -148 324 -148q80 0 176 28l170 56q15 -5 70.5 -42t64.5 -46q-29 -50 -331 -123q-278 -67 -376 -67q-76 0 -140 24q-99 35 -201 145q-111 118 -111 213q0 126 258 360q253 231 389 243v12q-1 0 -273 29q-223 24 -231 36
q-44 53 -113 159l-1 7q0 21 135 43q223 36 514 15q11 48 31 56q7 3 69 3q22 0 113 -61q295 -44 295 -105q0 -236 -164 -272zM725 1622l242 181l55 2l29 20l47 -4q-271 -389 -363 -389q-79 0 -104 47q-2 4 -100 148q-70 103 -70 143q0 33 33 33q36 0 117 -75z" />
    <glyph glyph-name="zcaron" unicode="&#x17e;" horiz-adv-x="786" 
d="M705 35l-15 -41h-61l-37 -39q-179 30 -348 108q-234 108 -234 238q0 71 187 197q37 25 249 149q-44 2 -100 2q-53 0 -159 -12t-158 -12l-9 1l-2 7q28 99 76 145q28 27 312 27q138 0 153 -17q18 -20 75.5 -156.5t57.5 -160.5q0 -54 -175 -145q-117 -61 -230 -101
q186 -166 418 -190zM444 1085l242 181l55 2l29 20l47 -4q-271 -389 -363 -389q-79 0 -104 47q-2 4 -100 148q-70 103 -70 143q0 33 33 33q36 0 117 -75z" />
    <glyph glyph-name="florin" unicode="&#x192;" horiz-adv-x="1034" 
d="M872 997l-79 111l-66 12q-66 -60 -117 -391h131q24 0 47 -4l11 -12l-4 -21l-29 -12l29 -14q-12 -102 -90 -102q-15 0 -55 4.5t-64 4.5l-34 -196l-48 -290q-43 -213 -111 -331q-92 -157 -233 -157q-35 0 -103 20q-42 64 -80 92l17 39q78 -20 112 -20q81 0 149 366
q35 241 71 482q-70 0 -74 1q-19 6 -42 53q-14 25 -28 73l5 12q8 4 171 6q37 172 100 331q98 246 195 246q47 0 123 -25t118 -53t42 -122q0 -52 -14 -94z" />
    <glyph glyph-name="glyph277" unicode="&#x1a0;" horiz-adv-x="1179" 
d="M512 918q-137 -419 -137 -605q0 -16 2 -49.5t2 -50.5q136 34 313 191q189 167 189 286q0 91 -145 159q-96 45 -224 69zM217 1219q35 4 106 10l48 94q349 -8 483 -60q238 -91 238 -370q0 -148 -76 -362q-84 -233 -205 -385q-144 -179 -297 -179q-146 0 -300 149
q-157 153 -157 308q0 172 172 547q-41 6 -122 16zM892 1032l229 360q34 13 90 -3q51 -15 74 -34l-10 -41l15 -42l-365 -303z" />
    <glyph glyph-name="glyph278" unicode="&#x1a1;" horiz-adv-x="769" 
d="M211 506q-16 -70 -16 -125q0 -98 59 -98q90 0 160 104q-76 70 -203 119zM96 543q-33 31 -33 53q0 44 105 127.5t154 83.5q91 0 212 -71q132 -79 132 -161q0 -84 -118 -281q-103 -172 -183 -257q-31 -34 -98 -56q-61 -20 -113 -20q-109 0 -109 207q0 194 51 375zM443 513
l229 360q34 13 90 -3q51 -15 74 -34l-10 -41l15 -42l-365 -303z" />
    <glyph glyph-name="glyph279" unicode="&#x1af;" horiz-adv-x="1275" 
d="M344 1239l26 61q51 9 154 25l7 -2l4 -6q20 -213 20 -217q0 -11 -21 -78q-114 -361 -114 -698q0 -59 8 -111q158 112 319 349q135 199 230 417q11 31 43 86q100 41 158 57l6 -5l2 -19q0 -221 -139 -591q-144 -381 -293 -531q-51 -7 -99 -7q-113 0 -199 19
q-103 23 -215 128.5t-134 206.5q-9 41 -9 119q0 175 19 381q24 258 64 369q12 8 163 47zM1042 1032l229 360q34 13 90 -3q51 -15 74 -34l-10 -41l15 -42l-365 -303z" />
    <glyph glyph-name="glyph280" unicode="&#x1b0;" horiz-adv-x="951" 
d="M336 793q6 28 98 28q7 0 8 -8q-4 -17 -16 -47q-103 -272 -152 -553q145 147 285 352q35 52 44 58q18 13 83 25q57 11 90 11l5 -1l1 -11q0 -62 -10 -187t-10 -188q0 -187 18 -321l-78 -19l-53 68q-63 -4 -65 -4q-46 0 -125 201q-140 -119 -248 -119q-86 0 -148 24
q-24 72 -24 170q0 92 24 240q27 172 62 226q9 5 211 55zM613 513l229 360q34 13 90 -3q51 -15 74 -34l-10 -41l15 -42l-365 -303z" />
    <glyph glyph-name="circumflex" unicode="&#x2c6;" horiz-adv-x="1024" 
d="M250 903q-6 16 -6 29q0 15 2 26l24 15l11 43q10 39 161 153.5t193 114.5q25 0 92 -87l84 -118l-14 -73q30 -43 30 -60q0 -40 -34 -49l-197 162q-223 -94 -346 -156z" />
    <glyph glyph-name="caron" unicode="&#x2c7;" horiz-adv-x="1024" 
d="M563 1085l242 181l55 2l29 20l47 -4q-271 -389 -363 -389q-79 0 -104 47q-2 4 -100 148q-70 103 -70 143q0 33 33 33q36 0 117 -75z" />
    <glyph glyph-name="breve" unicode="&#x2d8;" horiz-adv-x="1024" 
d="M344 1174l8 55l66 18q42 -145 209 -145q136 0 225 104l94 6q-49 -122 -139 -196q-99 -82 -223 -82q-105 0 -194 51q-104 60 -105 158z" />
    <glyph glyph-name="dotaccent" unicode="&#x2d9;" horiz-adv-x="1024" 
d="M481 1130q0 31 36 56q32 22 65 22q7 0 41 -18q38 -20 47 -23q39 -32 39 -106q0 -52 -57 -83q-47 -26 -103 -26q-32 0 -64 47q-30 44 -30 78q0 37 26 53z" />
    <glyph glyph-name="ring" unicode="&#x2da;" horiz-adv-x="1024" 
d="M354 1107q-12 54 -12 56q0 87 85 163.5t173 76.5q102 0 173 -68t71 -170q0 -104 -75.5 -185t-178.5 -81q-88 0 -155 53t-89 138zM727 1126q0 148 -160 148q-58 0 -108 -31q34 -219 168 -219q44 0 72 29t28 73z" />
    <glyph glyph-name="ogonek" unicode="&#x2db;" horiz-adv-x="1024" 
d="M487 39q-73 -177 -73 -256q0 -80 65 -80q19 0 53 14l31 -4l45 31l27 -8q-34 -61 -98 -121q-77 -72 -131 -72q-50 0 -108 48.5t-58 97.5q0 129 182 350h65z" />
    <glyph glyph-name="tilde" unicode="&#x2dc;" horiz-adv-x="1024" 
d="M924 1221q-56 -283 -209 -283q-25 0 -128 64q-69 42 -138 85q-69 -61 -127 -147l-54 18l8 19l-38 14q17 36 72 101q52 63 65 94q68 35 129 35q39 0 138 -57q135 -77 144 -81q21 34 42 67q30 47 50 50q20 20 46 21z" />
    <glyph glyph-name="hungarumlaut" unicode="&#x2dd;" horiz-adv-x="1024" 
d="M346 918q138 198 170 339q18 1 90 21q6 -1 24 -6q15 -4 23 -4q14 0 41 12q-47 -197 -233 -344zM694 918h-88l-18 10q123 103 246 334l51 6q114 0 114 -39q0 -127 -305 -311z" />
    <glyph glyph-name="Delta" unicode="&#x394;" horiz-adv-x="1427" 
d="M713 1110l-326 -854h653zM563 1473h301l563 -1473h-1427z" />
    <glyph glyph-name="Delta" unicode="&#x2206;" horiz-adv-x="1427" 
d="M713 1110l-326 -854h653zM563 1473h301l563 -1473h-1427z" />
    <glyph glyph-name="Omega" unicode="&#x3a9;" horiz-adv-x="1575" 
d="M1227 256h291v-256h-609v291q258 176 258 514q0 193 -92 309q-101 127 -289 127q-187 0 -288 -127q-92 -117 -92 -309q0 -340 258 -514v-291h-609v256h291q-248 238 -248 563q0 314 187 502t501 188t501.5 -188t187.5 -502q0 -325 -248 -563z" />
    <glyph glyph-name="Omega" unicode="&#x2126;" horiz-adv-x="1575" 
d="M1227 256h291v-256h-609v291q258 176 258 514q0 193 -92 309q-101 127 -289 127q-187 0 -288 -127q-92 -117 -92 -309q0 -340 258 -514v-291h-609v256h291q-248 238 -248 563q0 314 187 502t501 188t501.5 -188t187.5 -502q0 -325 -248 -563z" />
    <glyph glyph-name="pi" unicode="&#x3c0;" horiz-adv-x="1319" 
d="M1354 1092l-39 -224h-176l-154 -868h-287l152 868h-238l-151 -868h-287l152 868h-25q-104 0 -123 -130l-213 -1q30 203 130 281q94 74 304 74h955z" />
    <glyph glyph-name="glyph281" unicode="&#x1ea0;" horiz-adv-x="1090" 
d="M305 567l283 49q0 236 -43 484q-52 -101 -123 -265q-95 -219 -117 -268zM506 1223l-14 90q85 49 260 49l19 -5l15 -23l64 3l17 -2q59 -28 59 -405q0 -49 -6 -137q-6 -96 -7 -136q78 8 84 7l13 -5q2 -10 2 -20q0 -215 -76 -215q-35 -51 -78 -82q-18 -124 -35 -199
l-174 -106l-14 -82q-69 -31 -74 -31q-6 0 -6 2q25 201 25 273q0 82 -3 108q-122 -5 -366 -12q-36 -100 -73 -200q-57 -156 -72 -156l-21 -56l-43 -2q-11 0 -30 4l-11 11q0 52 100 401q-96 115 -96 211l8 15q14 4 150 18q25 101 91 286q69 192 93 285q66 40 199 111z
M149 -282l17 8l100 8l47 60l41 6q72 0 91 -16q11 -9 22 -33q-14 -107 -35 -135q-11 -14 -121 -93q-58 2 -99 -3q-28 27 -74 83l-3 10q0 70 14 105z" />
    <glyph glyph-name="glyph282" unicode="&#x1ea1;" 
d="M293 645q-124 -132 -176 -330l215 187zM397 279q-325 -236 -354 -236q-55 0 -55 127q0 250 274 586q-4 11 -4 18q1 20 47 57q61 50 66 56q10 -3 57 -39q68 29 66 29q34 0 108 -95q54 -71 88 -131q-51 -120 -51 -332q0 -101 35 -327l-3 -6l-9 -2q-139 32 -172 80
q-47 107 -93 215zM119 -282l17 8l100 8l47 60l41 6q72 0 91 -16q11 -9 22 -33q-14 -107 -35 -135q-11 -14 -121 -93q-58 2 -99 -3q-28 27 -74 83l-3 10q0 70 14 105z" />
    <glyph glyph-name="glyph283" unicode="&#x1ea2;" horiz-adv-x="1090" 
d="M305 567l283 49q0 236 -43 484q-52 -101 -123 -265q-95 -219 -117 -268zM506 1223l-14 90q85 49 260 49l19 -5l15 -23l64 3l17 -2q59 -28 59 -405q0 -49 -6 -137q-6 -96 -7 -136q78 8 84 7l13 -5q2 -10 2 -20q0 -215 -76 -215q-35 -51 -78 -82q-18 -124 -35 -199
l-174 -106l-14 -82q-69 -31 -74 -31q-6 0 -6 2q25 201 25 273q0 82 -3 108q-122 -5 -366 -12q-36 -100 -73 -200q-57 -156 -72 -156l-21 -56l-43 -2q-11 0 -30 4l-11 11q0 52 100 401q-96 115 -96 211l8 15q14 4 150 18q25 101 91 286q69 192 93 285q66 40 199 111z
M678 1387q-49 59 -49 104q0 29 41.5 130.5t45.5 145.5h-22l-14 -18q-79 17 -144 75q111 71 209 71l5 -1q3 -1 12 -9q9 1 24 1q48 0 78 -30.5t30 -79.5q0 -46 -84 -213l-19 -2q-59 -120 -113 -174z" />
    <glyph glyph-name="glyph284" unicode="&#x1ea3;" 
d="M293 645q-124 -132 -176 -330l215 187zM397 279q-325 -236 -354 -236q-55 0 -55 127q0 250 274 586q-4 11 -4 18q1 20 47 57q61 50 66 56q10 -3 57 -39q68 29 66 29q34 0 108 -95q54 -71 88 -131q-51 -120 -51 -332q0 -101 35 -327l-3 -6l-9 -2q-139 32 -172 80
q-47 107 -93 215zM459 904q-49 59 -49 104q0 29 41.5 130.5t45.5 145.5h-22l-14 -18q-79 17 -144 75q111 71 209 71l5 -1q3 -1 12 -9q9 1 24 1q48 0 78 -30.5t30 -79.5q0 -46 -84 -213l-19 -2q-59 -120 -113 -174z" />
    <glyph glyph-name="glyph285" unicode="&#x1ea4;" horiz-adv-x="1090" 
d="M305 567l283 49q0 236 -43 484q-52 -101 -123 -265q-95 -219 -117 -268zM506 1223l-14 90q85 49 260 49l19 -5l15 -23l64 3l17 -2q59 -28 59 -405q0 -49 -6 -137q-6 -96 -7 -136q78 8 84 7l13 -5q2 -10 2 -20q0 -215 -76 -215q-35 -51 -78 -82q-18 -124 -35 -199
l-174 -106l-14 -82q-69 -31 -74 -31q-6 0 -6 2q25 201 25 273q0 82 -3 108q-122 -5 -366 -12q-36 -100 -73 -200q-57 -156 -72 -156l-21 -56l-43 -2q-11 0 -30 4l-11 11q0 52 100 401q-96 115 -96 211l8 15q14 4 150 18q25 101 91 286q69 192 93 285q66 40 199 111z
M405 1390q-6 16 -6 29q0 15 2 26l24 15l11 43q10 39 161 153.5t193 114.5q25 0 92 -87l84 -118l-14 -73q30 -43 30 -60q0 -40 -34 -49l-197 162q-223 -94 -346 -156zM429 1789l20 41l51 20l7 35q78 21 286 146q180 108 277 108l17 -8q5 -13 5 -25q0 -33 -38 -65q6 -28 6 -29
q0 -76 -281 -152q-176 -47 -350 -71z" />
    <glyph glyph-name="glyph286" unicode="&#x1ea5;" 
d="M293 645q-124 -132 -176 -330l215 187zM397 279q-325 -236 -354 -236q-55 0 -55 127q0 250 274 586q-4 11 -4 18q1 20 47 57q61 50 66 56q10 -3 57 -39q68 29 66 29q34 0 108 -95q54 -71 88 -131q-51 -120 -51 -332q0 -101 35 -327l-3 -6l-9 -2q-139 32 -172 80
q-47 107 -93 215zM141 903q-6 16 -6 29q0 15 2 26l24 15l11 43q10 39 161 153.5t193 114.5q25 0 92 -87l84 -118l-14 -73q30 -43 30 -60q0 -40 -34 -49l-197 162q-223 -94 -346 -156zM166 1301l20 41l51 20l7 35q78 21 286 146q180 108 277 108l17 -8q5 -13 5 -25
q0 -33 -38 -65q6 -28 6 -29q0 -76 -281 -152q-176 -47 -350 -71z" />
    <glyph glyph-name="glyph287" unicode="&#x1ea6;" horiz-adv-x="1090" 
d="M305 567l283 49q0 236 -43 484q-52 -101 -123 -265q-95 -219 -117 -268zM506 1223l-14 90q85 49 260 49l19 -5l15 -23l64 3l17 -2q59 -28 59 -405q0 -49 -6 -137q-6 -96 -7 -136q78 8 84 7l13 -5q2 -10 2 -20q0 -215 -76 -215q-35 -51 -78 -82q-18 -124 -35 -199
l-174 -106l-14 -82q-69 -31 -74 -31q-6 0 -6 2q25 201 25 273q0 82 -3 108q-122 -5 -366 -12q-36 -100 -73 -200q-57 -156 -72 -156l-21 -56l-43 -2q-11 0 -30 4l-11 11q0 52 100 401q-96 115 -96 211l8 15q14 4 150 18q25 101 91 286q69 192 93 285q66 40 199 111z
M405 1390q-6 16 -6 29q0 15 2 26l24 15l11 43q10 39 161 153.5t193 114.5q25 0 92 -87l84 -118l-14 -73q30 -43 30 -60q0 -40 -34 -49l-197 162q-223 -94 -346 -156zM1007 1790q-123 67 -247 134q-192 111 -192 151q0 15 50 52q42 32 67 44q87 -59 232 -181
q160 -133 231 -185q-20 2 -41 2q-56 0 -100 -17z" />
    <glyph glyph-name="glyph288" unicode="&#x1ea7;" 
d="M293 645q-124 -132 -176 -330l215 187zM397 279q-325 -236 -354 -236q-55 0 -55 127q0 250 274 586q-4 11 -4 18q1 20 47 57q61 50 66 56q10 -3 57 -39q68 29 66 29q34 0 108 -95q54 -71 88 -131q-51 -120 -51 -332q0 -101 35 -327l-3 -6l-9 -2q-139 32 -172 80
q-47 107 -93 215zM141 903q-6 16 -6 29q0 15 2 26l24 15l11 43q10 39 161 153.5t193 114.5q25 0 92 -87l84 -118l-14 -73q30 -43 30 -60q0 -40 -34 -49l-197 162q-223 -94 -346 -156zM743 1303q-123 67 -247 134q-192 111 -192 151q0 15 50 52q42 32 67 44q87 -59 232 -181
q160 -133 231 -185q-20 2 -41 2q-56 0 -100 -17z" />
    <glyph glyph-name="glyph289" unicode="&#x1ea8;" horiz-adv-x="1090" 
d="M305 567l283 49q0 236 -43 484q-52 -101 -123 -265q-95 -219 -117 -268zM506 1223l-14 90q85 49 260 49l19 -5l15 -23l64 3l17 -2q59 -28 59 -405q0 -49 -6 -137q-6 -96 -7 -136q78 8 84 7l13 -5q2 -10 2 -20q0 -215 -76 -215q-35 -51 -78 -82q-18 -124 -35 -199
l-174 -106l-14 -82q-69 -31 -74 -31q-6 0 -6 2q25 201 25 273q0 82 -3 108q-122 -5 -366 -12q-36 -100 -73 -200q-57 -156 -72 -156l-21 -56l-43 -2q-11 0 -30 4l-11 11q0 52 100 401q-96 115 -96 211l8 15q14 4 150 18q25 101 91 286q69 192 93 285q66 40 199 111z
M405 1390q-6 16 -6 29q0 15 2 26l24 15l11 43q10 39 161 153.5t193 114.5q25 0 92 -87l84 -118l-14 -73q30 -43 30 -60q0 -40 -34 -49l-197 162q-223 -94 -346 -156zM949 1701q-49 59 -49 104q0 29 41.5 130.5t45.5 145.5h-22l-14 -18q-79 17 -144 75q111 71 209 71l5 -1
q3 -1 12 -9q9 1 24 1q48 0 78 -30.5t30 -79.5q0 -46 -84 -213l-19 -2q-59 -120 -113 -174z" />
    <glyph glyph-name="glyph290" unicode="&#x1ea9;" 
d="M293 645q-124 -132 -176 -330l215 187zM397 279q-325 -236 -354 -236q-55 0 -55 127q0 250 274 586q-4 11 -4 18q1 20 47 57q61 50 66 56q10 -3 57 -39q68 29 66 29q34 0 108 -95q54 -71 88 -131q-51 -120 -51 -332q0 -101 35 -327l-3 -6l-9 -2q-139 32 -172 80
q-47 107 -93 215zM141 903q-6 16 -6 29q0 15 2 26l24 15l11 43q10 39 161 153.5t193 114.5q25 0 92 -87l84 -118l-14 -73q30 -43 30 -60q0 -40 -34 -49l-197 162q-223 -94 -346 -156zM685 1214q-49 59 -49 104q0 29 41.5 130.5t45.5 145.5h-22l-14 -18q-79 17 -144 75
q111 71 209 71l5 -1q3 -1 12 -9q9 1 24 1q48 0 78 -30.5t30 -79.5q0 -46 -84 -213l-19 -2q-59 -120 -113 -174z" />
    <glyph glyph-name="glyph291" unicode="&#x1eaa;" horiz-adv-x="1090" 
d="M305 567l283 49q0 236 -43 484q-52 -101 -123 -265q-95 -219 -117 -268zM506 1223l-14 90q85 49 260 49l19 -5l15 -23l64 3l17 -2q59 -28 59 -405q0 -49 -6 -137q-6 -96 -7 -136q78 8 84 7l13 -5q2 -10 2 -20q0 -215 -76 -215q-35 -51 -78 -82q-18 -124 -35 -199
l-174 -106l-14 -82q-69 -31 -74 -31q-6 0 -6 2q25 201 25 273q0 82 -3 108q-122 -5 -366 -12q-36 -100 -73 -200q-57 -156 -72 -156l-21 -56l-43 -2q-11 0 -30 4l-11 11q0 52 100 401q-96 115 -96 211l8 15q14 4 150 18q25 101 91 286q69 192 93 285q66 40 199 111z
M405 1390q-6 16 -6 29q0 15 2 26l24 15l11 43q10 39 161 153.5t193 114.5q25 0 92 -87l84 -118l-14 -73q30 -43 30 -60q0 -40 -34 -49l-197 162q-223 -94 -346 -156zM1218 2104q-56 -283 -209 -283q-25 0 -128 64q-69 42 -138 85q-69 -61 -127 -147l-54 18l8 19l-38 14
q17 36 72 101q52 63 65 94q68 35 129 35q39 0 138 -57q135 -77 144 -81q21 34 42 67q30 47 50 50q20 20 46 21z" />
    <glyph glyph-name="glyph292" unicode="&#x1eab;" 
d="M293 645q-124 -132 -176 -330l215 187zM397 279q-325 -236 -354 -236q-55 0 -55 127q0 250 274 586q-4 11 -4 18q1 20 47 57q61 50 66 56q10 -3 57 -39q68 29 66 29q34 0 108 -95q54 -71 88 -131q-51 -120 -51 -332q0 -101 35 -327l-3 -6l-9 -2q-139 32 -172 80
q-47 107 -93 215zM141 903q-6 16 -6 29q0 15 2 26l24 15l11 43q10 39 161 153.5t193 114.5q25 0 92 -87l84 -118l-14 -73q30 -43 30 -60q0 -40 -34 -49l-197 162q-223 -94 -346 -156zM955 1617q-56 -283 -209 -283q-25 0 -128 64q-69 42 -138 85q-69 -61 -127 -147l-54 18
l8 19l-38 14q17 36 72 101q52 63 65 94q68 35 129 35q39 0 138 -57q135 -77 144 -81q21 34 42 67q30 47 50 50q20 20 46 21z" />
    <glyph glyph-name="glyph293" unicode="&#x1eac;" horiz-adv-x="1090" 
d="M305 567l283 49q0 236 -43 484q-52 -101 -123 -265q-95 -219 -117 -268zM506 1223l-14 90q85 49 260 49l19 -5l15 -23l64 3l17 -2q59 -28 59 -405q0 -49 -6 -137q-6 -96 -7 -136q78 8 84 7l13 -5q2 -10 2 -20q0 -215 -76 -215q-35 -51 -78 -82q-18 -124 -35 -199
l-174 -106l-14 -82q-69 -31 -74 -31q-6 0 -6 2q25 201 25 273q0 82 -3 108q-122 -5 -366 -12q-36 -100 -73 -200q-57 -156 -72 -156l-21 -56l-43 -2q-11 0 -30 4l-11 11q0 52 100 401q-96 115 -96 211l8 15q14 4 150 18q25 101 91 286q69 192 93 285q66 40 199 111z
M405 1390q-6 16 -6 29q0 15 2 26l24 15l11 43q10 39 161 153.5t193 114.5q25 0 92 -87l84 -118l-14 -73q30 -43 30 -60q0 -40 -34 -49l-197 162q-223 -94 -346 -156zM149 -282l17 8l100 8l47 60l41 6q72 0 91 -16q11 -9 22 -33q-14 -107 -35 -135q-11 -14 -121 -93
q-58 2 -99 -3q-28 27 -74 83l-3 10q0 70 14 105z" />
    <glyph glyph-name="glyph294" unicode="&#x1ead;" 
d="M293 645q-124 -132 -176 -330l215 187zM397 279q-325 -236 -354 -236q-55 0 -55 127q0 250 274 586q-4 11 -4 18q1 20 47 57q61 50 66 56q10 -3 57 -39q68 29 66 29q34 0 108 -95q54 -71 88 -131q-51 -120 -51 -332q0 -101 35 -327l-3 -6l-9 -2q-139 32 -172 80
q-47 107 -93 215zM141 903q-6 16 -6 29q0 15 2 26l24 15l11 43q10 39 161 153.5t193 114.5q25 0 92 -87l84 -118l-14 -73q30 -43 30 -60q0 -40 -34 -49l-197 162q-223 -94 -346 -156zM119 -282l17 8l100 8l47 60l41 6q72 0 91 -16q11 -9 22 -33q-14 -107 -35 -135
q-11 -14 -121 -93q-58 2 -99 -3q-28 27 -74 83l-3 10q0 70 14 105z" />
    <glyph glyph-name="glyph295" unicode="&#x1eae;" horiz-adv-x="1090" 
d="M305 567l283 49q0 236 -43 484q-52 -101 -123 -265q-95 -219 -117 -268zM506 1223l-14 90q85 49 260 49l19 -5l15 -23l64 3l17 -2q59 -28 59 -405q0 -49 -6 -137q-6 -96 -7 -136q78 8 84 7l13 -5q2 -10 2 -20q0 -215 -76 -215q-35 -51 -78 -82q-18 -124 -35 -199
l-174 -106l-14 -82q-69 -31 -74 -31q-6 0 -6 2q25 201 25 273q0 82 -3 108q-122 -5 -366 -12q-36 -100 -73 -200q-57 -156 -72 -156l-21 -56l-43 -2q-11 0 -30 4l-11 11q0 52 100 401q-96 115 -96 211l8 15q14 4 150 18q25 101 91 286q69 192 93 285q66 40 199 111z
M444 1670l8 55l66 18q42 -145 209 -145q136 0 225 104l94 6q-49 -122 -139 -196q-99 -82 -223 -82q-105 0 -194 51q-104 60 -105 158zM562 1777l20 41l51 20l7 35q78 21 286 146q180 108 277 108l17 -8q5 -13 5 -25q0 -33 -38 -65q6 -28 6 -29q0 -76 -281 -152
q-176 -47 -350 -71z" />
    <glyph glyph-name="glyph296" unicode="&#x1eaf;" 
d="M293 645q-124 -132 -176 -330l215 187zM397 279q-325 -236 -354 -236q-55 0 -55 127q0 250 274 586q-4 11 -4 18q1 20 47 57q61 50 66 56q10 -3 57 -39q68 29 66 29q34 0 108 -95q54 -71 88 -131q-51 -120 -51 -332q0 -101 35 -327l-3 -6l-9 -2q-139 32 -172 80
q-47 107 -93 215zM228 1194l8 55l66 18q42 -145 209 -145q136 0 225 104l94 6q-49 -122 -139 -196q-99 -82 -223 -82q-105 0 -194 51q-104 60 -105 158zM346 1301l20 41l51 20l7 35q78 21 286 146q180 108 277 108l17 -8q5 -13 5 -25q0 -33 -38 -65q6 -28 6 -29
q0 -76 -281 -152q-176 -47 -350 -71z" />
    <glyph glyph-name="glyph297" unicode="&#x1eb0;" horiz-adv-x="1090" 
d="M305 567l283 49q0 236 -43 484q-52 -101 -123 -265q-95 -219 -117 -268zM506 1223l-14 90q85 49 260 49l19 -5l15 -23l64 3l17 -2q59 -28 59 -405q0 -49 -6 -137q-6 -96 -7 -136q78 8 84 7l13 -5q2 -10 2 -20q0 -215 -76 -215q-35 -51 -78 -82q-18 -124 -35 -199
l-174 -106l-14 -82q-69 -31 -74 -31q-6 0 -6 2q25 201 25 273q0 82 -3 108q-122 -5 -366 -12q-36 -100 -73 -200q-57 -156 -72 -156l-21 -56l-43 -2q-11 0 -30 4l-11 11q0 52 100 401q-96 115 -96 211l8 15q14 4 150 18q25 101 91 286q69 192 93 285q66 40 199 111z
M444 1670l8 55l66 18q42 -145 209 -145q136 0 225 104l94 6q-49 -122 -139 -196q-99 -82 -223 -82q-105 0 -194 51q-104 60 -105 158zM798 1778q-123 67 -247 134q-192 111 -192 151q0 15 50 52q42 32 67 44q87 -59 232 -181q160 -133 231 -185q-20 2 -41 2q-56 0 -100 -17z
" />
    <glyph glyph-name="glyph298" unicode="&#x1eb1;" 
d="M293 645q-124 -132 -176 -330l215 187zM397 279q-325 -236 -354 -236q-55 0 -55 127q0 250 274 586q-4 11 -4 18q1 20 47 57q61 50 66 56q10 -3 57 -39q68 29 66 29q34 0 108 -95q54 -71 88 -131q-51 -120 -51 -332q0 -101 35 -327l-3 -6l-9 -2q-139 32 -172 80
q-47 107 -93 215zM228 1194l8 55l66 18q42 -145 209 -145q136 0 225 104l94 6q-49 -122 -139 -196q-99 -82 -223 -82q-105 0 -194 51q-104 60 -105 158zM583 1303q-123 67 -247 134q-192 111 -192 151q0 15 50 52q42 32 67 44q87 -59 232 -181q160 -133 231 -185
q-20 2 -41 2q-56 0 -100 -17z" />
    <glyph glyph-name="glyph299" unicode="&#x1eb2;" horiz-adv-x="1090" 
d="M305 567l283 49q0 236 -43 484q-52 -101 -123 -265q-95 -219 -117 -268zM506 1223l-14 90q85 49 260 49l19 -5l15 -23l64 3l17 -2q59 -28 59 -405q0 -49 -6 -137q-6 -96 -7 -136q78 8 84 7l13 -5q2 -10 2 -20q0 -215 -76 -215q-35 -51 -78 -82q-18 -124 -35 -199
l-174 -106l-14 -82q-69 -31 -74 -31q-6 0 -6 2q25 201 25 273q0 82 -3 108q-122 -5 -366 -12q-36 -100 -73 -200q-57 -156 -72 -156l-21 -56l-43 -2q-11 0 -30 4l-11 11q0 52 100 401q-96 115 -96 211l8 15q14 4 150 18q25 101 91 286q69 192 93 285q66 40 199 111z
M444 1670l8 55l66 18q42 -145 209 -145q136 0 225 104l94 6q-49 -122 -139 -196q-99 -82 -223 -82q-105 0 -194 51q-104 60 -105 158zM702 1690q-49 59 -49 104q0 29 41.5 130.5t45.5 145.5h-22l-14 -18q-79 17 -144 75q111 71 209 71l5 -1q3 -1 12 -9q9 1 24 1
q48 0 78 -30.5t30 -79.5q0 -46 -84 -213l-19 -2q-59 -120 -113 -174z" />
    <glyph glyph-name="glyph300" unicode="&#x1eb3;" 
d="M293 645q-124 -132 -176 -330l215 187zM397 279q-325 -236 -354 -236q-55 0 -55 127q0 250 274 586q-4 11 -4 18q1 20 47 57q61 50 66 56q10 -3 57 -39q68 29 66 29q34 0 108 -95q54 -71 88 -131q-51 -120 -51 -332q0 -101 35 -327l-3 -6l-9 -2q-139 32 -172 80
q-47 107 -93 215zM228 1194l8 55l66 18q42 -145 209 -145q136 0 225 104l94 6q-49 -122 -139 -196q-99 -82 -223 -82q-105 0 -194 51q-104 60 -105 158zM486 1214q-49 59 -49 104q0 29 41.5 130.5t45.5 145.5h-22l-14 -18q-79 17 -144 75q111 71 209 71l5 -1q3 -1 12 -9
q9 1 24 1q48 0 78 -30.5t30 -79.5q0 -46 -84 -213l-19 -2q-59 -120 -113 -174z" />
    <glyph glyph-name="glyph301" unicode="&#x1eb4;" horiz-adv-x="1090" 
d="M305 567l283 49q0 236 -43 484q-52 -101 -123 -265q-95 -219 -117 -268zM506 1223l-14 90q85 49 260 49l19 -5l15 -23l64 3l17 -2q59 -28 59 -405q0 -49 -6 -137q-6 -96 -7 -136q78 8 84 7l13 -5q2 -10 2 -20q0 -215 -76 -215q-35 -51 -78 -82q-18 -124 -35 -199
l-174 -106l-14 -82q-69 -31 -74 -31q-6 0 -6 2q25 201 25 273q0 82 -3 108q-122 -5 -366 -12q-36 -100 -73 -200q-57 -156 -72 -156l-21 -56l-43 -2q-11 0 -30 4l-11 11q0 52 100 401q-96 115 -96 211l8 15q14 4 150 18q25 101 91 286q69 192 93 285q66 40 199 111z
M444 1670l8 55l66 18q42 -145 209 -145q136 0 225 104l94 6q-49 -122 -139 -196q-99 -82 -223 -82q-105 0 -194 51q-104 60 -105 158zM1171 2093q-56 -283 -209 -283q-25 0 -128 64q-69 42 -138 85q-69 -61 -127 -147l-54 18l8 19l-38 14q17 36 72 101q52 63 65 94
q68 35 129 35q39 0 138 -57q135 -77 144 -81q21 34 42 67q30 47 50 50q20 20 46 21z" />
    <glyph glyph-name="glyph302" unicode="&#x1eb5;" 
d="M293 645q-124 -132 -176 -330l215 187zM397 279q-325 -236 -354 -236q-55 0 -55 127q0 250 274 586q-4 11 -4 18q1 20 47 57q61 50 66 56q10 -3 57 -39q68 29 66 29q34 0 108 -95q54 -71 88 -131q-51 -120 -51 -332q0 -101 35 -327l-3 -6l-9 -2q-139 32 -172 80
q-47 107 -93 215zM228 1194l8 55l66 18q42 -145 209 -145q136 0 225 104l94 6q-49 -122 -139 -196q-99 -82 -223 -82q-105 0 -194 51q-104 60 -105 158zM955 1617q-56 -283 -209 -283q-25 0 -128 64q-69 42 -138 85q-69 -61 -127 -147l-54 18l8 19l-38 14q17 36 72 101
q52 63 65 94q68 35 129 35q39 0 138 -57q135 -77 144 -81q21 34 42 67q30 47 50 50q20 20 46 21z" />
    <glyph glyph-name="glyph303" unicode="&#x1eb6;" horiz-adv-x="1090" 
d="M305 567l283 49q0 236 -43 484q-52 -101 -123 -265q-95 -219 -117 -268zM506 1223l-14 90q85 49 260 49l19 -5l15 -23l64 3l17 -2q59 -28 59 -405q0 -49 -6 -137q-6 -96 -7 -136q78 8 84 7l13 -5q2 -10 2 -20q0 -215 -76 -215q-35 -51 -78 -82q-18 -124 -35 -199
l-174 -106l-14 -82q-69 -31 -74 -31q-6 0 -6 2q25 201 25 273q0 82 -3 108q-122 -5 -366 -12q-36 -100 -73 -200q-57 -156 -72 -156l-21 -56l-43 -2q-11 0 -30 4l-11 11q0 52 100 401q-96 115 -96 211l8 15q14 4 150 18q25 101 91 286q69 192 93 285q66 40 199 111z
M444 1670l8 55l66 18q42 -145 209 -145q136 0 225 104l94 6q-49 -122 -139 -196q-99 -82 -223 -82q-105 0 -194 51q-104 60 -105 158zM149 -282l17 8l100 8l47 60l41 6q72 0 91 -16q11 -9 22 -33q-14 -107 -35 -135q-11 -14 -121 -93q-58 2 -99 -3q-28 27 -74 83l-3 10
q0 70 14 105z" />
    <glyph glyph-name="glyph304" unicode="&#x1eb7;" 
d="M293 645q-124 -132 -176 -330l215 187zM397 279q-325 -236 -354 -236q-55 0 -55 127q0 250 274 586q-4 11 -4 18q1 20 47 57q61 50 66 56q10 -3 57 -39q68 29 66 29q34 0 108 -95q54 -71 88 -131q-51 -120 -51 -332q0 -101 35 -327l-3 -6l-9 -2q-139 32 -172 80
q-47 107 -93 215zM228 1194l8 55l66 18q42 -145 209 -145q136 0 225 104l94 6q-49 -122 -139 -196q-99 -82 -223 -82q-105 0 -194 51q-104 60 -105 158zM119 -282l17 8l100 8l47 60l41 6q72 0 91 -16q11 -9 22 -33q-14 -107 -35 -135q-11 -14 -121 -93q-58 2 -99 -3
q-28 27 -74 83l-3 10q0 70 14 105z" />
    <glyph glyph-name="glyph305" unicode="&#x1eb8;" horiz-adv-x="1063" 
d="M858 268q-88 -84 -129 -196q-259 -105 -369 -105q-147 0 -206 135l-29 -34h-35q-27 0 -27 206q0 501 205 957q200 98 484 98q257 0 276 -31q12 -20 12 -81q0 -17 -69 -175q-243 -25 -398 -67q-101 -146 -153 -240q81 4 162 4q79 0 201 -20q163 -27 163 -66q0 -9 -35 -129
q-366 -72 -602 -231q22 -111 178 -111q160 0 355 107zM189 -282l17 8l100 8l47 60l41 6q72 0 91 -16q11 -9 22 -33q-14 -107 -35 -135q-11 -14 -121 -93q-58 2 -99 -3q-28 27 -74 83l-3 10q0 70 14 105z" />
    <glyph glyph-name="glyph306" unicode="&#x1eb9;" horiz-adv-x="702" 
d="M274 354q118 153 168 244q-130 -10 -168 -244zM-20 180v25q0 308 194 516q45 47 62 47q43 0 170.5 -36.5t160.5 -59.5q14 -31 45 -90q-144 -185 -329 -400l39 -110q61 19 270 96l10 -8q2 -14 2 -29q0 -40 -8 -78q-132 -116 -197 -116q-107 0 -234 77q-119 72 -185 166z
M99 -282l17 8l100 8l47 60l41 6q72 0 91 -16q11 -9 22 -33q-14 -107 -35 -135q-11 -14 -121 -93q-58 2 -99 -3q-28 27 -74 83l-3 10q0 70 14 105z" />
    <glyph glyph-name="glyph307" unicode="&#x1eba;" horiz-adv-x="1063" 
d="M858 268q-88 -84 -129 -196q-259 -105 -369 -105q-147 0 -206 135l-29 -34h-35q-27 0 -27 206q0 501 205 957q200 98 484 98q257 0 276 -31q12 -20 12 -81q0 -17 -69 -175q-243 -25 -398 -67q-101 -146 -153 -240q81 4 162 4q79 0 201 -20q163 -27 163 -66q0 -9 -35 -129
q-366 -72 -602 -231q22 -111 178 -111q160 0 355 107zM678 1387q-49 59 -49 104q0 29 41.5 130.5t45.5 145.5h-22l-14 -18q-79 17 -144 75q111 71 209 71l5 -1q3 -1 12 -9q9 1 24 1q48 0 78 -30.5t30 -79.5q0 -46 -84 -213l-19 -2q-59 -120 -113 -174z" />
    <glyph glyph-name="glyph308" unicode="&#x1ebb;" horiz-adv-x="702" 
d="M274 354q118 153 168 244q-130 -10 -168 -244zM-20 180v25q0 308 194 516q45 47 62 47q43 0 170.5 -36.5t160.5 -59.5q14 -31 45 -90q-144 -185 -329 -400l39 -110q61 19 270 96l10 -8q2 -14 2 -29q0 -40 -8 -78q-132 -116 -197 -116q-107 0 -234 77q-119 72 -185 166z
M349 904q-49 59 -49 104q0 29 41.5 130.5t45.5 145.5h-22l-14 -18q-79 17 -144 75q111 71 209 71l5 -1q3 -1 12 -9q9 1 24 1q48 0 78 -30.5t30 -79.5q0 -46 -84 -213l-19 -2q-59 -120 -113 -174z" />
    <glyph glyph-name="glyph309" unicode="&#x1ebc;" horiz-adv-x="1063" 
d="M858 268q-88 -84 -129 -196q-259 -105 -369 -105q-147 0 -206 135l-29 -34h-35q-27 0 -27 206q0 501 205 957q200 98 484 98q257 0 276 -31q12 -20 12 -81q0 -17 -69 -175q-243 -25 -398 -67q-101 -146 -153 -240q81 4 162 4q79 0 201 -20q163 -27 163 -66q0 -9 -35 -129
q-366 -72 -602 -231q22 -111 178 -111q160 0 355 107zM1033 1758q-56 -283 -209 -283q-25 0 -128 64q-69 42 -138 85q-69 -61 -127 -147l-54 18l8 19l-38 14q17 36 72 101q52 63 65 94q68 35 129 35q39 0 138 -57q135 -77 144 -81q21 34 42 67q30 47 50 50q20 20 46 21z" />
    <glyph glyph-name="glyph310" unicode="&#x1ebd;" horiz-adv-x="702" 
d="M274 354q118 153 168 244q-130 -10 -168 -244zM-20 180v25q0 308 194 516q45 47 62 47q43 0 170.5 -36.5t160.5 -59.5q14 -31 45 -90q-144 -185 -329 -400l39 -110q61 19 270 96l10 -8q2 -14 2 -29q0 -40 -8 -78q-132 -116 -197 -116q-107 0 -234 77q-119 72 -185 166z
M753 1221q-56 -283 -209 -283q-25 0 -128 64q-69 42 -138 85q-69 -61 -127 -147l-54 18l8 19l-38 14q17 36 72 101q52 63 65 94q68 35 129 35q39 0 138 -57q135 -77 144 -81q21 34 42 67q30 47 50 50q20 20 46 21z" />
    <glyph glyph-name="glyph311" unicode="&#x1ebe;" horiz-adv-x="1063" 
d="M858 268q-88 -84 -129 -196q-259 -105 -369 -105q-147 0 -206 135l-29 -34h-35q-27 0 -27 206q0 501 205 957q200 98 484 98q257 0 276 -31q12 -20 12 -81q0 -17 -69 -175q-243 -25 -398 -67q-101 -146 -153 -240q81 4 162 4q79 0 201 -20q163 -27 163 -66q0 -9 -35 -129
q-366 -72 -602 -231q22 -111 178 -111q160 0 355 107zM395 1390q-6 16 -6 29q0 15 2 26l24 15l11 43q10 39 161 153.5t193 114.5q25 0 92 -87l84 -118l-14 -73q30 -43 30 -60q0 -40 -34 -49l-197 162q-223 -94 -346 -156zM419 1789l20 41l51 20l7 35q78 21 286 146
q180 108 277 108l17 -8q5 -13 5 -25q0 -33 -38 -65q6 -28 6 -29q0 -76 -281 -152q-176 -47 -350 -71z" />
    <glyph glyph-name="glyph312" unicode="&#x1ebf;" horiz-adv-x="702" 
d="M274 354q118 153 168 244q-130 -10 -168 -244zM-20 180v25q0 308 194 516q45 47 62 47q43 0 170.5 -36.5t160.5 -59.5q14 -31 45 -90q-144 -185 -329 -400l39 -110q61 19 270 96l10 -8q2 -14 2 -29q0 -40 -8 -78q-132 -116 -197 -116q-107 0 -234 77q-119 72 -185 166z
M80 903q-6 16 -6 29q0 15 2 26l24 15l11 43q10 39 161 153.5t193 114.5q25 0 92 -87l84 -118l-14 -73q30 -43 30 -60q0 -40 -34 -49l-197 162q-223 -94 -346 -156zM105 1301l20 41l51 20l7 35q78 21 286 146q180 108 277 108l17 -8q5 -13 5 -25q0 -33 -38 -65q6 -28 6 -29
q0 -76 -281 -152q-176 -47 -350 -71z" />
    <glyph glyph-name="glyph313" unicode="&#x1ec0;" horiz-adv-x="1063" 
d="M858 268q-88 -84 -129 -196q-259 -105 -369 -105q-147 0 -206 135l-29 -34h-35q-27 0 -27 206q0 501 205 957q200 98 484 98q257 0 276 -31q12 -20 12 -81q0 -17 -69 -175q-243 -25 -398 -67q-101 -146 -153 -240q81 4 162 4q79 0 201 -20q163 -27 163 -66q0 -9 -35 -129
q-366 -72 -602 -231q22 -111 178 -111q160 0 355 107zM395 1390q-6 16 -6 29q0 15 2 26l24 15l11 43q10 39 161 153.5t193 114.5q25 0 92 -87l84 -118l-14 -73q30 -43 30 -60q0 -40 -34 -49l-197 162q-223 -94 -346 -156zM997 1790q-123 67 -247 134q-192 111 -192 151
q0 15 50 52q42 32 67 44q87 -59 232 -181q160 -133 231 -185q-20 2 -41 2q-56 0 -100 -17z" />
    <glyph glyph-name="glyph314" unicode="&#x1ec1;" horiz-adv-x="702" 
d="M274 354q118 153 168 244q-130 -10 -168 -244zM-20 180v25q0 308 194 516q45 47 62 47q43 0 170.5 -36.5t160.5 -59.5q14 -31 45 -90q-144 -185 -329 -400l39 -110q61 19 270 96l10 -8q2 -14 2 -29q0 -40 -8 -78q-132 -116 -197 -116q-107 0 -234 77q-119 72 -185 166z
M80 903q-6 16 -6 29q0 15 2 26l24 15l11 43q10 39 161 153.5t193 114.5q25 0 92 -87l84 -118l-14 -73q30 -43 30 -60q0 -40 -34 -49l-197 162q-223 -94 -346 -156zM682 1303q-123 67 -247 134q-192 111 -192 151q0 15 50 52q42 32 67 44q87 -59 232 -181q160 -133 231 -185
q-20 2 -41 2q-56 0 -100 -17z" />
    <glyph glyph-name="glyph315" unicode="&#x1ec2;" horiz-adv-x="1063" 
d="M858 268q-88 -84 -129 -196q-259 -105 -369 -105q-147 0 -206 135l-29 -34h-35q-27 0 -27 206q0 501 205 957q200 98 484 98q257 0 276 -31q12 -20 12 -81q0 -17 -69 -175q-243 -25 -398 -67q-101 -146 -153 -240q81 4 162 4q79 0 201 -20q163 -27 163 -66q0 -9 -35 -129
q-366 -72 -602 -231q22 -111 178 -111q160 0 355 107zM395 1390q-6 16 -6 29q0 15 2 26l24 15l11 43q10 39 161 153.5t193 114.5q25 0 92 -87l84 -118l-14 -73q30 -43 30 -60q0 -40 -34 -49l-197 162q-223 -94 -346 -156zM939 1701q-49 59 -49 104q0 29 41.5 130.5
t45.5 145.5h-22l-14 -18q-79 17 -144 75q111 71 209 71l5 -1q3 -1 12 -9q9 1 24 1q48 0 78 -30.5t30 -79.5q0 -46 -84 -213l-19 -2q-59 -120 -113 -174z" />
    <glyph glyph-name="glyph316" unicode="&#x1ec3;" horiz-adv-x="702" 
d="M274 354q118 153 168 244q-130 -10 -168 -244zM-20 180v25q0 308 194 516q45 47 62 47q43 0 170.5 -36.5t160.5 -59.5q14 -31 45 -90q-144 -185 -329 -400l39 -110q61 19 270 96l10 -8q2 -14 2 -29q0 -40 -8 -78q-132 -116 -197 -116q-107 0 -234 77q-119 72 -185 166z
M80 903q-6 16 -6 29q0 15 2 26l24 15l11 43q10 39 161 153.5t193 114.5q25 0 92 -87l84 -118l-14 -73q30 -43 30 -60q0 -40 -34 -49l-197 162q-223 -94 -346 -156zM624 1214q-49 59 -49 104q0 29 41.5 130.5t45.5 145.5h-22l-14 -18q-79 17 -144 75q111 71 209 71l5 -1
q3 -1 12 -9q9 1 24 1q48 0 78 -30.5t30 -79.5q0 -46 -84 -213l-19 -2q-59 -120 -113 -174z" />
    <glyph glyph-name="glyph317" unicode="&#x1ec4;" horiz-adv-x="1063" 
d="M858 268q-88 -84 -129 -196q-259 -105 -369 -105q-147 0 -206 135l-29 -34h-35q-27 0 -27 206q0 501 205 957q200 98 484 98q257 0 276 -31q12 -20 12 -81q0 -17 -69 -175q-243 -25 -398 -67q-101 -146 -153 -240q81 4 162 4q79 0 201 -20q163 -27 163 -66q0 -9 -35 -129
q-366 -72 -602 -231q22 -111 178 -111q160 0 355 107zM395 1390q-6 16 -6 29q0 15 2 26l24 15l11 43q10 39 161 153.5t193 114.5q25 0 92 -87l84 -118l-14 -73q30 -43 30 -60q0 -40 -34 -49l-197 162q-223 -94 -346 -156zM1208 2104q-56 -283 -209 -283q-25 0 -128 64
q-69 42 -138 85q-69 -61 -127 -147l-54 18l8 19l-38 14q17 36 72 101q52 63 65 94q68 35 129 35q39 0 138 -57q135 -77 144 -81q21 34 42 67q30 47 50 50q20 20 46 21z" />
    <glyph glyph-name="glyph318" unicode="&#x1ec5;" horiz-adv-x="702" 
d="M274 354q118 153 168 244q-130 -10 -168 -244zM-20 180v25q0 308 194 516q45 47 62 47q43 0 170.5 -36.5t160.5 -59.5q14 -31 45 -90q-144 -185 -329 -400l39 -110q61 19 270 96l10 -8q2 -14 2 -29q0 -40 -8 -78q-132 -116 -197 -116q-107 0 -234 77q-119 72 -185 166z
M80 903q-6 16 -6 29q0 15 2 26l24 15l11 43q10 39 161 153.5t193 114.5q25 0 92 -87l84 -118l-14 -73q30 -43 30 -60q0 -40 -34 -49l-197 162q-223 -94 -346 -156zM894 1617q-56 -283 -209 -283q-25 0 -128 64q-69 42 -138 85q-69 -61 -127 -147l-54 18l8 19l-38 14
q17 36 72 101q52 63 65 94q68 35 129 35q39 0 138 -57q135 -77 144 -81q21 34 42 67q30 47 50 50q20 20 46 21z" />
    <glyph glyph-name="glyph319" unicode="&#x1ec6;" horiz-adv-x="1063" 
d="M858 268q-88 -84 -129 -196q-259 -105 -369 -105q-147 0 -206 135l-29 -34h-35q-27 0 -27 206q0 501 205 957q200 98 484 98q257 0 276 -31q12 -20 12 -81q0 -17 -69 -175q-243 -25 -398 -67q-101 -146 -153 -240q81 4 162 4q79 0 201 -20q163 -27 163 -66q0 -9 -35 -129
q-366 -72 -602 -231q22 -111 178 -111q160 0 355 107zM395 1390q-6 16 -6 29q0 15 2 26l24 15l11 43q10 39 161 153.5t193 114.5q25 0 92 -87l84 -118l-14 -73q30 -43 30 -60q0 -40 -34 -49l-197 162q-223 -94 -346 -156zM189 -282l17 8l100 8l47 60l41 6q72 0 91 -16
q11 -9 22 -33q-14 -107 -35 -135q-11 -14 -121 -93q-58 2 -99 -3q-28 27 -74 83l-3 10q0 70 14 105z" />
    <glyph glyph-name="glyph320" unicode="&#x1ec7;" horiz-adv-x="702" 
d="M274 354q118 153 168 244q-130 -10 -168 -244zM-20 180v25q0 308 194 516q45 47 62 47q43 0 170.5 -36.5t160.5 -59.5q14 -31 45 -90q-144 -185 -329 -400l39 -110q61 19 270 96l10 -8q2 -14 2 -29q0 -40 -8 -78q-132 -116 -197 -116q-107 0 -234 77q-119 72 -185 166z
M80 903q-6 16 -6 29q0 15 2 26l24 15l11 43q10 39 161 153.5t193 114.5q25 0 92 -87l84 -118l-14 -73q30 -43 30 -60q0 -40 -34 -49l-197 162q-223 -94 -346 -156zM99 -282l17 8l100 8l47 60l41 6q72 0 91 -16q11 -9 22 -33q-14 -107 -35 -135q-11 -14 -121 -93
q-58 2 -99 -3q-28 27 -74 83l-3 10q0 70 14 105z" />
    <glyph glyph-name="glyph321" unicode="&#x1ec8;" horiz-adv-x="616" 
d="M88 885q77 216 194 395q24 37 54 45q14 4 70 4q27 0 39 -5q32 -13 90 -136q55 -118 55 -158q0 -13 -106 -368q-107 -358 -185 -713h-14q-88 0 -144 94q-47 80 -47 174q0 124 78 461zM408 1387q-49 59 -49 104q0 29 41.5 130.5t45.5 145.5h-22l-14 -18q-79 17 -144 75
q111 71 209 71l5 -1q3 -1 12 -9q9 1 24 1q48 0 78 -30.5t30 -79.5q0 -46 -84 -213l-19 -2q-59 -120 -113 -174z" />
    <glyph glyph-name="glyph322" unicode="&#x1ec9;" horiz-adv-x="569" 
d="M311 -23q-139 68 -162 100q-14 17 -61 179l-96 6l-2 127q-1 83 163.5 243t252.5 161q53 -49 53 -88q0 -5 -11 -65q-56 -310 -81 -622zM369 904q-49 59 -49 104q0 29 41.5 130.5t45.5 145.5h-22l-14 -18q-79 17 -144 75q111 71 209 71l5 -1q3 -1 12 -9q9 1 24 1
q48 0 78 -30.5t30 -79.5q0 -46 -84 -213l-19 -2q-59 -120 -113 -174z" />
    <glyph glyph-name="glyph323" unicode="&#x1eca;" horiz-adv-x="616" 
d="M88 885q77 216 194 395q24 37 54 45q14 4 70 4q27 0 39 -5q32 -13 90 -136q55 -118 55 -158q0 -13 -106 -368q-107 -358 -185 -713h-14q-88 0 -144 94q-47 80 -47 174q0 124 78 461zM59 -282l17 8l100 8l47 60l41 6q72 0 91 -16q11 -9 22 -33q-14 -107 -35 -135
q-11 -14 -121 -93q-58 2 -99 -3q-28 27 -74 83l-3 10q0 70 14 105z" />
    <glyph glyph-name="glyph324" unicode="&#x1ecb;" horiz-adv-x="569" 
d="M311 -23q-136 60 -159.5 87t-63.5 169l-96 5l-2 118q-1 77 163.5 223.5t252.5 147.5q53 -42 53 -82q0 -5 -11 -60q-57 -286 -81 -569zM448 1126l52 -112q-161 -149 -250 -221l-148 94q140 160 154 170q40 31 192 69zM59 -282l17 8l100 8l47 60l41 6q72 0 91 -16
q11 -9 22 -33q-14 -107 -35 -135q-11 -14 -121 -93q-58 2 -99 -3q-28 27 -74 83l-3 10q0 70 14 105z" />
    <glyph glyph-name="glyph325" unicode="&#x1ecc;" horiz-adv-x="1147" 
d="M512 918q-137 -419 -137 -605q0 -16 2 -49.5t2 -50.5q136 34 313 191q189 167 189 286q0 91 -145 159q-96 45 -224 69zM217 1219q35 4 106 10l48 94q349 -8 483 -60q238 -91 238 -370q0 -148 -76 -362q-84 -233 -205 -385q-144 -179 -297 -179q-146 0 -300 149
q-157 153 -157 308q0 172 172 547q-41 6 -122 16zM279 -282l17 8l100 8l47 60l41 6q72 0 91 -16q11 -9 22 -33q-14 -107 -35 -135q-11 -14 -121 -93q-58 2 -99 -3q-28 27 -74 83l-3 10q0 70 14 105z" />
    <glyph glyph-name="glyph326" unicode="&#x1ecd;" horiz-adv-x="739" 
d="M211 506q-16 -70 -16 -125q0 -98 59 -98q90 0 160 104q-76 70 -203 119zM96 543q-33 31 -33 53q0 44 105 127.5t154 83.5q91 0 212 -71q132 -79 132 -161q0 -84 -118 -281q-103 -172 -183 -257q-31 -34 -98 -56q-61 -20 -113 -20q-109 0 -109 207q0 194 51 375zM29 -282
l17 8l100 8l47 60l41 6q72 0 91 -16q11 -9 22 -33q-14 -107 -35 -135q-11 -14 -121 -93q-58 2 -99 -3q-28 27 -74 83l-3 10q0 70 14 105z" />
    <glyph glyph-name="glyph327" unicode="&#x1ece;" horiz-adv-x="1147" 
d="M512 918q-137 -419 -137 -605q0 -16 2 -49.5t2 -50.5q136 34 313 191q189 167 189 286q0 91 -145 159q-96 45 -224 69zM217 1219q35 4 106 10l48 94q349 -8 483 -60q238 -91 238 -370q0 -148 -76 -362q-84 -233 -205 -385q-144 -179 -297 -179q-146 0 -300 149
q-157 153 -157 308q0 172 172 547q-41 6 -122 16zM658 1387q-49 59 -49 104q0 29 41.5 130.5t45.5 145.5h-22l-14 -18q-79 17 -144 75q111 71 209 71l5 -1q3 -1 12 -9q9 1 24 1q48 0 78 -30.5t30 -79.5q0 -46 -84 -213l-19 -2q-59 -120 -113 -174z" />
    <glyph glyph-name="glyph328" unicode="&#x1ecf;" horiz-adv-x="739" 
d="M211 506q-16 -70 -16 -125q0 -98 59 -98q90 0 160 104q-76 70 -203 119zM96 543q-33 31 -33 53q0 44 105 127.5t154 83.5q91 0 212 -71q132 -79 132 -161q0 -84 -118 -281q-103 -172 -183 -257q-31 -34 -98 -56q-61 -20 -113 -20q-109 0 -109 207q0 194 51 375zM399 904
q-49 59 -49 104q0 29 41.5 130.5t45.5 145.5h-22l-14 -18q-79 17 -144 75q111 71 209 71l5 -1q3 -1 12 -9q9 1 24 1q48 0 78 -30.5t30 -79.5q0 -46 -84 -213l-19 -2q-59 -120 -113 -174z" />
    <glyph glyph-name="glyph329" unicode="&#x1ed0;" horiz-adv-x="1147" 
d="M512 918q-137 -419 -137 -605q0 -16 2 -49.5t2 -50.5q136 34 313 191q189 167 189 286q0 91 -145 159q-96 45 -224 69zM217 1219q35 4 106 10l48 94q349 -8 483 -60q238 -91 238 -370q0 -148 -76 -362q-84 -233 -205 -385q-144 -179 -297 -179q-146 0 -300 149
q-157 153 -157 308q0 172 172 547q-41 6 -122 16zM365 1390q-6 16 -6 29q0 15 2 26l24 15l11 43q10 39 161 153.5t193 114.5q25 0 92 -87l84 -118l-14 -73q30 -43 30 -60q0 -40 -34 -49l-197 162q-223 -94 -346 -156zM389 1789l20 41l51 20l7 35q78 21 286 146
q180 108 277 108l17 -8q5 -13 5 -25q0 -33 -38 -65q6 -28 6 -29q0 -76 -281 -152q-176 -47 -350 -71z" />
    <glyph glyph-name="glyph330" unicode="&#x1ed1;" horiz-adv-x="739" 
d="M211 506q-16 -70 -16 -125q0 -98 59 -98q90 0 160 104q-76 70 -203 119zM96 543q-33 31 -33 53q0 44 105 127.5t154 83.5q91 0 212 -71q132 -79 132 -161q0 -84 -118 -281q-103 -172 -183 -257q-31 -34 -98 -56q-61 -20 -113 -20q-109 0 -109 207q0 194 51 375zM109 903
q-6 16 -6 29q0 15 2 26l24 15l11 43q10 39 161 153.5t193 114.5q25 0 92 -87l84 -118l-14 -73q30 -43 30 -60q0 -40 -34 -49l-197 162q-223 -94 -346 -156zM134 1301l20 41l51 20l7 35q78 21 286 146q180 108 277 108l17 -8q5 -13 5 -25q0 -33 -38 -65q6 -28 6 -29
q0 -76 -281 -152q-176 -47 -350 -71z" />
    <glyph glyph-name="glyph331" unicode="&#x1ed2;" horiz-adv-x="1147" 
d="M512 918q-137 -419 -137 -605q0 -16 2 -49.5t2 -50.5q136 34 313 191q189 167 189 286q0 91 -145 159q-96 45 -224 69zM217 1219q35 4 106 10l48 94q349 -8 483 -60q238 -91 238 -370q0 -148 -76 -362q-84 -233 -205 -385q-144 -179 -297 -179q-146 0 -300 149
q-157 153 -157 308q0 172 172 547q-41 6 -122 16zM365 1390q-6 16 -6 29q0 15 2 26l24 15l11 43q10 39 161 153.5t193 114.5q25 0 92 -87l84 -118l-14 -73q30 -43 30 -60q0 -40 -34 -49l-197 162q-223 -94 -346 -156zM967 1790q-123 67 -247 134q-192 111 -192 151
q0 15 50 52q42 32 67 44q87 -59 232 -181q160 -133 231 -185q-20 2 -41 2q-56 0 -100 -17z" />
    <glyph glyph-name="glyph332" unicode="&#x1ed3;" horiz-adv-x="739" 
d="M211 506q-16 -70 -16 -125q0 -98 59 -98q90 0 160 104q-76 70 -203 119zM96 543q-33 31 -33 53q0 44 105 127.5t154 83.5q91 0 212 -71q132 -79 132 -161q0 -84 -118 -281q-103 -172 -183 -257q-31 -34 -98 -56q-61 -20 -113 -20q-109 0 -109 207q0 194 51 375zM109 903
q-6 16 -6 29q0 15 2 26l24 15l11 43q10 39 161 153.5t193 114.5q25 0 92 -87l84 -118l-14 -73q30 -43 30 -60q0 -40 -34 -49l-197 162q-223 -94 -346 -156zM711 1303q-123 67 -247 134q-192 111 -192 151q0 15 50 52q42 32 67 44q87 -59 232 -181q160 -133 231 -185
q-20 2 -41 2q-56 0 -100 -17z" />
    <glyph glyph-name="glyph333" unicode="&#x1ed4;" horiz-adv-x="1147" 
d="M512 918q-137 -419 -137 -605q0 -16 2 -49.5t2 -50.5q136 34 313 191q189 167 189 286q0 91 -145 159q-96 45 -224 69zM217 1219q35 4 106 10l48 94q349 -8 483 -60q238 -91 238 -370q0 -148 -76 -362q-84 -233 -205 -385q-144 -179 -297 -179q-146 0 -300 149
q-157 153 -157 308q0 172 172 547q-41 6 -122 16zM365 1390q-6 16 -6 29q0 15 2 26l24 15l11 43q10 39 161 153.5t193 114.5q25 0 92 -87l84 -118l-14 -73q30 -43 30 -60q0 -40 -34 -49l-197 162q-223 -94 -346 -156zM909 1701q-49 59 -49 104q0 29 41.5 130.5t45.5 145.5
h-22l-14 -18q-79 17 -144 75q111 71 209 71l5 -1q3 -1 12 -9q9 1 24 1q48 0 78 -30.5t30 -79.5q0 -46 -84 -213l-19 -2q-59 -120 -113 -174z" />
    <glyph glyph-name="glyph334" unicode="&#x1ed5;" horiz-adv-x="739" 
d="M211 506q-16 -70 -16 -125q0 -98 59 -98q90 0 160 104q-76 70 -203 119zM96 543q-33 31 -33 53q0 44 105 127.5t154 83.5q91 0 212 -71q132 -79 132 -161q0 -84 -118 -281q-103 -172 -183 -257q-31 -34 -98 -56q-61 -20 -113 -20q-109 0 -109 207q0 194 51 375zM109 903
q-6 16 -6 29q0 15 2 26l24 15l11 43q10 39 161 153.5t193 114.5q25 0 92 -87l84 -118l-14 -73q30 -43 30 -60q0 -40 -34 -49l-197 162q-223 -94 -346 -156zM653 1214q-49 59 -49 104q0 29 41.5 130.5t45.5 145.5h-22l-14 -18q-79 17 -144 75q111 71 209 71l5 -1q3 -1 12 -9
q9 1 24 1q48 0 78 -30.5t30 -79.5q0 -46 -84 -213l-19 -2q-59 -120 -113 -174z" />
    <glyph glyph-name="glyph335" unicode="&#x1ed6;" horiz-adv-x="1147" 
d="M512 918q-137 -419 -137 -605q0 -16 2 -49.5t2 -50.5q136 34 313 191q189 167 189 286q0 91 -145 159q-96 45 -224 69zM217 1219q35 4 106 10l48 94q349 -8 483 -60q238 -91 238 -370q0 -148 -76 -362q-84 -233 -205 -385q-144 -179 -297 -179q-146 0 -300 149
q-157 153 -157 308q0 172 172 547q-41 6 -122 16zM365 1390q-6 16 -6 29q0 15 2 26l24 15l11 43q10 39 161 153.5t193 114.5q25 0 92 -87l84 -118l-14 -73q30 -43 30 -60q0 -40 -34 -49l-197 162q-223 -94 -346 -156zM1178 2104q-56 -283 -209 -283q-25 0 -128 64
q-69 42 -138 85q-69 -61 -127 -147l-54 18l8 19l-38 14q17 36 72 101q52 63 65 94q68 35 129 35q39 0 138 -57q135 -77 144 -81q21 34 42 67q30 47 50 50q20 20 46 21z" />
    <glyph glyph-name="glyph336" unicode="&#x1ed7;" horiz-adv-x="739" 
d="M211 506q-16 -70 -16 -125q0 -98 59 -98q90 0 160 104q-76 70 -203 119zM96 543q-33 31 -33 53q0 44 105 127.5t154 83.5q91 0 212 -71q132 -79 132 -161q0 -84 -118 -281q-103 -172 -183 -257q-31 -34 -98 -56q-61 -20 -113 -20q-109 0 -109 207q0 194 51 375zM109 903
q-6 16 -6 29q0 15 2 26l24 15l11 43q10 39 161 153.5t193 114.5q25 0 92 -87l84 -118l-14 -73q30 -43 30 -60q0 -40 -34 -49l-197 162q-223 -94 -346 -156zM923 1617q-56 -283 -209 -283q-25 0 -128 64q-69 42 -138 85q-69 -61 -127 -147l-54 18l8 19l-38 14q17 36 72 101
q52 63 65 94q68 35 129 35q39 0 138 -57q135 -77 144 -81q21 34 42 67q30 47 50 50q20 20 46 21z" />
    <glyph glyph-name="glyph337" unicode="&#x1ed8;" horiz-adv-x="1147" 
d="M512 918q-137 -419 -137 -605q0 -16 2 -49.5t2 -50.5q136 34 313 191q189 167 189 286q0 91 -145 159q-96 45 -224 69zM217 1219q35 4 106 10l48 94q349 -8 483 -60q238 -91 238 -370q0 -148 -76 -362q-84 -233 -205 -385q-144 -179 -297 -179q-146 0 -300 149
q-157 153 -157 308q0 172 172 547q-41 6 -122 16zM365 1390q-6 16 -6 29q0 15 2 26l24 15l11 43q10 39 161 153.5t193 114.5q25 0 92 -87l84 -118l-14 -73q30 -43 30 -60q0 -40 -34 -49l-197 162q-223 -94 -346 -156zM279 -282l17 8l100 8l47 60l41 6q72 0 91 -16
q11 -9 22 -33q-14 -107 -35 -135q-11 -14 -121 -93q-58 2 -99 -3q-28 27 -74 83l-3 10q0 70 14 105z" />
    <glyph glyph-name="glyph338" unicode="&#x1ed9;" horiz-adv-x="739" 
d="M211 506q-16 -70 -16 -125q0 -98 59 -98q90 0 160 104q-76 70 -203 119zM96 543q-33 31 -33 53q0 44 105 127.5t154 83.5q91 0 212 -71q132 -79 132 -161q0 -84 -118 -281q-103 -172 -183 -257q-31 -34 -98 -56q-61 -20 -113 -20q-109 0 -109 207q0 194 51 375zM109 903
q-6 16 -6 29q0 15 2 26l24 15l11 43q10 39 161 153.5t193 114.5q25 0 92 -87l84 -118l-14 -73q30 -43 30 -60q0 -40 -34 -49l-197 162q-223 -94 -346 -156zM29 -282l17 8l100 8l47 60l41 6q72 0 91 -16q11 -9 22 -33q-14 -107 -35 -135q-11 -14 -121 -93q-58 2 -99 -3
q-28 27 -74 83l-3 10q0 70 14 105z" />
    <glyph glyph-name="glyph339" unicode="&#x1eda;" horiz-adv-x="1179" 
d="M512 918q-137 -419 -137 -605q0 -16 2 -49.5t2 -50.5q136 34 313 191q189 167 189 286q0 91 -145 159q-96 45 -224 69zM217 1219q35 4 106 10l48 94q349 -8 483 -60q238 -91 238 -370q0 -148 -76 -362q-84 -233 -205 -385q-144 -179 -297 -179q-146 0 -300 149
q-157 153 -157 308q0 172 172 547q-41 6 -122 16zM892 1032l229 360q34 13 90 -3q51 -15 74 -34l-10 -41l15 -42l-365 -303zM406 1459l20 41l51 20l7 35q78 21 286 146q180 108 277 108l17 -8q5 -13 5 -25q0 -33 -38 -65q6 -28 6 -29q0 -76 -281 -152q-176 -47 -350 -71z
" />
    <glyph glyph-name="glyph340" unicode="&#x1edb;" horiz-adv-x="769" 
d="M211 506q-16 -70 -16 -125q0 -98 59 -98q90 0 160 104q-76 70 -203 119zM96 543q-33 31 -33 53q0 44 105 127.5t154 83.5q91 0 212 -71q132 -79 132 -161q0 -84 -118 -281q-103 -172 -183 -257q-31 -34 -98 -56q-61 -20 -113 -20q-109 0 -109 207q0 194 51 375zM443 513
l229 360q34 13 90 -3q51 -15 74 -34l-10 -41l15 -42l-365 -303zM146 922l20 41l51 20l7 35q78 21 286 146q180 108 277 108l17 -8q5 -13 5 -25q0 -33 -38 -65q6 -28 6 -29q0 -76 -281 -152q-176 -47 -350 -71z" />
    <glyph glyph-name="glyph341" unicode="&#x1edc;" horiz-adv-x="1179" 
d="M512 918q-137 -419 -137 -605q0 -16 2 -49.5t2 -50.5q136 34 313 191q189 167 189 286q0 91 -145 159q-96 45 -224 69zM217 1219q35 4 106 10l48 94q349 -8 483 -60q238 -91 238 -370q0 -148 -76 -362q-84 -233 -205 -385q-144 -179 -297 -179q-146 0 -300 149
q-157 153 -157 308q0 172 172 547q-41 6 -122 16zM892 1032l229 360q34 13 90 -3q51 -15 74 -34l-10 -41l15 -42l-365 -303zM789 1444q-123 67 -247 134q-192 111 -192 151q0 15 50 52q42 32 67 44q87 -59 232 -181q160 -133 231 -185q-20 2 -41 2q-56 0 -100 -17z" />
    <glyph glyph-name="glyph342" unicode="&#x1edd;" horiz-adv-x="769" 
d="M211 506q-16 -70 -16 -125q0 -98 59 -98q90 0 160 104q-76 70 -203 119zM96 543q-33 31 -33 53q0 44 105 127.5t154 83.5q91 0 212 -71q132 -79 132 -161q0 -84 -118 -281q-103 -172 -183 -257q-31 -34 -98 -56q-61 -20 -113 -20q-109 0 -109 207q0 194 51 375zM443 513
l229 360q34 13 90 -3q51 -15 74 -34l-10 -41l15 -42l-365 -303zM529 907q-123 67 -247 134q-192 111 -192 151q0 15 50 52q42 32 67 44q87 -59 232 -181q160 -133 231 -185q-20 2 -41 2q-56 0 -100 -17z" />
    <glyph glyph-name="glyph343" unicode="&#x1ede;" horiz-adv-x="1179" 
d="M512 918q-137 -419 -137 -605q0 -16 2 -49.5t2 -50.5q136 34 313 191q189 167 189 286q0 91 -145 159q-96 45 -224 69zM217 1219q35 4 106 10l48 94q349 -8 483 -60q238 -91 238 -370q0 -148 -76 -362q-84 -233 -205 -385q-144 -179 -297 -179q-146 0 -300 149
q-157 153 -157 308q0 172 172 547q-41 6 -122 16zM892 1032l229 360q34 13 90 -3q51 -15 74 -34l-10 -41l15 -42l-365 -303zM658 1387q-49 59 -49 104q0 29 41.5 130.5t45.5 145.5h-22l-14 -18q-79 17 -144 75q111 71 209 71l5 -1q3 -1 12 -9q9 1 24 1q48 0 78 -30.5
t30 -79.5q0 -46 -84 -213l-19 -2q-59 -120 -113 -174z" />
    <glyph glyph-name="glyph344" unicode="&#x1edf;" horiz-adv-x="769" 
d="M211 506q-16 -70 -16 -125q0 -98 59 -98q90 0 160 104q-76 70 -203 119zM96 543q-33 31 -33 53q0 44 105 127.5t154 83.5q91 0 212 -71q132 -79 132 -161q0 -84 -118 -281q-103 -172 -183 -257q-31 -34 -98 -56q-61 -20 -113 -20q-109 0 -109 207q0 194 51 375zM443 513
l229 360q34 13 90 -3q51 -15 74 -34l-10 -41l15 -42l-365 -303zM399 904q-49 59 -49 104q0 29 41.5 130.5t45.5 145.5h-22l-14 -18q-79 17 -144 75q111 71 209 71l5 -1q3 -1 12 -9q9 1 24 1q48 0 78 -30.5t30 -79.5q0 -46 -84 -213l-19 -2q-59 -120 -113 -174z" />
    <glyph glyph-name="glyph345" unicode="&#x1ee0;" horiz-adv-x="1179" 
d="M512 918q-137 -419 -137 -605q0 -16 2 -49.5t2 -50.5q136 34 313 191q189 167 189 286q0 91 -145 159q-96 45 -224 69zM217 1219q35 4 106 10l48 94q349 -8 483 -60q238 -91 238 -370q0 -148 -76 -362q-84 -233 -205 -385q-144 -179 -297 -179q-146 0 -300 149
q-157 153 -157 308q0 172 172 547q-41 6 -122 16zM892 1032l229 360q34 13 90 -3q51 -15 74 -34l-10 -41l15 -42l-365 -303zM1043 1758q-56 -283 -209 -283q-25 0 -128 64q-69 42 -138 85q-69 -61 -127 -147l-54 18l8 19l-38 14q17 36 72 101q52 63 65 94q68 35 129 35
q39 0 138 -57q135 -77 144 -81q21 34 42 67q30 47 50 50q20 20 46 21z" />
    <glyph glyph-name="glyph346" unicode="&#x1ee1;" horiz-adv-x="769" 
d="M211 506q-16 -70 -16 -125q0 -98 59 -98q90 0 160 104q-76 70 -203 119zM96 543q-33 31 -33 53q0 44 105 127.5t154 83.5q91 0 212 -71q132 -79 132 -161q0 -84 -118 -281q-103 -172 -183 -257q-31 -34 -98 -56q-61 -20 -113 -20q-109 0 -109 207q0 194 51 375zM443 513
l229 360q34 13 90 -3q51 -15 74 -34l-10 -41l15 -42l-365 -303zM783 1221q-56 -283 -209 -283q-25 0 -128 64q-69 42 -138 85q-69 -61 -127 -147l-54 18l8 19l-38 14q17 36 72 101q52 63 65 94q68 35 129 35q39 0 138 -57q135 -77 144 -81q21 34 42 67q30 47 50 50
q20 20 46 21z" />
    <glyph glyph-name="glyph347" unicode="&#x1ee2;" horiz-adv-x="1179" 
d="M512 918q-137 -419 -137 -605q0 -16 2 -49.5t2 -50.5q136 34 313 191q189 167 189 286q0 91 -145 159q-96 45 -224 69zM217 1219q35 4 106 10l48 94q349 -8 483 -60q238 -91 238 -370q0 -148 -76 -362q-84 -233 -205 -385q-144 -179 -297 -179q-146 0 -300 149
q-157 153 -157 308q0 172 172 547q-41 6 -122 16zM892 1032l229 360q34 13 90 -3q51 -15 74 -34l-10 -41l15 -42l-365 -303zM279 -282l17 8l100 8l47 60l41 6q72 0 91 -16q11 -9 22 -33q-14 -107 -35 -135q-11 -14 -121 -93q-58 2 -99 -3q-28 27 -74 83l-3 10q0 70 14 105z
" />
    <glyph glyph-name="glyph348" unicode="&#x1ee3;" horiz-adv-x="769" 
d="M211 506q-16 -70 -16 -125q0 -98 59 -98q90 0 160 104q-76 70 -203 119zM96 543q-33 31 -33 53q0 44 105 127.5t154 83.5q91 0 212 -71q132 -79 132 -161q0 -84 -118 -281q-103 -172 -183 -257q-31 -34 -98 -56q-61 -20 -113 -20q-109 0 -109 207q0 194 51 375zM443 513
l229 360q34 13 90 -3q51 -15 74 -34l-10 -41l15 -42l-365 -303zM29 -282l17 8l100 8l47 60l41 6q72 0 91 -16q11 -9 22 -33q-14 -107 -35 -135q-11 -14 -121 -93q-58 2 -99 -3q-28 27 -74 83l-3 10q0 70 14 105z" />
    <glyph glyph-name="glyph349" unicode="&#x1ee4;" horiz-adv-x="1204" 
d="M344 1239l26 61q51 9 154 25l7 -2l4 -6q20 -213 20 -217q0 -11 -21 -78q-114 -361 -114 -698q0 -59 8 -111q158 112 319 349q135 199 230 417q11 31 43 86q100 41 158 57l6 -5l2 -19q0 -221 -139 -591q-144 -381 -293 -531q-51 -7 -99 -7q-113 0 -199 19
q-103 23 -215 128.5t-134 206.5q-9 41 -9 119q0 175 19 381q24 258 64 369q12 8 163 47zM279 -282l17 8l100 8l47 60l41 6q72 0 91 -16q11 -9 22 -33q-14 -107 -35 -135q-11 -14 -121 -93q-58 2 -99 -3q-28 27 -74 83l-3 10q0 70 14 105z" />
    <glyph glyph-name="glyph350" unicode="&#x1ee5;" horiz-adv-x="920" 
d="M336 793q6 28 98 28q7 0 8 -8q-4 -17 -16 -47q-103 -272 -152 -553q145 147 285 352q35 52 44 58q18 13 83 25q57 11 90 11l5 -1l1 -11q0 -62 -10 -187t-10 -188q0 -187 18 -321l-78 -19l-53 68q-63 -4 -65 -4q-46 0 -125 201q-140 -119 -248 -119q-86 0 -148 24
q-24 72 -24 170q0 92 24 240q27 172 62 226q9 5 211 55zM169 -282l17 8l100 8l47 60l41 6q72 0 91 -16q11 -9 22 -33q-14 -107 -35 -135q-11 -14 -121 -93q-58 2 -99 -3q-28 27 -74 83l-3 10q0 70 14 105z" />
    <glyph glyph-name="glyph351" unicode="&#x1ee6;" horiz-adv-x="1204" 
d="M344 1239l26 61q51 9 154 25l7 -2l4 -6q20 -213 20 -217q0 -11 -21 -78q-114 -361 -114 -698q0 -59 8 -111q158 112 319 349q135 199 230 417q11 31 43 86q100 41 158 57l6 -5l2 -19q0 -221 -139 -591q-144 -381 -293 -531q-51 -7 -99 -7q-113 0 -199 19
q-103 23 -215 128.5t-134 206.5q-9 41 -9 119q0 175 19 381q24 258 64 369q12 8 163 47zM768 1387q-49 59 -49 104q0 29 41.5 130.5t45.5 145.5h-22l-14 -18q-79 17 -144 75q111 71 209 71l5 -1q3 -1 12 -9q9 1 24 1q48 0 78 -30.5t30 -79.5q0 -46 -84 -213l-19 -2
q-59 -120 -113 -174z" />
    <glyph glyph-name="glyph352" unicode="&#x1ee7;" horiz-adv-x="920" 
d="M336 793q6 28 98 28q7 0 8 -8q-4 -17 -16 -47q-103 -272 -152 -553q145 147 285 352q35 52 44 58q18 13 83 25q57 11 90 11l5 -1l1 -11q0 -62 -10 -187t-10 -188q0 -187 18 -321l-78 -19l-53 68q-63 -4 -65 -4q-46 0 -125 201q-140 -119 -248 -119q-86 0 -148 24
q-24 72 -24 170q0 92 24 240q27 172 62 226q9 5 211 55zM499 904q-49 59 -49 104q0 29 41.5 130.5t45.5 145.5h-22l-14 -18q-79 17 -144 75q111 71 209 71l5 -1q3 -1 12 -9q9 1 24 1q48 0 78 -30.5t30 -79.5q0 -46 -84 -213l-19 -2q-59 -120 -113 -174z" />
    <glyph glyph-name="glyph353" unicode="&#x1ee8;" horiz-adv-x="1275" 
d="M344 1239l26 61q51 9 154 25l7 -2l4 -6q20 -213 20 -217q0 -11 -21 -78q-114 -361 -114 -698q0 -59 8 -111q158 112 319 349q135 199 230 417q11 31 43 86q100 41 158 57l6 -5l2 -19q0 -221 -139 -591q-144 -381 -293 -531q-51 -7 -99 -7q-113 0 -199 19
q-103 23 -215 128.5t-134 206.5q-9 41 -9 119q0 175 19 381q24 258 64 369q12 8 163 47zM1042 1032l229 360q34 13 90 -3q51 -15 74 -34l-10 -41l15 -42l-365 -303zM527 1459l20 41l51 20l7 35q78 21 286 146q180 108 277 108l17 -8q5 -13 5 -25q0 -33 -38 -65q6 -28 6 -29
q0 -76 -281 -152q-176 -47 -350 -71z" />
    <glyph glyph-name="glyph354" unicode="&#x1ee9;" horiz-adv-x="951" 
d="M336 793q6 28 98 28q7 0 8 -8q-4 -17 -16 -47q-103 -272 -152 -553q145 147 285 352q35 52 44 58q18 13 83 25q57 11 90 11l5 -1l1 -11q0 -62 -10 -187t-10 -188q0 -187 18 -321l-78 -19l-53 68q-63 -4 -65 -4q-46 0 -125 201q-140 -119 -248 -119q-86 0 -148 24
q-24 72 -24 170q0 92 24 240q27 172 62 226q9 5 211 55zM613 513l229 360q34 13 90 -3q51 -15 74 -34l-10 -41l15 -42l-365 -303zM236 922l20 41l51 20l7 35q78 21 286 146q180 108 277 108l17 -8q5 -13 5 -25q0 -33 -38 -65q6 -28 6 -29q0 -76 -281 -152q-176 -47 -350 -71
z" />
    <glyph glyph-name="glyph355" unicode="&#x1eea;" horiz-adv-x="1275" 
d="M344 1239l26 61q51 9 154 25l7 -2l4 -6q20 -213 20 -217q0 -11 -21 -78q-114 -361 -114 -698q0 -59 8 -111q158 112 319 349q135 199 230 417q11 31 43 86q100 41 158 57l6 -5l2 -19q0 -221 -139 -591q-144 -381 -293 -531q-51 -7 -99 -7q-113 0 -199 19
q-103 23 -215 128.5t-134 206.5q-9 41 -9 119q0 175 19 381q24 258 64 369q12 8 163 47zM1042 1032l229 360q34 13 90 -3q51 -15 74 -34l-10 -41l15 -42l-365 -303zM910 1444q-123 67 -247 134q-192 111 -192 151q0 15 50 52q42 32 67 44q87 -59 232 -181q160 -133 231 -185
q-20 2 -41 2q-56 0 -100 -17z" />
    <glyph glyph-name="glyph356" unicode="&#x1eeb;" horiz-adv-x="951" 
d="M336 793q6 28 98 28q7 0 8 -8q-4 -17 -16 -47q-103 -272 -152 -553q145 147 285 352q35 52 44 58q18 13 83 25q57 11 90 11l5 -1l1 -11q0 -62 -10 -187t-10 -188q0 -187 18 -321l-78 -19l-53 68q-63 -4 -65 -4q-46 0 -125 201q-140 -119 -248 -119q-86 0 -148 24
q-24 72 -24 170q0 92 24 240q27 172 62 226q9 5 211 55zM613 513l229 360q34 13 90 -3q51 -15 74 -34l-10 -41l15 -42l-365 -303zM619 907q-123 67 -247 134q-192 111 -192 151q0 15 50 52q42 32 67 44q87 -59 232 -181q160 -133 231 -185q-20 2 -41 2q-56 0 -100 -17z" />
    <glyph glyph-name="glyph357" unicode="&#x1eec;" horiz-adv-x="1275" 
d="M344 1239l26 61q51 9 154 25l7 -2l4 -6q20 -213 20 -217q0 -11 -21 -78q-114 -361 -114 -698q0 -59 8 -111q158 112 319 349q135 199 230 417q11 31 43 86q100 41 158 57l6 -5l2 -19q0 -221 -139 -591q-144 -381 -293 -531q-51 -7 -99 -7q-113 0 -199 19
q-103 23 -215 128.5t-134 206.5q-9 41 -9 119q0 175 19 381q24 258 64 369q12 8 163 47zM1042 1032l229 360q34 13 90 -3q51 -15 74 -34l-10 -41l15 -42l-365 -303zM768 1387q-49 59 -49 104q0 29 41.5 130.5t45.5 145.5h-22l-14 -18q-79 17 -144 75q111 71 209 71l5 -1
q3 -1 12 -9q9 1 24 1q48 0 78 -30.5t30 -79.5q0 -46 -84 -213l-19 -2q-59 -120 -113 -174z" />
    <glyph glyph-name="glyph358" unicode="&#x1eed;" horiz-adv-x="951" 
d="M336 793q6 28 98 28q7 0 8 -8q-4 -17 -16 -47q-103 -272 -152 -553q145 147 285 352q35 52 44 58q18 13 83 25q57 11 90 11l5 -1l1 -11q0 -62 -10 -187t-10 -188q0 -187 18 -321l-78 -19l-53 68q-63 -4 -65 -4q-46 0 -125 201q-140 -119 -248 -119q-86 0 -148 24
q-24 72 -24 170q0 92 24 240q27 172 62 226q9 5 211 55zM613 513l229 360q34 13 90 -3q51 -15 74 -34l-10 -41l15 -42l-365 -303zM499 904q-49 59 -49 104q0 29 41.5 130.5t45.5 145.5h-22l-14 -18q-79 17 -144 75q111 71 209 71l5 -1q3 -1 12 -9q9 1 24 1q48 0 78 -30.5
t30 -79.5q0 -46 -84 -213l-19 -2q-59 -120 -113 -174z" />
    <glyph glyph-name="glyph359" unicode="&#x1eee;" horiz-adv-x="1275" 
d="M344 1239l26 61q51 9 154 25l7 -2l4 -6q20 -213 20 -217q0 -11 -21 -78q-114 -361 -114 -698q0 -59 8 -111q158 112 319 349q135 199 230 417q11 31 43 86q100 41 158 57l6 -5l2 -19q0 -221 -139 -591q-144 -381 -293 -531q-51 -7 -99 -7q-113 0 -199 19
q-103 23 -215 128.5t-134 206.5q-9 41 -9 119q0 175 19 381q24 258 64 369q12 8 163 47zM1042 1032l229 360q34 13 90 -3q51 -15 74 -34l-10 -41l15 -42l-365 -303zM1163 1758q-56 -283 -209 -283q-25 0 -128 64q-69 42 -138 85q-69 -61 -127 -147l-54 18l8 19l-38 14
q17 36 72 101q52 63 65 94q68 35 129 35q39 0 138 -57q135 -77 144 -81q21 34 42 67q30 47 50 50q20 20 46 21z" />
    <glyph glyph-name="glyph360" unicode="&#x1eef;" horiz-adv-x="951" 
d="M336 793q6 28 98 28q7 0 8 -8q-4 -17 -16 -47q-103 -272 -152 -553q145 147 285 352q35 52 44 58q18 13 83 25q57 11 90 11l5 -1l1 -11q0 -62 -10 -187t-10 -188q0 -187 18 -321l-78 -19l-53 68q-63 -4 -65 -4q-46 0 -125 201q-140 -119 -248 -119q-86 0 -148 24
q-24 72 -24 170q0 92 24 240q27 172 62 226q9 5 211 55zM613 513l229 360q34 13 90 -3q51 -15 74 -34l-10 -41l15 -42l-365 -303zM853 1221q-56 -283 -209 -283q-25 0 -128 64q-69 42 -138 85q-69 -61 -127 -147l-54 18l8 19l-38 14q17 36 72 101q52 63 65 94q68 35 129 35
q39 0 138 -57q135 -77 144 -81q21 34 42 67q30 47 50 50q20 20 46 21z" />
    <glyph glyph-name="glyph361" unicode="&#x1ef0;" horiz-adv-x="1275" 
d="M344 1239l26 61q51 9 154 25l7 -2l4 -6q20 -213 20 -217q0 -11 -21 -78q-114 -361 -114 -698q0 -59 8 -111q158 112 319 349q135 199 230 417q11 31 43 86q100 41 158 57l6 -5l2 -19q0 -221 -139 -591q-144 -381 -293 -531q-51 -7 -99 -7q-113 0 -199 19
q-103 23 -215 128.5t-134 206.5q-9 41 -9 119q0 175 19 381q24 258 64 369q12 8 163 47zM1042 1032l229 360q34 13 90 -3q51 -15 74 -34l-10 -41l15 -42l-365 -303zM279 -282l17 8l100 8l47 60l41 6q72 0 91 -16q11 -9 22 -33q-14 -107 -35 -135q-11 -14 -121 -93
q-58 2 -99 -3q-28 27 -74 83l-3 10q0 70 14 105z" />
    <glyph glyph-name="glyph362" unicode="&#x1ef1;" horiz-adv-x="951" 
d="M336 793q6 28 98 28q7 0 8 -8q-4 -17 -16 -47q-103 -272 -152 -553q145 147 285 352q35 52 44 58q18 13 83 25q57 11 90 11l5 -1l1 -11q0 -62 -10 -187t-10 -188q0 -187 18 -321l-78 -19l-53 68q-63 -4 -65 -4q-46 0 -125 201q-140 -119 -248 -119q-86 0 -148 24
q-24 72 -24 170q0 92 24 240q27 172 62 226q9 5 211 55zM613 513l229 360q34 13 90 -3q51 -15 74 -34l-10 -41l15 -42l-365 -303zM169 -282l17 8l100 8l47 60l41 6q72 0 91 -16q11 -9 22 -33q-14 -107 -35 -135q-11 -14 -121 -93q-58 2 -99 -3q-28 27 -74 83l-3 10
q0 70 14 105z" />
    <glyph glyph-name="glyph363" unicode="&#x1ef2;" horiz-adv-x="1053" 
d="M526 446q-159 -174 -213 -174q-40 0 -184 146q-20 108 -20 381q0 431 36 542q8 -1 213 -190q0 -236 8 -329q16 -189 72 -318q153 150 383 614q24 62 80 178q6 0 94 -82l-2 -127l70 -77q-52 -360 -266 -700q-173 -276 -482 -580q-72 37 -165 63q193 278 376 653zM680 1444
q-123 67 -247 134q-192 111 -192 151q0 15 50 52q42 32 67 44q87 -59 232 -181q160 -133 231 -185q-20 2 -41 2q-56 0 -100 -17z" />
    <glyph glyph-name="glyph364" unicode="&#x1ef3;" horiz-adv-x="758" 
d="M205 78l-68 31l2 28q-85 72 -99 109q-11 28 -11 145q0 250 44 264l117 37l7 19q64 12 143 12q-41 -230 -41 -358q0 -52 4 -121q119 196 217 404q64 139 105 204q68 0 68 -105q0 -15 -1.5 -41t-1.5 -36q0 -92 -91 -348q-85 -239 -144 -340q-41 -71 -187 -203
q-176 -160 -225 -160q-35 0 -50 8l-3 6q0 43 91 220q68 131 124 225zM479 907q-123 67 -247 134q-192 111 -192 151q0 15 50 52q42 32 67 44q87 -59 232 -181q160 -133 231 -185q-20 2 -41 2q-56 0 -100 -17z" />
    <glyph glyph-name="glyph365" unicode="&#x1ef4;" horiz-adv-x="1053" 
d="M526 446q-159 -174 -213 -174q-40 0 -184 146q-20 108 -20 381q0 431 36 542q8 -1 213 -190q0 -236 8 -329q16 -189 72 -318q153 150 383 614q24 62 80 178q6 0 94 -82l-2 -127l70 -77q-52 -360 -266 -700q-173 -276 -482 -580q-72 37 -165 63q193 278 376 653zM449 -282
l17 8l100 8l47 60l41 6q72 0 91 -16q11 -9 22 -33q-14 -107 -35 -135q-11 -14 -121 -93q-58 2 -99 -3q-28 27 -74 83l-3 10q0 70 14 105z" />
    <glyph glyph-name="glyph366" unicode="&#x1ef5;" horiz-adv-x="758" 
d="M205 78l-68 31l2 28q-85 72 -99 109q-11 28 -11 145q0 250 44 264l117 37l7 19q64 12 143 12q-41 -230 -41 -358q0 -52 4 -121q119 196 217 404q64 139 105 204q68 0 68 -105q0 -15 -1.5 -41t-1.5 -36q0 -92 -91 -348q-85 -239 -144 -340q-41 -71 -187 -203
q-176 -160 -225 -160q-35 0 -50 8l-3 6q0 43 91 220q68 131 124 225zM329 -282l17 8l100 8l47 60l41 6q72 0 91 -16q11 -9 22 -33q-14 -107 -35 -135q-11 -14 -121 -93q-58 2 -99 -3q-28 27 -74 83l-3 10q0 70 14 105z" />
    <glyph glyph-name="glyph367" unicode="&#x1ef6;" horiz-adv-x="1053" 
d="M526 446q-159 -174 -213 -174q-40 0 -184 146q-20 108 -20 381q0 431 36 542q8 -1 213 -190q0 -236 8 -329q16 -189 72 -318q153 150 383 614q24 62 80 178q6 0 94 -82l-2 -127l70 -77q-52 -360 -266 -700q-173 -276 -482 -580q-72 37 -165 63q193 278 376 653zM588 1387
q-49 59 -49 104q0 29 41.5 130.5t45.5 145.5h-22l-14 -18q-79 17 -144 75q111 71 209 71l5 -1q3 -1 12 -9q9 1 24 1q48 0 78 -30.5t30 -79.5q0 -46 -84 -213l-19 -2q-59 -120 -113 -174z" />
    <glyph glyph-name="glyph368" unicode="&#x1ef7;" horiz-adv-x="758" 
d="M205 78l-68 31l2 28q-85 72 -99 109q-11 28 -11 145q0 250 44 264l117 37l7 19q64 12 143 12q-41 -230 -41 -358q0 -52 4 -121q119 196 217 404q64 139 105 204q68 0 68 -105q0 -15 -1.5 -41t-1.5 -36q0 -92 -91 -348q-85 -239 -144 -340q-41 -71 -187 -203
q-176 -160 -225 -160q-35 0 -50 8l-3 6q0 43 91 220q68 131 124 225zM439 904q-49 59 -49 104q0 29 41.5 130.5t45.5 145.5h-22l-14 -18q-79 17 -144 75q111 71 209 71l5 -1q3 -1 12 -9q9 1 24 1q48 0 78 -30.5t30 -79.5q0 -46 -84 -213l-19 -2q-59 -120 -113 -174z" />
    <glyph glyph-name="glyph369" unicode="&#x1ef8;" horiz-adv-x="1053" 
d="M526 446q-159 -174 -213 -174q-40 0 -184 146q-20 108 -20 381q0 431 36 542q8 -1 213 -190q0 -236 8 -329q16 -189 72 -318q153 150 383 614q24 62 80 178q6 0 94 -82l-2 -127l70 -77q-52 -360 -266 -700q-173 -276 -482 -580q-72 37 -165 63q193 278 376 653zM963 1758
q-56 -283 -209 -283q-25 0 -128 64q-69 42 -138 85q-69 -61 -127 -147l-54 18l8 19l-38 14q17 36 72 101q52 63 65 94q68 35 129 35q39 0 138 -57q135 -77 144 -81q21 34 42 67q30 47 50 50q20 20 46 21z" />
    <glyph glyph-name="glyph370" unicode="&#x1ef9;" horiz-adv-x="758" 
d="M205 78l-68 31l2 28q-85 72 -99 109q-11 28 -11 145q0 250 44 264l117 37l7 19q64 12 143 12q-41 -230 -41 -358q0 -52 4 -121q119 196 217 404q64 139 105 204q68 0 68 -105q0 -15 -1.5 -41t-1.5 -36q0 -92 -91 -348q-85 -239 -144 -340q-41 -71 -187 -203
q-176 -160 -225 -160q-35 0 -50 8l-3 6q0 43 91 220q68 131 124 225zM783 1221q-56 -283 -209 -283q-25 0 -128 64q-69 42 -138 85q-69 -61 -127 -147l-54 18l8 19l-38 14q17 36 72 101q52 63 65 94q68 35 129 35q39 0 138 -57q135 -77 144 -81q21 34 42 67q30 47 50 50
q20 20 46 21z" />
    <glyph glyph-name="endash" unicode="&#x2013;" horiz-adv-x="1024" 
d="M-78 313l39 160h1051l-37 -160h-1053z" />
    <glyph glyph-name="emdash" unicode="&#x2014;" horiz-adv-x="2048" 
d="M-78 313l39 160h2075l-37 -160h-2077z" />
    <glyph glyph-name="quoteleft" unicode="&#x2018;" horiz-adv-x="516" 
d="M440 1350l58 -60l-31 -100l6 -24q-45 -101 -117 -306l-37 -49q-36 -8 -75 -8q-60 0 -94 20q-11 26 -9 64l-14 20q118 195 313 443z" />
    <glyph glyph-name="quoteright" unicode="&#x2019;" horiz-adv-x="516" 
d="M160 858l139 467q33 25 100 25q60 0 92 -14l1 -48l30 -41l-305 -448z" />
    <glyph glyph-name="quotesinglbase" unicode="&#x201a;" horiz-adv-x="516" 
d="M-25 -248l140 467q31 23 102 23q60 0 92 -15v-47l31 -39l-305 -448z" />
    <glyph glyph-name="quotedblleft" unicode="&#x201c;" horiz-adv-x="858" 
d="M442 1350l52 -78q-41 -113 -82 -227q-47 -133 -68 -232l-182 -10l-2 39l-39 35q35 62 92 190q28 8 118 129q56 77 111 154zM772 1350l64 -47l-15 -50l10 -22q-87 -196 -131 -361l-43 -55l-41 -12l-118 6l-21 22v82l160 242l18 12z" />
    <glyph glyph-name="quotedblright" unicode="&#x201d;" horiz-adv-x="858" 
d="M496 877q14 52 79 232q51 143 66 234l180 7l10 -62l39 -14l-114 -207l-17 -6l-188 -256zM156 840q33 82 78 241q47 168 75 242q75 27 113 27q24 0 63 -13l39 -75q-143 -278 -305 -463z" />
    <glyph glyph-name="quotedblbase" unicode="&#x201e;" horiz-adv-x="858" 
d="M-25 -229q99 253 119 401l23 39q66 31 114 31q39 0 70 -9q6 -22 4 -51l35 -28q-179 -331 -313 -465l-52 30l11 33zM313 -229q89 174 89 276q0 11 -1 19l78 176h166l41 -82q-86 -132 -141 -250l-29 -10l-147 -201z" />
    <glyph glyph-name="dagger" unicode="&#x2020;" horiz-adv-x="1024" 
d="M375 760l-25 2q-43 3 -96 -21l-45 11q-6 74 -6 127l213 18q46 162 131 344q88 66 133 123l63 10l8 -6l3 -14q0 -71 -30 -219q-46 -225 -46 -226l125 4q18 -15 43 -23l2 -93q-37 -10 -51 -41q-50 -8 -146 -8q-34 -189 -68 -379q-38 -225 -38 -383q0 -38 2 -74l-60 -84
q-48 52 -71 80q-43 54 -54 88q-32 102 -32 434q0 123 45 330z" />
    <glyph glyph-name="daggerdbl" unicode="&#x2021;" horiz-adv-x="1024" 
d="M393 819q-62 -12 -94 -12q-35 0 -69 12q-7 70 -7 125l213 21q62 187 146 397l36 -6q0 -49 15 -56q14 9 37 60l71 14l9 -5l4 -15q0 -68 -26 -189q-34 -165 -38 -192q128 -2 172 14q0 -8 -2 -30.5t-2 -34.5q0 -9 2.5 -30t1.5 -32q-38 -9 -51 -39q-50 -8 -145 -8
q-41 -249 -80 -423l71 1q59 1 156 -10l2 -78q1 -46 -29 -59l-225 -8q-16 -154 -16 -259q-32 -54 -105 -149q-68 60 -110 399l-174 -14q12 30 12 55q0 8 -8 33l16 49l156 19q6 236 61 450z" />
    <glyph glyph-name="bullet" unicode="&#x2022;" horiz-adv-x="1208" 
d="M307 762q0 124 86.5 209.5t210.5 85.5q123 0 209 -86t86 -209t-87 -210t-210 -87q-124 0 -209.5 86.5t-85.5 210.5z" />
    <glyph glyph-name="ellipsis" unicode="&#x2026;" horiz-adv-x="2048" 
d="M139 160l17 8l100 8l47 60l41 6q72 0 91 -16q11 -9 22 -33q-14 -107 -35 -135q-11 -14 -121 -93q-58 2 -99 -3q-28 27 -74 83l-3 10q0 70 14 105zM821 160l17 8l100 8l47 60l41 6q72 0 91 -16q11 -9 22 -33q-14 -107 -35 -135q-11 -14 -121 -93q-58 2 -99 -3
q-28 27 -74 83l-3 10q0 70 14 105zM1505 160l17 8l100 8l47 60l41 6q72 0 91 -16q11 -9 22 -33q-14 -107 -35 -135q-11 -14 -121 -93q-58 2 -99 -3q-28 27 -74 83l-3 10q0 70 14 105z" />
    <glyph glyph-name="perthousand" unicode="&#x2030;" horiz-adv-x="2058" 
d="M1749 600q-131 -203 -207 -444q113 42 191 114q96 89 96 191q0 78 -80 139zM1735 666l28 28q203 -96 203 -258q0 -172 -42 -249q-46 -84 -194 -162q-94 -50 -143 -50q-73 0 -134 93q-56 85 -56 163q0 144 59 284q66 155 174 228q55 -21 105 -77zM1100 600
q-131 -203 -207 -444q113 42 191 114q96 89 96 191q0 78 -80 139zM1085 666l29 28q203 -96 203 -258q0 -172 -42 -249q-46 -84 -194 -162q-94 -50 -143 -50q-73 0 -134 93q-56 85 -56 163q0 144 59 284q66 155 174 228q57 -22 104 -77zM395 1221l27 28q205 -98 205 -256
q0 -173 -41 -250q-47 -86 -196 -162q-95 -49 -144 -49q-72 0 -133 93q-56 85 -56 163q0 144 59 283q64 153 173 227q62 -25 106 -77zM408 1157q-130 -199 -207 -446q113 42 190 114q96 88 96 191q0 79 -79 141zM1024 1278h76l20 20h111l-862 -1248q-16 -8 -50 -5l-71 -70
h-60z" />
    <glyph glyph-name="guilsinglleft" unicode="&#x2039;" horiz-adv-x="598" 
d="M479 696v-41q-82 -94 -123 -146q-72 -95 -96 -163l35 -84l211 -186l-2 -53q-183 18 -260 61q-98 54 -163 204q-38 88 -38 122q0 59 91 214q95 162 145 162q17 0 95 -39q95 -47 105 -51z" />
    <glyph glyph-name="guilsinglright" unicode="&#x203a;" horiz-adv-x="598" 
d="M53 639q113 29 185 149l34 13q209 -303 209 -492q0 -132 -95 -220.5t-228 -88.5q-59 0 -107 20l-12 48q237 124 237 243q0 75 -91 159q-102 96 -103 97z" />
    <glyph glyph-name="fraction" unicode="&#x2044;" horiz-adv-x="342" 
d="M475 1278h76l22 20h109l-795 -1228q-6 -9 -16 -19q-17 -10 -49 -6l-72 -70h-92z" />
    <glyph glyph-name="franc" unicode="&#x20a3;" horiz-adv-x="1698" 
d="M172 -168l-35 10l10 178h-18l-27 -38q-22 1 -51 7l-4 7q42 327 105 985l-56 82l17 96l190 64q14 37 70.5 86t91.5 49q38 0 50 -14q7 -9 17 -50q118 29 230 29q289 0 289 -170q0 -171 -142 -362l-28 10q8 66 8 98q0 56 -8 94q-28 2 -70 2q-129 0 -270 -55
q-29 -110 -92 -329q119 14 215 14q297 0 297 -76q0 -23 -11 -59q-15 -48 -17 -58q-283 -30 -581 -162q-22 -62 -93 -219q-63 -138 -87 -219zM1448 74q-130 -109 -231 -109q-109 0 -109 70q0 108 219 381q-82 47 -163 93q-97 64 -97 144q0 121 35 158q76 0 247 -59
q185 -64 217 -117q19 -33 19 -135q0 -67 -8 -191q-94 -90 -229 -164z" />
    <glyph glyph-name="u20AB" unicode="&#x20ab;" horiz-adv-x="690" 
d="M333 940q-202 -181 -202 -246q0 -23 16 -41q113 83 186 287zM297 592q-138 -144 -227 -144q-57 0 -57 93q0 212 374 509l43 103l-128 -1l-1 4q0 62 32 62l122 -1q40 139 152 139l8 -3l3 -11q0 -34 -18 -124q56 0 76 -1q13 -18 17 -40l-7 -20q-26 -5 -100 -5
q-69 -298 -69 -460q0 -171 51 -231l51 32l10 -20q-81 -111 -140 -120q-139 69 -192 239zM26 271h477v-102h-477v102z" />
    <glyph glyph-name="trademark" unicode="&#x2122;" horiz-adv-x="1706" 
d="M803 1462h196l127 -332l123 332h197v-547h-135v410l-154 -410h-61l-158 410v-410h-135v547zM207 1462h485v-112h-168v-435h-149v435h-168v112z" />
    <glyph glyph-name="partialdiff" unicode="&#x2202;" horiz-adv-x="1094" 
d="M762 662q39 203 39 344q0 215 -96 215q-39 0 -146 -73t-160 -73q-42 0 -71 30t-29 73q0 82 113 132q90 40 184 40q219 0 333 -197q93 -162 93 -397q0 -294 -127 -515q-153 -266 -426 -266q-174 0 -283.5 115.5t-109.5 290.5q0 187 106 319q114 142 297 142
q196 0 283 -180zM700 518q0 240 -149 240q-126 0 -189 -185q-45 -132 -45 -290q0 -238 150 -238q125 0 188 184q45 132 45 289z" />
    <glyph glyph-name="product" unicode="&#x220f;" horiz-adv-x="1612" 
d="M150 1473h1308v-1866h-344v1577h-620v-1577h-344v1866z" />
    <glyph glyph-name="summation" unicode="&#x2211;" horiz-adv-x="1470" 
d="M66 1473h1308v-265h-878l620 -645l-622 -690h933v-266h-1386v172l698 772l-673 690v232z" />
    <glyph glyph-name="minus" unicode="&#x2212;" horiz-adv-x="1706" 
d="M254 713h1198v-203h-1198v203z" />
    <glyph glyph-name="radical" unicode="&#x221a;" horiz-adv-x="1346" 
d="M1141 1694h207v-129h-103l-592 -1606h-100l-311 858l-140 -51l-30 113l331 116l236 -661z" />
    <glyph glyph-name="infinity" unicode="&#x221e;" horiz-adv-x="1706" 
d="M942 561q91 -151 246 -151q92 0 151.5 54.5t59.5 145.5q0 84 -52.5 141.5t-136.5 57.5q-143 0 -268 -248zM766 659q-88 150 -246 150q-92 0 -151.5 -55t-59.5 -146q0 -84 53 -141t136 -57q143 0 268 249zM858 457q-133 -258 -321 -258q-154 0 -248 132q-84 119 -84 279
q0 163 71 276q84 134 238 134q173 0 334 -258q134 260 323 260q153 0 248 -133q84 -120 84 -279q0 -162 -71 -276q-85 -133 -238 -133q-174 0 -336 256z" />
    <glyph glyph-name="integral" unicode="&#x222b;" horiz-adv-x="1186" 
d="M342 -252q102 0 121 639q12 393 16 445q26 315 111 491q113 231 330 231q90 0 150 -43q67 -48 67 -135q0 -61 -38.5 -97t-99.5 -36q-72 0 -101 50q-13 24 -24 93q-8 50 -30 50q-98 0 -119 -633q-14 -419 -17 -448q-26 -318 -111 -495q-112 -233 -331 -233q-88 0 -149 43
q-68 48 -68 133q0 64 40 100t104 36q76 0 102 -50q13 -23 20 -91q4 -50 27 -50z" />
    <glyph glyph-name="approxequal" unicode="&#x2248;" horiz-adv-x="1706" 
d="M1530 596v-219q-205 -139 -379 -139q-100 0 -293 66.5t-295 66.5q-159 0 -385 -158v219q217 143 387 143q104 0 297.5 -65.5t292.5 -65.5q163 0 375 152zM1530 1008v-220q-204 -137 -377 -137q-100 0 -293.5 65.5t-296.5 65.5q-156 0 -385 -157v219q215 143 387 143
q104 0 297.5 -65.5t292.5 -65.5q158 0 375 152z" />
    <glyph glyph-name="approxequal" unicode="&#x22f2;" horiz-adv-x="1706" 
d="M1530 596v-219q-205 -139 -379 -139q-100 0 -293 66.5t-295 66.5q-159 0 -385 -158v219q217 143 387 143q104 0 297.5 -65.5t292.5 -65.5q163 0 375 152zM1530 1008v-220q-204 -137 -377 -137q-100 0 -293.5 65.5t-296.5 65.5q-156 0 -385 -157v219q215 143 387 143
q104 0 297.5 -65.5t292.5 -65.5q158 0 375 152z" />
    <glyph glyph-name="notequal" unicode="&#x2260;" horiz-adv-x="1706" 
d="M1198 1233l148 -119l-154 -192h260v-191h-389l-191 -239h580v-193h-707l-245 -309l-148 119l154 190h-252v193h377l190 239h-567v191h696z" />
    <glyph glyph-name="lessequal" unicode="&#x2264;" horiz-adv-x="1706" 
d="M258 195h1192v-197h-1192v197zM1448 1241v-209l-834 -264l834 -262v-209l-1190 385v174z" />
    <glyph glyph-name="greaterequal" unicode="&#x2265;" horiz-adv-x="1706" 
d="M258 195h1192v-197h-1192v197zM260 1241l1188 -385v-174l-1188 -385v209l832 262l-832 264v209z" />
    <glyph glyph-name="SF370000" unicode="&#x255f;" horiz-adv-x="1090" 
d="M305 567l283 49q0 236 -43 484q-52 -101 -123 -265q-95 -219 -117 -268zM506 1223l-14 90q85 49 260 49l19 -5l15 -23l64 3l17 -2q59 -28 59 -405q0 -49 -6 -137q-6 -96 -7 -136q78 8 84 7l13 -5q2 -10 2 -20q0 -215 -76 -215q-35 -51 -78 -82q-18 -124 -35 -199
l-174 -106l-14 -82q-69 -31 -74 -31q-6 0 -6 2q25 201 25 273q0 82 -3 108q-122 -5 -366 -12q-36 -100 -73 -200q-57 -156 -72 -156l-21 -56l-43 -2q-11 0 -30 4l-11 11q0 52 100 401q-96 115 -96 211l8 15q14 4 150 18q25 101 91 286q69 192 93 285q66 40 199 111z" />
    <glyph glyph-name="SF420000" unicode="&#x2560;" horiz-adv-x="1063" 
d="M858 268q-88 -84 -129 -196q-259 -105 -369 -105q-147 0 -206 135l-29 -34h-35q-27 0 -27 206q0 501 205 957q200 98 484 98q257 0 276 -31q12 -20 12 -81q0 -17 -69 -175q-243 -25 -398 -67q-101 -146 -153 -240q81 4 162 4q79 0 201 -20q163 -27 163 -66q0 -9 -35 -129
q-366 -72 -602 -231q22 -111 178 -111q160 0 355 107z" />
    <glyph glyph-name="SF190000" unicode="&#x2561;" horiz-adv-x="616" 
d="M88 885q77 216 194 395q24 37 54 45q14 4 70 4q27 0 39 -5q32 -13 90 -136q55 -118 55 -158q0 -13 -106 -368q-107 -358 -185 -713h-14q-88 0 -144 94q-47 80 -47 174q0 124 78 461z" />
    <glyph glyph-name="SF200000" unicode="&#x2562;" horiz-adv-x="1147" 
d="M512 918q-137 -419 -137 -605q0 -16 2 -49.5t2 -50.5q136 34 313 191q189 167 189 286q0 91 -145 159q-96 45 -224 69zM217 1219q35 4 106 10l48 94q349 -8 483 -60q238 -91 238 -370q0 -148 -76 -362q-84 -233 -205 -385q-144 -179 -297 -179q-146 0 -300 149
q-157 153 -157 308q0 172 172 547q-41 6 -122 16z" />
    <glyph glyph-name="SF230000" unicode="&#x2563;" horiz-adv-x="1204" 
d="M344 1239l26 61q51 9 154 25l7 -2l4 -6q20 -213 20 -217q0 -11 -21 -78q-114 -361 -114 -698q0 -59 8 -111q158 112 319 349q135 199 230 417q11 31 43 86q100 41 158 57l6 -5l2 -19q0 -221 -139 -591q-144 -381 -293 -531q-51 -7 -99 -7q-113 0 -199 19
q-103 23 -215 128.5t-134 206.5q-9 41 -9 119q0 175 19 381q24 258 64 369q12 8 163 47z" />
    <glyph glyph-name="SF470000" unicode="&#x2564;" horiz-adv-x="1053" 
d="M526 446q-159 -174 -213 -174q-40 0 -184 146q-20 108 -20 381q0 431 36 542q8 -1 213 -190q0 -236 8 -329q16 -189 72 -318q153 150 383 614q24 62 80 178q6 0 94 -82l-2 -127l70 -77q-52 -360 -266 -700q-173 -276 -482 -580q-72 37 -165 63q193 278 376 653z" />
    <glyph glyph-name="SF480000" unicode="&#x2565;" 
d="M293 645q-124 -132 -176 -330l215 187zM397 279q-325 -236 -354 -236q-55 0 -55 127q0 250 274 586q-4 11 -4 18q1 20 47 57q61 50 66 56q10 -3 57 -39q68 29 66 29q34 0 108 -95q54 -71 88 -131q-51 -120 -51 -332q0 -101 35 -327l-3 -6l-9 -2q-139 32 -172 80
q-47 107 -93 215z" />
    <glyph glyph-name="SF410000" unicode="&#x2566;" horiz-adv-x="702" 
d="M274 354q118 153 168 244q-130 -10 -168 -244zM-20 180v25q0 308 194 516q45 47 62 47q43 0 170.5 -36.5t160.5 -59.5q14 -31 45 -90q-144 -185 -329 -400l39 -110q61 19 270 96l10 -8q2 -14 2 -29q0 -40 -8 -78q-132 -116 -197 -116q-107 0 -234 77q-119 72 -185 166z
" />
    <glyph glyph-name="SF450000" unicode="&#x2567;" horiz-adv-x="569" 
d="M311 -23q-136 60 -159.5 87t-63.5 169l-96 5l-2 118q-1 77 163.5 223.5t252.5 147.5q53 -42 53 -82q0 -5 -11 -60q-57 -286 -81 -569zM448 1126l52 -112q-161 -149 -250 -221l-148 94q140 160 154 170q40 31 192 69z" />
    <glyph glyph-name="SF460000" unicode="&#x2568;" horiz-adv-x="569" 
d="M311 -23q-139 68 -162 100q-14 17 -61 179l-96 6l-2 127q-1 83 163.5 243t252.5 161q53 -49 53 -88q0 -5 -11 -65q-56 -310 -81 -622z" />
    <glyph glyph-name="SF400000" unicode="&#x2569;" horiz-adv-x="739" 
d="M211 506q-16 -70 -16 -125q0 -98 59 -98q90 0 160 104q-76 70 -203 119zM96 543q-33 31 -33 53q0 44 105 127.5t154 83.5q91 0 212 -71q132 -79 132 -161q0 -84 -118 -281q-103 -172 -183 -257q-31 -34 -98 -56q-61 -20 -113 -20q-109 0 -109 207q0 194 51 375z" />
    <glyph glyph-name="SF540000" unicode="&#x256a;" horiz-adv-x="920" 
d="M336 793q6 28 98 28q7 0 8 -8q-4 -17 -16 -47q-103 -272 -152 -553q145 147 285 352q35 52 44 58q18 13 83 25q57 11 90 11l5 -1l1 -11q0 -62 -10 -187t-10 -188q0 -187 18 -321l-78 -19l-53 68q-63 -4 -65 -4q-46 0 -125 201q-140 -119 -248 -119q-86 0 -148 24
q-24 72 -24 170q0 92 24 240q27 172 62 226q9 5 211 55z" />
    <glyph glyph-name="SF530000" unicode="&#x256b;" horiz-adv-x="758" 
d="M205 78l-68 31l2 28q-85 72 -99 109q-11 28 -11 145q0 250 44 264l117 37l7 19q64 12 143 12q-41 -230 -41 -358q0 -52 4 -121q119 196 217 404q64 139 105 204q68 0 68 -105q0 -15 -1.5 -41t-1.5 -36q0 -92 -91 -348q-85 -239 -144 -340q-41 -71 -187 -203
q-176 -160 -225 -160q-35 0 -50 8l-3 6q0 43 91 220q68 131 124 225z" />
    <glyph glyph-name="lozenge" unicode="&#x25ca;" horiz-adv-x="1012" 
d="M506 1409l-385 -817l385 -825l385 825zM506 1653l500 -1061l-500 -1069l-500 1069z" />
    <glyph glyph-name="circle" unicode="&#x25cb;" horiz-adv-x="1090" 
d="M405 1390q-6 16 -6 29q0 15 2 26l24 15l11 43q10 39 161 153.5t193 114.5q25 0 92 -87l84 -118l-14 -73q30 -43 30 -60q0 -40 -34 -49l-197 162q-223 -94 -346 -156zM429 1789l20 41l51 20l7 35q78 21 286 146q180 108 277 108l17 -8q5 -13 5 -25q0 -33 -38 -65
q6 -28 6 -29q0 -76 -281 -152q-176 -47 -350 -71z" />
    <glyph glyph-name="H18533" unicode="&#x25cf;" horiz-adv-x="1090" 
d="M405 1390q-6 16 -6 29q0 15 2 26l24 15l11 43q10 39 161 153.5t193 114.5q25 0 92 -87l84 -118l-14 -73q30 -43 30 -60q0 -40 -34 -49l-197 162q-223 -94 -346 -156zM1007 1790q-123 67 -247 134q-192 111 -192 151q0 15 50 52q42 32 67 44q87 -59 232 -181
q160 -133 231 -185q-20 2 -41 2q-56 0 -100 -17z" />
    <glyph glyph-name="invbullet" unicode="&#x25d8;" horiz-adv-x="1090" 
d="M405 1390q-6 16 -6 29q0 15 2 26l24 15l11 43q10 39 161 153.5t193 114.5q25 0 92 -87l84 -118l-14 -73q30 -43 30 -60q0 -40 -34 -49l-197 162q-223 -94 -346 -156zM949 1701q-49 59 -49 104q0 29 41.5 130.5t45.5 145.5h-22l-14 -18q-79 17 -144 75q111 71 209 71l5 -1
q3 -1 12 -9q9 1 24 1q48 0 78 -30.5t30 -79.5q0 -46 -84 -213l-19 -2q-59 -120 -113 -174z" />
    <glyph glyph-name="invcircle" unicode="&#x25d9;" horiz-adv-x="1090" 
d="M405 1390q-6 16 -6 29q0 15 2 26l24 15l11 43q10 39 161 153.5t193 114.5q25 0 92 -87l84 -118l-14 -73q30 -43 30 -60q0 -40 -34 -49l-197 162q-223 -94 -346 -156zM1218 2104q-56 -283 -209 -283q-25 0 -128 64q-69 42 -138 85q-69 -61 -127 -147l-54 18l8 19l-38 14
q17 36 72 101q52 63 65 94q68 35 129 35q39 0 138 -57q135 -77 144 -81q21 34 42 67q30 47 50 50q20 20 46 21z" />
    <glyph glyph-name="apple" unicode="&#xf000;" horiz-adv-x="1618" 
d="M836 1216q-2 16 -2 37q0 132 101 237q96 99 230 124q2 -27 2 -62q0 -122 -96 -229q-99 -109 -219 -109zM1505 403q-90 -195 -153 -280q-118 -158 -256 -158q-45 0 -128 33t-126 33q-45 0 -129.5 -33t-128.5 -33q-185 0 -338 301q-133 262 -133 471q0 211 117 348
q124 146 331 146q52 0 143 -34t136 -34q39 0 130 35t144 35q217 0 359 -164q-201 -128 -201 -328q0 -233 233 -338z" />
    <glyph glyph-name="fi" unicode="&#xf001;" horiz-adv-x="1128" 
d="M1008 1126l51 -112q-161 -149 -250 -221l-147 94q140 159 151 168q58 46 195 71zM870 -23q-137 60 -160 88q-20 23 -63 168l-96 5v118q0 82 166 227q163 143 248 144q55 -43 55 -82q0 -5 -11 -59q-59 -288 -83 -570zM465 1327q48 4 55 4q11 0 21 -4q4 -10 4 -184
q0 -55 -78 -265q-52 -138 -105 -276l25 -88q59 8 70 8l8 -2l2 -8l-4 -78l-55 -123q47 -243 47 -553v-51q-28 -34 -80 -70q-59 -42 -92 -43q-108 59 -189 276q-71 191 -71 337q0 393 442 1120zM322 238q-15 -75 -15 -162q0 -169 31 -252q29 101 29 291q0 83 -7 157z" />
    <glyph glyph-name="fl" unicode="&#xf002;" horiz-adv-x="1118" 
d="M854 1223l66 -31l22 20l139 -73l6 -205q-243 -584 -243 -774q0 -107 47 -199q40 -18 82 -18q45 0 123 43l2 -35q-32 -24 -43 -86q-55 -26 -123 -35q-176 71 -256 193q-78 119 -78 311q0 303 256 889zM322 238q-15 -75 -15 -162q0 -169 31 -252q29 101 29 291q0 83 -7 157
zM465 1327q48 4 55 4q11 0 21 -4q4 -10 4 -184q0 -55 -78 -265q-52 -138 -105 -276l25 -88q59 8 70 8l8 -2l2 -8l-4 -78l-55 -123q47 -243 47 -553v-51q-28 -34 -80 -70q-59 -42 -92 -43q-108 59 -189 276q-71 191 -71 337q0 393 442 1120z" />
    <glyph glyph-name="periodcentered" horiz-adv-x="516" 
d="M94 637q0 60 44 103.5t104 43.5q61 0 103 -42.5t42 -104.5q0 -61 -42 -103t-103 -42q-60 0 -104 42.5t-44 102.5z" />
    <glyph glyph-name="glyph275" horiz-adv-x="516" 
 />
    <glyph glyph-name="glyph276" horiz-adv-x="516" 
 />
    <glyph glyph-name="glyph261" horiz-adv-x="516" 
d="M125 942l229 360q34 13 90 -3q51 -15 74 -34l-10 -41l15 -42l-365 -303z" />
    <glyph glyph-name="glyph262" horiz-adv-x="1024" 
d="M585 854q-49 59 -49 104q0 29 41.5 130.5t45.5 145.5h-22l-14 -18q-79 17 -144 75q111 71 209 71l5 -1q3 -1 12 -9q9 1 24 1q48 0 78 -30.5t30 -79.5q0 -46 -84 -213l-19 -2q-59 -120 -113 -174z" />
    <glyph glyph-name="glyph263" 
d="M141 903q-6 16 -6 29q0 15 2 26l24 15l11 43q10 39 161 153.5t193 114.5q25 0 92 -87l84 -118l-14 -73q30 -43 30 -60q0 -40 -34 -49l-197 162q-223 -94 -346 -156zM166 1301l20 41l51 20l7 35q78 21 286 146q180 108 277 108l17 -8q5 -13 5 -25q0 -33 -38 -65
q6 -28 6 -29q0 -76 -281 -152q-176 -47 -350 -71z" />
    <glyph glyph-name="glyph264" 
d="M141 903q-6 16 -6 29q0 15 2 26l24 15l11 43q10 39 161 153.5t193 114.5q25 0 92 -87l84 -118l-14 -73q30 -43 30 -60q0 -40 -34 -49l-197 162q-223 -94 -346 -156zM743 1303q-123 67 -247 134q-192 111 -192 151q0 15 50 52q42 32 67 44q87 -59 232 -181
q160 -133 231 -185q-20 2 -41 2q-56 0 -100 -17z" />
    <glyph glyph-name="glyph265" 
d="M141 903q-6 16 -6 29q0 15 2 26l24 15l11 43q10 39 161 153.5t193 114.5q25 0 92 -87l84 -118l-14 -73q30 -43 30 -60q0 -40 -34 -49l-197 162q-223 -94 -346 -156zM685 1214q-49 59 -49 104q0 29 41.5 130.5t45.5 145.5h-22l-14 -18q-79 17 -144 75q111 71 209 71l5 -1
q3 -1 12 -9q9 1 24 1q48 0 78 -30.5t30 -79.5q0 -46 -84 -213l-19 -2q-59 -120 -113 -174z" />
    <glyph glyph-name="glyph266" 
d="M141 903q-6 16 -6 29q0 15 2 26l24 15l11 43q10 39 161 153.5t193 114.5q25 0 92 -87l84 -118l-14 -73q30 -43 30 -60q0 -40 -34 -49l-197 162q-223 -94 -346 -156zM955 1617q-56 -283 -209 -283q-25 0 -128 64q-69 42 -138 85q-69 -61 -127 -147l-54 18l8 19l-38 14
q17 36 72 101q52 63 65 94q68 35 129 35q39 0 138 -57q135 -77 144 -81q21 34 42 67q30 47 50 50q20 20 46 21z" />
    <glyph glyph-name="glyph267" 
d="M228 1194l8 55l66 18q42 -145 209 -145q136 0 225 104l94 6q-49 -122 -139 -196q-99 -82 -223 -82q-105 0 -194 51q-104 60 -105 158zM346 1301l20 41l51 20l7 35q78 21 286 146q180 108 277 108l17 -8q5 -13 5 -25q0 -33 -38 -65q6 -28 6 -29q0 -76 -281 -152
q-176 -47 -350 -71z" />
    <glyph glyph-name="glyph268" 
d="M228 1194l8 55l66 18q42 -145 209 -145q136 0 225 104l94 6q-49 -122 -139 -196q-99 -82 -223 -82q-105 0 -194 51q-104 60 -105 158zM583 1303q-123 67 -247 134q-192 111 -192 151q0 15 50 52q42 32 67 44q87 -59 232 -181q160 -133 231 -185q-20 2 -41 2
q-56 0 -100 -17z" />
    <glyph glyph-name="glyph269" 
d="M228 1194l8 55l66 18q42 -145 209 -145q136 0 225 104l94 6q-49 -122 -139 -196q-99 -82 -223 -82q-105 0 -194 51q-104 60 -105 158zM486 1214q-49 59 -49 104q0 29 41.5 130.5t45.5 145.5h-22l-14 -18q-79 17 -144 75q111 71 209 71l5 -1q3 -1 12 -9q9 1 24 1
q48 0 78 -30.5t30 -79.5q0 -46 -84 -213l-19 -2q-59 -120 -113 -174z" />
    <glyph glyph-name="glyph270" 
d="M228 1194l8 55l66 18q42 -145 209 -145q136 0 225 104l94 6q-49 -122 -139 -196q-99 -82 -223 -82q-105 0 -194 51q-104 60 -105 158zM955 1617q-56 -283 -209 -283q-25 0 -128 64q-69 42 -138 85q-69 -61 -127 -147l-54 18l8 19l-38 14q17 36 72 101q52 63 65 94
q68 35 129 35q39 0 138 -57q135 -77 144 -81q21 34 42 67q30 47 50 50q20 20 46 21z" />
    </font>
</defs>
</svg>
